<svg id="Capa_1" data-name="Capa 1" xmlns="http://www.w3.org/2000/svg" viewBox="0 0 433.12 208.55"><path d="M232.3,109.34,219.4,64.55l-12.9,44.79a4.43,4.43,0,0,0,.63,3.77l11.64,16.74a.77.77,0,0,0,1.26,0l11.65-16.74A4.46,4.46,0,0,0,232.3,109.34Z" transform="translate(-1.69 -2.45)" style="fill:#49b69e"/><path d="M275.06,112.36,221.58,3.8a2.42,2.42,0,0,0-4.35,0L164.11,112.37a.6.6,0,0,0,.65.85l25.43-4.61a12.11,12.11,0,0,0,9.51-8.69l15.07-54.56a4.83,4.83,0,0,1,9.31,0L239.3,99.87a12.11,12.11,0,0,0,9.48,8.65l25.63,4.7A.6.6,0,0,0,275.06,112.36Z" transform="translate(-1.69 -2.45)" style="fill:#fff"/><path d="M253.91,171.48l-3.53,0-3.44.05-2.86,0c-.81,0-1.4,0-1.74.06l-1.64.13,1.35-.94,1-.74c.4-.28.9-.66,1.54-1.15l2.24-1.72c.84-.64,1.86-1.44,3.1-2.44l10.78-8.56a4.84,4.84,0,0,0,1.33-1.5,3.53,3.53,0,0,0,.46-1.73,2.75,2.75,0,0,0-1.06-2.37,4.28,4.28,0,0,0-2.68-.84H232.09l-5.08,6.7H241.6c1.08,0,2,0,2.81,0s1.46,0,2-.06l1.41-.09,1.47-.1-1.16.9c-.27.21-.62.46-1,.76s-1,.67-1.59,1.14l-2.26,1.74-3.14,2.47-10.65,8.38a5.39,5.39,0,0,0-1.33,1.55,3.53,3.53,0,0,0-.46,1.73,2.76,2.76,0,0,0,1.06,2.37,4.35,4.35,0,0,0,2.68.84h18.39a17.87,17.87,0,0,0,13.84-6.61Z" transform="translate(-1.69 -2.45)" style="fill:#fff"/><path d="M301.94,171h0a19.47,19.47,0,0,1-15.36,7.51H270.3v-29.2h0a9,9,0,0,1,9,9V171Z" transform="translate(-1.69 -2.45)" style="fill:#fff"/><path d="M35.45,172.21a8.67,8.67,0,0,1-.42,2.86,5.56,5.56,0,0,1-1.13,2,4.52,4.52,0,0,1-1.62,1.14,5.1,5.1,0,0,1-1.93.37,7.69,7.69,0,0,1-3-.55,5.63,5.63,0,0,1-2.27-1.76L10.16,157.5a.89.89,0,0,0-.64-.39.64.64,0,0,0-.49.22.88.88,0,0,0-.2.61v12.84a7.15,7.15,0,0,1-7.14,7.15h0V154.66a9.54,9.54,0,0,1,.46-3.18,5.49,5.49,0,0,1,1.3-2.14,5.14,5.14,0,0,1,2-1.2A8.23,8.23,0,0,1,8,147.77a7.21,7.21,0,0,1,3.25.65,8,8,0,0,1,2.61,2.27L27.1,167.93a.84.84,0,0,0,.32.29,1,1,0,0,0,.36.06c.38,0,.56-.26.56-.78v-12a7.11,7.11,0,0,1,7.11-7.11h0Z" transform="translate(-1.69 -2.45)" style="fill:#fff"/><path d="M392.63,172.21a8.67,8.67,0,0,1-.42,2.86,5.54,5.54,0,0,1-1.12,2,4.47,4.47,0,0,1-1.63,1.14,5,5,0,0,1-1.92.37,7.69,7.69,0,0,1-3-.55,5.63,5.63,0,0,1-2.27-1.76l-14.9-18.73a.85.85,0,0,0-.64-.39.62.62,0,0,0-.48.22.88.88,0,0,0-.2.61v12.84a7.15,7.15,0,0,1-7.14,7.15h0V154.66a9.54,9.54,0,0,1,.46-3.18,5.37,5.37,0,0,1,1.3-2.14,5,5,0,0,1,2-1.2,8.19,8.19,0,0,1,2.53-.37,7.24,7.24,0,0,1,3.25.65,8.07,8.07,0,0,1,2.61,2.27l13.25,17.24a.78.78,0,0,0,.32.29,1,1,0,0,0,.36.06c.37,0,.56-.26.56-.78v-12a7.1,7.1,0,0,1,7.1-7.11h0Z" transform="translate(-1.69 -2.45)" style="fill:#fff"/><path d="M54.48,178.54a14.71,14.71,0,0,1-6.38-1.29,13.86,13.86,0,0,1-4.6-3.51,14.93,14.93,0,0,1-2.58-4.5,15.63,15.63,0,0,1-.93-5.45,15.47,15.47,0,0,1,1.17-6,14.94,14.94,0,0,1,3.23-4.84,12.85,12.85,0,0,1,4.3-2.86,14.93,14.93,0,0,1,5.79-1h5.73a15,15,0,0,1,5.8,1,13.05,13.05,0,0,1,4.3,2.86,15.1,15.1,0,0,1,3.23,4.84,16.27,16.27,0,0,1,.24,11.48,14.74,14.74,0,0,1-2.59,4.5,13.76,13.76,0,0,1-4.6,3.51,14.67,14.67,0,0,1-6.38,1.29Zm0-21.69a7.77,7.77,0,0,0-3.07.52,6.89,6.89,0,0,0-2.1,1.4A7.06,7.06,0,0,0,47.84,161a7.54,7.54,0,0,0-.1,5.34A6.71,6.71,0,0,0,49,168.5a6.29,6.29,0,0,0,2.22,1.66,7.79,7.79,0,0,0,3.27.61h5.73a7.76,7.76,0,0,0,3.27-.61,6.29,6.29,0,0,0,2.22-1.66A6.53,6.53,0,0,0,67,166.38a7.2,7.2,0,0,0,.45-2.55,7.34,7.34,0,0,0-2-5.06,6.66,6.66,0,0,0-2.1-1.4,7.77,7.77,0,0,0-3.07-.52Z" transform="translate(-1.69 -2.45)" style="fill:#fff"/><path d="M103.6,178.54a6.55,6.55,0,0,1-2.92-.66,4.3,4.3,0,0,1-2.05-2l-8.95-18.55a.55.55,0,0,0-.57-.35.73.73,0,0,0-.48.2.74.74,0,0,0-.22.59v12.61a7.59,7.59,0,0,1-7.59,7.6h0V156.32a10.11,10.11,0,0,1,.72-4.1,6.83,6.83,0,0,1,2-2.66,8.66,8.66,0,0,1,2.29-1.29,7.7,7.7,0,0,1,2.86-.5,6.77,6.77,0,0,1,4.56,1.52,11.68,11.68,0,0,1,2.9,4l6.68,14.49a.77.77,0,0,0,1.48,0L111,153.27a11.91,11.91,0,0,1,2.88-4,6.76,6.76,0,0,1,4.59-1.52,7.65,7.65,0,0,1,2.85.5,8.72,8.72,0,0,1,2.3,1.29,6.93,6.93,0,0,1,2,2.66,10.11,10.11,0,0,1,.72,4.1v21.61h0a7.6,7.6,0,0,1-7.6-7.6V157.72a.74.74,0,0,0-.22-.59.69.69,0,0,0-.48-.2.53.53,0,0,0-.56.35l-9,18.55a4.38,4.38,0,0,1-2,2A6.62,6.62,0,0,1,103.6,178.54Z" transform="translate(-1.69 -2.45)" style="fill:#fff"/><path d="M220.18,158a13.43,13.43,0,0,0-3.59-4.46,16.84,16.84,0,0,0-5.51-2.92,22.81,22.81,0,0,0-7.08-1H190.11L185.2,156H204a11.25,11.25,0,0,1,3.72.6,10.1,10.1,0,0,1,3.05,1.63,7.53,7.53,0,0,1,2.07,2.56,7.37,7.37,0,0,1,0,6.48,7.5,7.5,0,0,1-2,2.49,9.16,9.16,0,0,1-3,1.59,12.42,12.42,0,0,1-3.78.56H192.51v-4.22h-1.34a6.67,6.67,0,0,0-6.67,6.67v3.92H204a21.08,21.08,0,0,0,7-1.13,17.16,17.16,0,0,0,5.53-3.1,14.17,14.17,0,0,0,3.61-4.64,13.19,13.19,0,0,0,1.31-5.8A12.55,12.55,0,0,0,220.18,158Z" transform="translate(-1.69 -2.45)" style="fill:#fff"/><path d="M433.53,158a13.43,13.43,0,0,0-3.59-4.46,16.84,16.84,0,0,0-5.51-2.92,22.85,22.85,0,0,0-7.08-1h-13.9L398.54,156h18.81a11.29,11.29,0,0,1,3.72.6,10,10,0,0,1,3,1.63,7.44,7.44,0,0,1,2.08,2.56,7.37,7.37,0,0,1,0,6.48,7.62,7.62,0,0,1-2,2.49,9.16,9.16,0,0,1-3,1.59,12.42,12.42,0,0,1-3.78.56H405.86v-4.22h-1.35a6.67,6.67,0,0,0-6.66,6.67v3.92h19.5a21.08,21.08,0,0,0,7-1.13,17.16,17.16,0,0,0,5.53-3.1,14.31,14.31,0,0,0,3.61-4.64,13.19,13.19,0,0,0,1.31-5.8A12.68,12.68,0,0,0,433.53,158Z" transform="translate(-1.69 -2.45)" style="fill:#fff"/><path d="M336,151.49a8.79,8.79,0,0,0-2.29-2.3,5.68,5.68,0,0,0-3.25-.87,5.57,5.57,0,0,0-3.34.94,10.1,10.1,0,0,0-2.31,2.25l-19.09,26.93H310a10.35,10.35,0,0,0,8.45-4.37l11.84-16.75,10.2,14.73,0,0,1.13,1.71a10.35,10.35,0,0,0,8.63,4.64h4.35Zm-14.73,26.95h9.47a10,10,0,0,0,8.05-4.08l1.67-2.27L326,171.88Z" transform="translate(-1.69 -2.45)" style="fill:#fff"/><path d="M160.52,151.49a8.79,8.79,0,0,0-2.29-2.3,5.68,5.68,0,0,0-3.25-.87,5.59,5.59,0,0,0-3.34.94,10.1,10.1,0,0,0-2.31,2.25l-19.09,26.93h4.28a10.35,10.35,0,0,0,8.45-4.37l11.84-16.75L165,172.05l0,0,1.13,1.71a10.35,10.35,0,0,0,8.63,4.64h4.35Zm-14.73,26.95h9.48a10,10,0,0,0,8-4.08l1.68-2.27-14.42-.21Z" transform="translate(-1.69 -2.45)" style="fill:#fff"/><path d="M176.5,193H180l6.22,10.44,2,3.7h.08c-.13-1.77-.44-3.88-.44-5.78V193H191v17.56h-3.5l-6.22-10.44-2-3.69h-.08c.13,1.83.44,3.83.44,5.71v8.42H176.5Z" transform="translate(-1.69 -2.45)" style="fill:#49b69e"/><path d="M191.4,211h-4.19l-6.35-10.66-1.05-2c.12,1.24.25,2.52.25,3.75V211h-4V192.55h4.19l6.35,10.65,1.05,2a38.06,38.06,0,0,1-.25-3.81v-8.8h4Zm-3.68-.89h2.79V193.44h-2.22v7.91c0,1.24.13,2.57.26,3.85.07.66.13,1.29.17,1.89l0,.48h-.83l-2.11-3.93-6.08-10.2H177v16.67h2.22v-8c0-1.19-.13-2.45-.25-3.66-.07-.67-.14-1.36-.19-2l0-.48h.82l2.12,3.93Z" transform="translate(-1.69 -2.45)" style="fill:#49b69e"/><path d="M213.85,193h13.37v2.27h-10.1v5.44h8.56V203h-8.56v7.58h-3.27Z" transform="translate(-1.69 -2.45)" style="fill:#49b69e"/><path d="M217.56,211H213.4V192.55h14.26v3.16h-10.1v4.55h8.57v3.16h-8.57Zm-3.26-.89h2.37v-7.58h8.57v-1.38h-8.57v-6.34h10.1v-1.37H214.3Z" transform="translate(-1.69 -2.45)" style="fill:#49b69e"/><path d="M253.68,195.26H246.8V193h17v2.27H257v15.29h-3.27Z" transform="translate(-1.69 -2.45)" style="fill:#49b69e"/><path d="M257.39,211h-4.16V195.71h-6.87v-3.16h17.91v3.16h-6.88Zm-3.26-.89h2.37v-15.3h6.88v-1.37H247.25v1.37h6.88Z" transform="translate(-1.69 -2.45)" style="fill:#49b69e"/></svg>