<svg id="Capa_1" data-name="Capa 1" xmlns="http://www.w3.org/2000/svg" viewBox="0 0 74 74"><path d="M53,37c0,2.35,0,4.7,0,7a9,9,0,0,1-7.64,8.8,10.39,10.39,0,0,1-1.47.11H30.05a9,9,0,0,1-8.89-7.62,10.28,10.28,0,0,1-.11-1.47q0-6.85,0-13.72a9,9,0,0,1,9.05-9.09q6.9,0,13.8,0a9,9,0,0,1,9,7.77A10.08,10.08,0,0,1,53,30.27c0,2.24,0,4.48,0,6.72ZM37,24.12c-2.3,0-4.6,0-6.9,0a6,6,0,0,0-6,6q0,6.9,0,13.8a5.88,5.88,0,0,0,.1,1.11,6,6,0,0,0,5.9,4.88H43.89a7,7,0,0,0,.79,0,6,6,0,0,0,5.2-6q0-6.85,0-13.72a6.8,6.8,0,0,0-.14-1.35,6,6,0,0,0-5.88-4.68C41.58,24.11,39.29,24.12,37,24.12Z" style="fill:#32b39b"/><path d="M28.68,37A8.32,8.32,0,1,1,37,45.32,8.34,8.34,0,0,1,28.68,37Zm3.07,0A5.25,5.25,0,1,0,37,31.75,5.26,5.26,0,0,0,31.75,37Z" style="fill:#32b39b"/><path d="M45.5,26.67a1.91,1.91,0,1,1-1.91,1.89A1.9,1.9,0,0,1,45.5,26.67Z" style="fill:#32b39b"/><polygon points="51.91 1 22.09 1 1 22.09 1 51.91 22.09 73 51.91 73 73 51.91 73 22.09 51.91 1" style="fill:none;stroke:#32b39b;stroke-miterlimit:10;stroke-width:2px"/></svg>