<svg id="Capa_1" data-name="Capa 1" xmlns="http://www.w3.org/2000/svg" xmlns:xlink="http://www.w3.org/1999/xlink" viewBox="0 0 1302 679.76"><title>radiographic</title><image width="2467" height="2432" transform="translate(304.74) scale(0.27 0.28)" xlink:href="Tan%20Skin.png"/><g style="opacity:0.66"><g style="opacity:0.17"><rect x="9.52" y="224.19" width="252.39" height="46.98" style="fill:#12b3e9"/></g><rect x="261.91" y="220.38" width="4.44" height="54.6" style="fill:#12b3e9"/><rect x="5.08" y="220.38" width="4.44" height="54.6" style="fill:#12b3e9"/><rect y="220.38" width="2.54" height="54.6" style="fill:#12b3e9"/><rect x="268.9" y="220.38" width="2.54" height="54.6" style="fill:#12b3e9"/><text transform="translate(22.35 255.09)" style="font-size:30.781585693359375px;fill:#1d1d1b;font-family:SairaCondensed-Medium, Saira Condensed;font-weight:500;letter-spacing:0.04999945471724115em">Face accessories 2</text></g><g style="opacity:0.66"><g style="opacity:0.17"><rect x="9.52" y="296.71" width="252.39" height="46.98" style="fill:#12b3e9"/></g><rect x="261.91" y="292.9" width="4.44" height="54.6" style="fill:#12b3e9"/><rect x="5.08" y="292.9" width="4.44" height="54.6" style="fill:#12b3e9"/><rect y="292.9" width="2.54" height="54.6" style="fill:#12b3e9"/><rect x="268.9" y="292.9" width="2.54" height="54.6" style="fill:#12b3e9"/></g><g style="opacity:0.66"><g style="opacity:0.17"><line x1="261.91" y1="440.36" x2="261.91" y2="487.34" style="fill:#12b3e9"/></g><line x1="261.91" y1="436.55" x2="266.36" y2="436.55" style="fill:#12b3e9"/><line x1="266.36" y1="491.15" x2="261.91" y2="491.15" style="fill:#12b3e9"/><line x1="5.08" y1="436.55" x2="9.52" y2="436.55" style="fill:#12b3e9"/><line y1="436.55" x2="2.54" y2="436.55" style="fill:#12b3e9"/><line x1="268.9" y1="436.55" x2="271.44" y2="436.55" style="fill:#12b3e9"/><line x1="271.44" y1="491.15" x2="268.9" y2="491.15" style="fill:#12b3e9"/></g><g style="opacity:0.66"><g style="opacity:0.17"><rect x="9.52" y="367.68" width="252.39" height="46.98" style="fill:#12b3e9"/></g><rect x="261.91" y="363.87" width="4.44" height="54.6" style="fill:#12b3e9"/><rect x="5.08" y="363.87" width="4.44" height="54.6" style="fill:#12b3e9"/><rect y="363.87" width="2.54" height="54.6" style="fill:#12b3e9"/><rect x="268.9" y="363.87" width="2.54" height="54.6" style="fill:#12b3e9"/><text transform="translate(41 329.31)" style="font-size:30.781585693359375px;fill:#1d1d1b;font-family:SairaCondensed-Medium, Saira Condensed;font-weight:500;letter-spacing:0.04999945471724115em">Neck accesories</text></g><g style="opacity:0.66"><rect x="5.08" y="156.1" width="4.44" height="54.6" style="fill:#12b3e9"/><rect y="156.1" width="2.54" height="54.6" style="fill:#12b3e9"/><g style="opacity:0.17"><rect x="9.52" y="159.91" width="252.39" height="46.98" style="fill:#12b3e9"/></g><rect x="261.91" y="156.1" width="4.44" height="54.6" style="fill:#12b3e9"/><rect x="268.9" y="156.1" width="2.54" height="54.6" style="fill:#12b3e9"/><rect x="5.08" y="91.97" width="4.44" height="54.6" style="fill:#12b3e9"/><rect y="91.97" width="2.54" height="54.6" style="fill:#12b3e9"/><g style="opacity:0.17"><rect x="9.52" y="95.78" width="252.39" height="46.98" style="fill:#12b3e9"/></g><rect x="261.91" y="91.97" width="4.44" height="54.6" style="fill:#12b3e9"/><rect x="268.9" y="91.97" width="2.54" height="54.6" style="fill:#12b3e9"/><text transform="translate(115.31 190.8)" style="font-size:30.781585693359375px;fill:#1d1d1b;font-family:SairaCondensed-Medium, Saira Condensed;font-weight:500;letter-spacing:0.04999945471724115em">Pet</text><text transform="translate(107.95 131.8)" style="font-size:30.781585693359375px;fill:#1d1d1b;font-family:SairaCondensed-Medium, Saira Condensed;font-weight:500;letter-spacing:0.04999945471724115em">Face</text></g><polyline points="271.39 393.75 303.88 393.75 329.11 529.7 403.49 529.7" style="fill:none;stroke:#12b3e9;stroke-miterlimit:10"/><polyline points="559.97 429.66 439.83 319.36 271 320.23" style="fill:none;stroke:#12b3e9;stroke-miterlimit:10"/><circle cx="559.97" cy="429.66" r="6.41" style="fill:#fff;stroke:#12b3e9;stroke-miterlimit:10;stroke-width:2px"/><polyline points="270.17 182.7 309.01 182.7 334.44 229.06 377.84 229.06" style="fill:none;stroke:#12b3e9;stroke-miterlimit:10"/><circle cx="377.84" cy="229.58" r="6.41" style="fill:#fff;stroke:#12b3e9;stroke-miterlimit:10;stroke-width:2px"/><g style="opacity:0.66"><g style="opacity:0.17"><rect x="1040.09" y="365.28" width="252.39" height="46.98" style="fill:#12b3e9"/></g><rect x="1292.48" y="361.47" width="4.44" height="54.6" style="fill:#12b3e9"/><rect x="1035.64" y="361.47" width="4.44" height="54.6" style="fill:#12b3e9"/><rect x="1030.56" y="361.47" width="2.54" height="54.6" style="fill:#12b3e9"/><rect x="1299.46" y="361.47" width="2.54" height="54.6" style="fill:#12b3e9"/></g><g style="opacity:0.66"><g style="opacity:0.17"><rect x="1040.09" y="437.26" width="252.39" height="46.98" style="fill:#12b3e9"/></g><rect x="1292.48" y="433.45" width="4.44" height="54.6" style="fill:#12b3e9"/><rect x="1035.64" y="433.45" width="4.44" height="54.6" style="fill:#12b3e9"/><rect x="1030.56" y="433.45" width="2.54" height="54.6" style="fill:#12b3e9"/><rect x="1299.46" y="433.45" width="2.54" height="54.6" style="fill:#12b3e9"/><text transform="translate(1115.86 398.89)" style="font-size:30.781585693359375px;fill:#1d1d1b;font-family:SairaCondensed-Medium, Saira Condensed;font-weight:500;letter-spacing:0.04999945471724115em">Clothing</text></g><g style="opacity:0.17"><rect x="1040.09" y="506.52" width="252.39" height="46.98" style="fill:#12b3e9"/></g><rect x="1292.48" y="502.71" width="4.44" height="54.6" style="fill:#12b3e9"/><rect x="1035.64" y="502.71" width="4.44" height="54.6" style="fill:#12b3e9"/><rect x="1030.56" y="502.71" width="2.54" height="54.6" style="fill:#12b3e9"/><rect x="1299.46" y="502.71" width="2.54" height="54.6" style="fill:#12b3e9"/><g style="opacity:0.66"><g style="opacity:0.17"><rect x="1040.09" y="288.32" width="252.39" height="46.98" style="fill:#12b3e9"/></g><rect x="1292.48" y="284.51" width="4.44" height="54.6" style="fill:#12b3e9"/><rect x="1035.64" y="284.51" width="4.44" height="54.6" style="fill:#12b3e9"/><rect x="1030.56" y="284.51" width="2.54" height="54.6" style="fill:#12b3e9"/><rect x="1299.46" y="284.51" width="2.54" height="54.6" style="fill:#12b3e9"/><text transform="translate(1107.89 319.21)" style="font-size:30.781585693359375px;fill:#1d1d1b;font-family:SairaCondensed-Medium, Saira Condensed;font-weight:500;letter-spacing:0.04999945471724115em">Militarize</text></g><g style="opacity:0.66"><g style="opacity:0.17"><rect x="1040.09" y="219.06" width="252.39" height="46.98" style="fill:#12b3e9"/></g><rect x="1292.48" y="215.25" width="4.44" height="54.6" style="fill:#12b3e9"/><rect x="1035.64" y="215.25" width="4.44" height="54.6" style="fill:#12b3e9"/><rect x="1030.56" y="215.25" width="2.54" height="54.6" style="fill:#12b3e9"/><rect x="1299.46" y="215.25" width="2.54" height="54.6" style="fill:#12b3e9"/><text transform="translate(1061.52 249.95)" style="font-size:30.781585693359375px;fill:#1d1d1b;font-family:SairaCondensed-Medium, Saira Condensed;font-weight:500;letter-spacing:0.04999945471724115em">Skin abnormality</text></g><g style="opacity:0.66"><g style="opacity:0.17"><rect x="1040.09" y="157.5" width="252.39" height="46.98" style="fill:#12b3e9"/></g><rect x="1292.48" y="153.69" width="4.44" height="54.6" style="fill:#12b3e9"/><rect x="1035.64" y="153.69" width="4.44" height="54.6" style="fill:#12b3e9"/><rect x="1030.56" y="153.69" width="2.54" height="54.6" style="fill:#12b3e9"/><rect x="1299.46" y="153.69" width="2.54" height="54.6" style="fill:#12b3e9"/><text transform="translate(1106.6 188.39)" style="font-size:30.781585693359375px;fill:#1d1d1b;font-family:SairaCondensed-Medium, Saira Condensed;font-weight:500;letter-spacing:0.04999945471724115em">Hair style</text></g><polyline points="1030.67 242.41 860.48 242.41 659.97 180.13" style="fill:none;stroke:#12b3e9;stroke-miterlimit:10"/><polyline points="1030.67 185.97 860.48 185.97 729.26 142.37" style="fill:none;stroke:#12b3e9;stroke-miterlimit:10"/><polyline points="831.87 275.75 942.57 315.51 1031.1 315.51" style="fill:none;stroke:#12b3e9;stroke-miterlimit:10"/><polyline points="1031.83 393.04 947.73 393.04 857.52 427.1" style="fill:none;stroke:#12b3e9;stroke-miterlimit:10"/><polyline points="924.22 515.61 986.21 458.47 1031.21 458.47" style="fill:none;stroke:#12b3e9;stroke-miterlimit:10"/><polyline points="1031 527.88 981.5 527.88 942.17 629.74 844.7 629.74" style="fill:none;stroke:#12b3e9;stroke-miterlimit:10"/><polyline points="269.82 247.53 341.65 247.53 367.36 284.17 527.62 284.17" style="fill:none;stroke:#12b3e9;stroke-miterlimit:10"/><circle cx="526.62" cy="283.45" r="6.41" style="fill:#fff;stroke:#12b3e9;stroke-miterlimit:10;stroke-width:2px"/><text transform="translate(50.41 402.62)" style="font-size:30.781585693359375px;fill:#575756;font-family:SairaCondensed-Medium, Saira Condensed;font-weight:500;letter-spacing:0.04999945471724115em">Extra clothing</text><text transform="translate(1095.4 472.07)" style="font-size:30.781585693359375px;fill:#575756;font-family:SairaCondensed-Medium, Saira Condensed;font-weight:500;letter-spacing:0.04999945471724115em">Background</text><text transform="translate(1141.46 541.33)" style="font-size:30.781585693359375px;fill:#575756;font-family:SairaCondensed-Medium, Saira Condensed;font-weight:500;letter-spacing:0.04999945471724115em">Skin</text><circle cx="400.93" cy="529.7" r="6.41" style="fill:#fff;stroke:#12b3e9;stroke-miterlimit:10;stroke-width:2px"/><path d="M368.3,257.73" transform="translate(-35 -58.62)" style="fill:#12b3e9"/><path d="M115.91,652.73" transform="translate(-35 -58.62)" style="fill:#12b3e9"/><path d="M372.75,308.51" transform="translate(-35 -58.62)" style="fill:#12b3e9"/><path d="M372.75,253.92" transform="translate(-35 -58.62)" style="fill:#12b3e9"/><path d="M108.93,703.51" transform="translate(-35 -58.62)" style="fill:#12b3e9"/><path d="M108.93,648.92" transform="translate(-35 -58.62)" style="fill:#12b3e9"/><polyline points="269.71 118.75 357.32 119.28 434.27 255.23 585.62 252.67" style="fill:none;stroke:#12b3e9;stroke-miterlimit:10"/><polyline points="269.71 54.62 370.15 55.15 467.62 201.36 559.97 201.36" style="fill:none;stroke:#12b3e9;stroke-miterlimit:10"/><circle cx="559.97" cy="201.36" r="6.41" style="fill:#fff;stroke:#12b3e9;stroke-miterlimit:10;stroke-width:2px"/><circle cx="585.62" cy="252.67" r="6.41" style="fill:#fff;stroke:#12b3e9;stroke-miterlimit:10;stroke-width:2px"/><g style="opacity:0.66"><g style="opacity:0.17"><rect x="11.52" y="30.28" width="252.39" height="46.98" style="fill:#12b3e9"/></g><rect x="263.91" y="26.47" width="4.44" height="54.6" style="fill:#12b3e9"/><rect x="7.08" y="26.47" width="4.44" height="54.6" style="fill:#12b3e9"/><rect x="2" y="26.47" width="2.54" height="54.6" style="fill:#12b3e9"/><rect x="270.9" y="26.47" width="2.54" height="54.6" style="fill:#12b3e9"/><text transform="translate(35.6 63.74)" style="font-size:30.781585693359375px;fill:#1d1d1b;font-family:SairaCondensed-Medium, Saira Condensed;font-weight:500;letter-spacing:0.04999945471724115em">Face accessories</text></g><circle cx="729.27" cy="142.36" r="6.41" style="fill:#fff;stroke:#12b3e9;stroke-miterlimit:10;stroke-width:2px"/><circle cx="831.87" cy="275.75" r="6.41" style="fill:#fff;stroke:#12b3e9;stroke-miterlimit:10;stroke-width:2px"/><circle cx="857.52" cy="427.09" r="6.41" style="fill:#fff;stroke:#12b3e9;stroke-miterlimit:10;stroke-width:2px"/><circle cx="925.78" cy="515.61" r="6.41" style="fill:#fff;stroke:#12b3e9;stroke-miterlimit:10;stroke-width:2px"/><circle cx="844.7" cy="629.74" r="6.41" style="fill:#fff;stroke:#12b3e9;stroke-miterlimit:10;stroke-width:2px"/><circle cx="662.57" cy="180.84" r="6.41" style="fill:#fff;stroke:#12b3e9;stroke-miterlimit:10;stroke-width:2px"/></svg>