<svg id="Capa_1" data-name="Capa 1" xmlns="http://www.w3.org/2000/svg" xmlns:xlink="http://www.w3.org/1999/xlink" viewBox="0 0 1365 130.6"><defs><linearGradient id="Degradado_sin_nombre" x1="5.4" y1="244.67" x2="-2.96" y2="233.61" gradientTransform="matrix(1, 0, 0, -1, 8.6, 286.6)" gradientUnits="userSpaceOnUse"><stop offset="0" stop-color="#324850"/><stop offset="0" stop-color="#1a4857"/><stop offset="1" stop-color="#060b0e"/></linearGradient><linearGradient id="Degradado_sin_nombre_2" x1="81.26" y1="223.89" x2="80.41" y2="222.77" gradientTransform="matrix(1, 0, 0, -1, 0, 294)" xlink:href="#Degradado_sin_nombre"/><linearGradient id="Degradado_sin_nombre_3" x1="296.32" y1="231.84" x2="289.75" y2="223.16" gradientTransform="matrix(1, 0, 0, -1, 0, 294)" xlink:href="#Degradado_sin_nombre"/><linearGradient id="Degradado_sin_nombre_4" x1="405.98" y1="207.22" x2="401.81" y2="201.71" gradientTransform="matrix(1, 0, 0, -1, 0, 294)" xlink:href="#Degradado_sin_nombre"/><linearGradient id="Degradado_sin_nombre_5" x1="434.64" y1="180.48" x2="432.92" y2="178.21" gradientTransform="matrix(1, 0, 0, -1, 0, 294)" xlink:href="#Degradado_sin_nombre"/><linearGradient id="Degradado_sin_nombre_6" x1="500.96" y1="197.54" x2="498.75" y2="194.62" gradientTransform="matrix(1, 0, 0, -1, 0, 294)" xlink:href="#Degradado_sin_nombre"/><linearGradient id="Degradado_sin_nombre_7" x1="1113.15" y1="272.81" x2="1108.25" y2="266.32" gradientTransform="matrix(1, 0, 0, -1, 0, 294)" xlink:href="#Degradado_sin_nombre"/><linearGradient id="Degradado_sin_nombre_8" x1="1239.5" y1="226.85" x2="1235.98" y2="222.19" gradientTransform="matrix(1, 0, 0, -1, 0, 294)" xlink:href="#Degradado_sin_nombre"/><linearGradient id="Degradado_sin_nombre_9" x1="1298.5" y1="207.52" x2="1291.63" y2="198.43" gradientTransform="matrix(1, 0, 0, -1, 0, 294)" xlink:href="#Degradado_sin_nombre"/></defs><title>render-marco</title><path d="M1356.4,101.1V138H-8.6V33.5l4,5,4.1,5.1v1.2l7,8.8v6.7H74.4a14.63,14.63,0,0,0,5.1,10h1.9a10.62,10.62,0,0,0,.2,1.7c4.1,2.8,10.5,5,20.5,5,27.8,0,8.3-33.3,30.5-41.6,8.3-2.8,13.9,8.3,13.9,8.3a59.89,59.89,0,0,1,16.7-2.8c8.3,0,22.2,5.5,38.9,8.3s36.1-2.8,52.7-2.8a171.25,171.25,0,0,1,30.5,2.8s1.2,4.3,2.9,9.3h0c2.6.4,4.1.7,4.1.7a151,151,0,0,0,5.3,15.6,2.29,2.29,0,0,0,1.6-.7c5.5-5.5,8.3-13.9,8.3-13.9s0,5.5,16.7,11.1,16.7-11.1,25-11.1,11.1,13.9,22.2,13.9,27.8,2.8,27.8,2.8l3.1,9.4c2.4.4,3.9.6,3.9.6l1.2,3.7c2,.3,5.5,1.9,11.2,5.7a35.64,35.64,0,0,1,12.6,14.6,33,33,0,0,1,5.4,7.2c1.6.9,3.8,1.1,6.9.4,13.9-2.8,22.2-36.1,38.8-36.1,11,0,14.7,7.3,16,12.2a14,14,0,0,1,4.5,4.2,83.7,83.7,0,0,0,29.5-8.1,136,136,0,0,1,30.5-11.1s-11.1-8.3,8.3-11.1,19.4,5.5,27.8,8.3,30.5-13.9,44.4-13.9,13.9,5.5,30.5,5.5c16.1,0,12.2-5.9,19.1-9.7l19.2.9a71.56,71.56,0,0,0,8.9.5h.5c19.2-.3,35.5-16.6,35.5-16.6s2.8-27.8,19.4-27.8H881.9a45.89,45.89,0,0,1,36.1,0c19.4,8.3,30.5,13.9,30.5,13.9a69.92,69.92,0,0,1,19.4-8.3c11.1-2.8,13.9,8.3,25,11.1s8.3,13.9,22.2,13.9,36.1-22.2,50-22.2,16.6,8.3,16.6,8.3l19.4-25a71.29,71.29,0,0,0,5,12.5l2-2.5a70.42,70.42,0,0,0,5.4,13.1c4,4.3,9.1,7.4,15.4,7.4,19.4,0,22.2-5.5,38.8-5.5s11.1,5.5,25,5.5,25,11.1,36.1,16.7c4.3,2.2,4.9,5.6,5.4,9.1.5.3,1.1.6,1.6.9,4.6,2.3,4.9,6.1,5.5,9.9a34.47,34.47,0,0,0,9.7,2.3c25,2.8,27.8,0,38.9,0,6.7,0,2.3,5.1.8,10.3a58.53,58.53,0,0,1,6.2-.3c6.7,0,2.3,5,.8,10.2,8.6,2.1,13.9-4.4,20.8-7.6l17.7.9c8.4,3.5,12,8.8,12,8.8Z" transform="translate(8.6 -7.4)" style="fill:#03152b"/><polygon points="4 31.1 8.1 36.2 8.1 37.4 4 32.3 4 31.1" style="fill:#fff;opacity:0.5099999904632568;isolation:isolate"/><path d="M79.5,70.2H6.5v-10H74.4A14.63,14.63,0,0,0,79.5,70.2Z" transform="translate(8.6 -7.4)" style="fill:#fff;opacity:0.5099999904632568;isolation:isolate"/><path d="M285.4,49.1s1.2,4.3,2.9,9.3a180,180,0,0,0-26.4-2.1c-16.6,0-36.1,5.5-52.7,2.8s-30.5-8.3-38.9-8.3a60.82,60.82,0,0,0-16.7,2.8s-5.5-11.1-13.9-8.3c-22.2,8.3-2.8,41.6-30.5,41.6-22.3,0-26.7-10.8-27.5-15,4.1,2.8,10.5,5,20.5,5,27.8,0,8.3-33.3,30.5-41.6,8.3-2.8,13.9,8.3,13.9,8.3a59.89,59.89,0,0,1,16.7-2.8c8.3,0,22.2,5.5,38.9,8.3s36.1-2.8,52.7-2.8A184.72,184.72,0,0,1,285.4,49.1Z" transform="translate(8.6 -7.4)" style="fill:#fff;opacity:0.5099999904632568;isolation:isolate"/><path d="M399.1,76.9l3.1,9.4c-5.6-.8-16.1-2.2-23.9-2.2-11.1,0-13.9-13.9-22.2-13.9s-8.3,16.7-25,11.1-16.7-11.1-16.7-11.1-2.8,8.3-8.3,13.9c-2.6,2.6-5.9-2.8-8.6-9.3a2.29,2.29,0,0,0,1.6-.7c5.5-5.5,8.3-13.9,8.3-13.9s0,5.5,16.7,11.1,16.7-11.1,25-11.1,11.1,13.9,22.2,13.9S399.1,76.9,399.1,76.9Z" transform="translate(8.6 -7.4)" style="fill:#fff;opacity:0.5099999904632568;isolation:isolate"/><path d="M431.2,110.9a39.36,39.36,0,0,0-5.6-4.6c-15.6-10.4-14.1-3.8-13.9-2.9l-4.3-12.8c2,.3,5.5,1.9,11.2,5.7C425.9,101.2,428.9,106.6,431.2,110.9Z" transform="translate(8.6 -7.4)" style="fill:#fff;opacity:0.5099999904632568;isolation:isolate"/><path d="M498.4,94.6a17.83,17.83,0,0,0-9-2.2c-16.7,0-25,33.3-38.8,36.1-9.1,1.8-9.8-3.5-13.9-10.4,1.6.9,3.8,1.1,6.9.4,13.9-2.8,22.2-36.1,38.8-36.1C493.4,82.4,497.1,89.7,498.4,94.6Z" transform="translate(8.6 -7.4)" style="fill:#fff;opacity:0.5099999904632568;isolation:isolate"/><path d="M1101.3,7.5a71.29,71.29,0,0,0,5,12.5l-17.5,22.5s-2.8-8.3-16.6-8.3-36.1,22.2-50,22.2-11.1-11.1-22.2-13.9-13.9-13.9-25-11.1a69.92,69.92,0,0,0-19.4,8.3s-11.1-5.5-30.5-13.9a46,46,0,0,0-36.1,0H783.5c-16.7,0-19.4,27.8-19.4,27.8s-16.3,16.3-35.5,16.6h-.5a71.56,71.56,0,0,1-8.9-.5L700,68.8c-6.8,3.8-3,9.7-19.1,9.7-16.7,0-16.7-5.5-30.5-5.5S614.3,89.7,606,86.9s-8.3-11.1-27.8-8.3-8.3,11.1-8.3,11.1a136,136,0,0,0-30.5,11.1,83.33,83.33,0,0,1-33.3,8.3,20.18,20.18,0,0,0-3.2-10.2,83.7,83.7,0,0,0,29.5-8.1,136,136,0,0,1,30.5-11.1s-11.1-8.3,8.3-11.1,19.4,5.5,27.8,8.3S629.5,63,643.4,63s13.9,5.5,30.5,5.5c16.1,0,12.2-5.9,19.1-9.7l19.2.9a71.56,71.56,0,0,0,8.9.5h.5c19.2-.3,35.5-16.6,35.5-16.6s2.8-27.8,19.4-27.8H882a45.89,45.89,0,0,1,36.1,0c19.4,8.3,30.5,13.9,30.5,13.9A69.92,69.92,0,0,1,968,21.4c11.1-2.8,13.9,8.3,25,11.1s8.3,13.9,22.2,13.9,36.1-22.2,50-22.2,16.6,8.3,16.6,8.3Z" transform="translate(8.6 -7.4)" style="fill:#fff;opacity:0.5099999904632568;isolation:isolate"/><path d="M1234.3,63.8C1223.7,58,1213,48,1199.8,48c-13.9,0-8.3-5.5-25-5.5S1155.4,48,1136,48c-10.6,0-18-9.2-22.4-17.4,4,4.3,9.1,7.4,15.4,7.4,19.4,0,22.2-5.5,38.8-5.5s11.1,5.5,25,5.5,25,11.1,36.1,16.7C1233.3,56.8,1233.8,60.3,1234.3,63.8Z" transform="translate(8.6 -7.4)" style="fill:#fff;opacity:0.5099999904632568;isolation:isolate"/><path d="M1290.8,87.2c-7,.6-13,1.9-32.6-.3-14.5-1.6-15.9-7-16.7-12.3a34.47,34.47,0,0,0,9.7,2.3c25,2.8,27.8,0,38.9,0C1296.7,76.9,1292.3,82,1290.8,87.2Z" transform="translate(8.6 -7.4)" style="fill:#fff;opacity:0.5099999904632568;isolation:isolate"/><path d="M1356.4,101.1v8.2l-1.1-.3s-3.5-5.3-12-8.8l-17.7-.9c-7.5,3.5-13.1,10.9-23.1,6.9-5-2-5.7-5.1-5-8.3.1-.3.2-.7.3-1,8.6,2.1,13.9-4.4,20.8-7.6l17.7.9c8.4,3.5,12,8.8,12,8.8Z" transform="translate(8.6 -7.4)" style="fill:#fff;opacity:0.5099999904632568;isolation:isolate"/><polygon points="8.1 37.4 15.1 46.2 15.1 52.8 8.1 52.8 8.1 37.4" style="opacity:0.5;isolation:isolate;fill:url(#Degradado_sin_nombre)"/><path d="M81.4,70.2a10.62,10.62,0,0,0,.2,1.7,12,12,0,0,1-2.1-1.7Z" transform="translate(8.6 -7.4)" style="opacity:0.5;isolation:isolate;fill:url(#Degradado_sin_nombre_2)"/><path d="M292.4,59.1a151,151,0,0,0,5.3,15.6c-3.2-.2-6.9-9.1-9.4-16.3C290.9,58.8,292.4,59.1,292.4,59.1Z" transform="translate(8.6 -7.4)" style="opacity:0.5;isolation:isolate;fill:url(#Degradado_sin_nombre_3)"/><path d="M406.1,86.9l1.2,3.7c-3.5-.6-2.9,2.3-2.7,2.8l-2.4-7.2C404.7,86.6,406.1,86.9,406.1,86.9Z" transform="translate(8.6 -7.4)" style="opacity:0.5;isolation:isolate;fill:url(#Degradado_sin_nombre_4)"/><path d="M431.2,110.9a33,33,0,0,1,5.4,7.2C434.2,116.8,432.9,114.2,431.2,110.9Z" transform="translate(8.6 -7.4)" style="opacity:0.5;isolation:isolate;fill:url(#Degradado_sin_nombre_5)"/><path d="M502.9,98.9c-2.4.2-3.8.2-3.8.2a20.9,20.9,0,0,0-.6-4.4A13.65,13.65,0,0,1,502.9,98.9Z" transform="translate(8.6 -7.4)" style="opacity:0.5;isolation:isolate;fill:url(#Degradado_sin_nombre_6)"/><path d="M1108.3,17.5a70.42,70.42,0,0,0,5.4,13.1,48.94,48.94,0,0,1-7.3-10.6Z" transform="translate(8.6 -7.4)" style="opacity:0.5;isolation:isolate;fill:url(#Degradado_sin_nombre_7)"/><path d="M1241.5,74.6c-6-2.6-6.5-6.8-7.1-10.8.5.3,1.1.6,1.6.9C1240.6,67,1240.9,70.8,1241.5,74.6Z" transform="translate(8.6 -7.4)" style="opacity:0.5;isolation:isolate;fill:url(#Degradado_sin_nombre_8)"/><path d="M1297.8,97c-.7-.2-1.5-.4-2.3-.7-5-2-5.7-5.1-5-8.3.1-.3.1-.6.2-.8a58.53,58.53,0,0,1,6.2-.3C1303.7,86.9,1299.4,91.9,1297.8,97Z" transform="translate(8.6 -7.4)" style="opacity:0.5;isolation:isolate;fill:url(#Degradado_sin_nombre_9)"/></svg>