<?xml version="1.0" encoding="utf-8"?>
<!-- Generator: Adobe Illustrator 25.4.1, SVG Export Plug-In . SVG Version: 6.00 Build 0)  -->
<svg version="1.1" id="Capa_1" xmlns="http://www.w3.org/2000/svg" xmlns:xlink="http://www.w3.org/1999/xlink" x="0px" y="0px"
	 viewBox="0 0 774 349" style="enable-background:new 0 0 774 349;" xml:space="preserve">
<style type="text/css">
	.st0{fill-rule:evenodd;clip-rule:evenodd;fill:#1E1C3B;}
	.st1{opacity:0.86;fill-rule:evenodd;clip-rule:evenodd;fill:#1E1C3B;}
	.st2{opacity:0.4;fill-rule:evenodd;clip-rule:evenodd;fill:#1E1C3B;}
	.st3{opacity:0.6;fill-rule:evenodd;clip-rule:evenodd;fill:#1E1C3B;}
	.st4{opacity:0.71;fill-rule:evenodd;clip-rule:evenodd;fill:#1E1C3B;}
	.st5{opacity:0.3;fill-rule:evenodd;clip-rule:evenodd;fill:#1E1C3B;}
	.st6{opacity:0.62;fill-rule:evenodd;clip-rule:evenodd;fill:#1E1C3B;}
	.st7{opacity:0.54;fill-rule:evenodd;clip-rule:evenodd;fill:#1E1C3B;}
	.st8{fill:#1E1C3B;}
	.st9{opacity:0.5;fill-rule:evenodd;clip-rule:evenodd;fill:#1E1C3B;}
	.st10{opacity:0.58;fill-rule:evenodd;clip-rule:evenodd;fill:#1E1C3B;}
	.st11{opacity:0.93;fill:#1E1C3B;}
	.st12{opacity:0.5;fill:#1E1C3B;}
	.st13{opacity:0.8;fill-rule:evenodd;clip-rule:evenodd;fill:#1E1C3B;}
	.st14{opacity:0.28;fill-rule:evenodd;clip-rule:evenodd;fill:#1E1C3B;}
	.st15{opacity:0.2;fill-rule:evenodd;clip-rule:evenodd;fill:#1E1C3B;}
	.st16{opacity:0.2;fill:#1E1C3B;}
	.st17{opacity:0.29;fill-rule:evenodd;clip-rule:evenodd;fill:#1E1C3B;}
	.st18{opacity:0.16;fill-rule:evenodd;clip-rule:evenodd;fill:#1E1C3B;}
	.st19{opacity:0.59;fill-rule:evenodd;clip-rule:evenodd;fill:#1E1C3B;}
	.st20{opacity:0.82;fill-rule:evenodd;clip-rule:evenodd;fill:#1E1C3B;}
	.st21{opacity:0.6;fill:#1E1C3B;}
	.st22{opacity:0.6;}
</style>
<g>
	<path class="st0" d="M597.6,329.3c-4.8,2.5-17.9,3.4-20.8,2.8c-2.9-0.6-7.3-2.9-7.3-2.9v2.3l-12.6,0.5l-0.7,0l-0.1-1.3l-0.4-6.6
		c1.1-1.5,2.3-2.7,3.5-3.7c2.2-1.8,4.6-2.9,6.8-3.6c3.9-1.2,7-1.1,7-1.1c1,1.2,2,2.2,3,3.1c0,0,0,0,0,0c8,6.8,18.2,6.7,18.2,6.7
		c0.5,0.3,0.9,0.6,1.2,1C596.8,327.7,597.6,329.3,597.6,329.3z"/>
	<path class="st1" d="M597.6,329.3c-4.8,2.5-17.9,3.4-20.8,2.8c-2.9-0.6-7.3-2.9-7.3-2.9v2.3l-12.6,0.5l-0.8-1.3l-0.4-6.6
		c1.1-1.5,2.3-2.7,3.5-3.7l6.8-3.6c3.9-1.2,7-1.1,7-1.1c1,1.2,2,2.2,3,3.1c-0.4,0-9.5,0.5-16.1,6c0,0,12.1,3.9,20.1,4.5
		c8,0.6,15.4-2.9,15.4-2.9C596.8,327.7,597.6,329.3,597.6,329.3z"/>
	<path class="st0" d="M525.2,262.1c0,0,14.9,13.8,26.2,12.6c11.4-1.2,15.6-10,15.6-10l-10.9-23.1h-10.1L525.2,262.1z"/>
	<path class="st0" d="M525.2,262.1c0,0,14.9,13.8,26.2,12.6c11.4-1.2,15.6-10,15.6-10l-10.9-23.1h-10.1L525.2,262.1z"/>
	<path class="st0" d="M574.2,317l-1.2-1.3c-8.5-0.1-17.4,8.4-17.4,8.4v2.3l0,0c-0.3-0.2-2.4-1.9-2.2-3.1c0.2-1.3,1.2-5,1.2-5
		c-2.1-8.3-6.1-42.6-5.3-45.8c0.8-3.2,3.4-8.5,3.4-8.5c0.5-2.2,0.8-8.7,0.8-8.7c3.8,0.1,14.1,13.6,14.1,13.6
		c-0.2,2.2-0.3,4.4-0.3,6.5c-0.3,18.2,4.3,34.6,4.3,34.6c1.3,0.4,3.8,2.1,3.8,2.1C575.6,314.3,574.2,317,574.2,317z"/>
	<path class="st2" d="M574.2,317l-1.2-1.3c-8.5-0.1-17.4,8.4-17.4,8.4v2.3l0,0c-0.3-0.2-2.4-1.9-2.2-3.1c0.2-1.3,1.2-5,1.2-5
		c-2.1-8.3-6.1-42.6-5.3-45.8c0.8-3.2,3.4-8.5,3.4-8.5c0.5-2.2,0.8-8.7,0.8-8.7c3.8,0.1,14.1,13.6,14.1,13.6
		c-0.2,2.2-0.3,4.4-0.3,6.5c-1.3,0.5-7.7,3.2-12.1,10.5c0,0-1.1,16.4,2.3,27.2c0,0,8.2-3.9,14.2-3.2c0,0-10.3,0-17.5,13.2l2.3-1.3
		c0,0,9.6-9.8,19-9.9C575.6,314.3,574.2,317,574.2,317z"/>
	<path class="st0" d="M542.4,319.1l-2.5-3.6c0,0-3.9-0.2-7.6,1.5c-3.6,1.8-7.6,5.8-7.6,5.8v3.6c0,0-1.9,0-2.9-0.7
		c-0.3-0.2-0.6-0.5-0.6-0.9c-0.2-1.5,1.5-6.4,1.7-6.8l0,0c-1.6-14.5-3.2-43.8-1.8-48.7c1.4-4.8,3.6-8.6,3.6-8.6l14.2,12.1
		c0,0-0.4,1.6-0.7,4.6c-0.2,2.5-0.4,6.1-0.2,10.6c0.5,9.9,2,23.7,2,23.7s2.6,0.1,2.9,1.7c0,0.2,0.1,0.4,0.1,0.6
		C543,316,542.4,319.1,542.4,319.1z"/>
	<path class="st2" d="M522.9,318c-1.6-14.5-3.2-43.8-1.8-48.7c1.4-4.8,3.6-8.6,3.6-8.6l14.2,12.1c0,0-0.4,1.6-0.7,4.6l0,0
		c0,0-11.2,1.9-13.8,5c0,0-1.6,22.6-0.5,33.2c0,0,4.7-3.1,8.9-3.8C532.1,312.1,527.2,313.4,522.9,318z"/>
	<path class="st0" d="M602.8,185.5c0,0-1.3-5.2,0.9-9.8c2.1-4.6,9-6.6,9-6.6s2,2.4,1,4.8c-1,2.4-5.1,8.7-5.1,8.7
		S604.5,185.9,602.8,185.5z"/>
	<path class="st0" d="M525.9,179.4c0,0,1.7-2.9,1.1-4.3c-0.5-1.4-8.3-4.7-13.7-1.8c-5.4,2.9-5.9,8.3-5.4,10.5
		c0.5,2.2,3.2,3.7,3.2,3.7s5.8-0.6,7.3-1.6C520.1,184.8,525.9,179.4,525.9,179.4z"/>
	<path class="st0" d="M613.5,172.3c0,0-0.1-2-0.8-3.2c0,0-3.2,2.2-6.2,6.6c-3,4.3-3.7,9.8-3.7,9.8s2.7-0.6,5.8-2.9c0,0-1,1.8-7,4.4
		l-0.6-1.9l0,0c-0.5-0.3-17.2-10.9-24.6-23.7c0,0-1.2-6.9-3.7-12.9c-1.7-4.2-3.6-7.3-4.6-8.7c-0.4-0.6-0.7-1-0.7-1s-1.7-16,1.2-20.2
		c2.9-4.2,4.1-6.9,4.1-6.9s2.7,5.8,5.3,14.9c2.5,9.1,9.8,25.4,9.8,25.4s1.9-0.9,2.4-0.6c0.2,0.1,0.3,0.6,0.3,1.2v0
		c0,0.7,0,1.5,0,1.5s10.3,8.4,15.1,11.2c4.8,2.8,7.8,3,7.8,3S614.1,171,613.5,172.3z"/>
	<path class="st0" d="M574.4,268.2c-6.3,5.4-17.8,6.6-17.8,6.6c-1.2-6.2-4.3-16.4-5.5-20.4c-0.3-1.1-0.5-1.7-0.5-1.7
		c-3.8,12.9-10.9,22.1-10.9,22.1c-6.3-0.9-11.5-4.6-15-8c-3.3-3.1-5.2-6-5.2-6s1.6-2.2,2.7-5.1c0,0,0-0.1,0-0.1c0.4-1,0.7-2,0.9-3.1
		c0.8-4.2,2.9-40.3,3.6-51.7c0.7-11.3,1.9-27.6,1-37c-0.3-3-1.3-9.5-2.4-17c-2.5-15.8-5.8-35.7-5.8-35.7c0.8-4.5,3.6-5.4,3.6-5.4
		c7.2-0.4,14-6.1,14-6.1c2-1.5,18.6-1.4,20.4,1c1.8,2.4,15.5,10.9,15.5,10.9s-2.6,4.1-3.3,15c-0.3,4.3-1,11.1-1.8,18.9
		c0,0,0,0.2,0,0.5c0,0.1,0,0.2,0,0.3c-0.9,8.8-1.9,18.9-2.5,28.1c0,0.2,0,0.3,0,0.5c0,0.4,0,0.8-0.1,1.2c0,0.2,0,0.4,0,0.6v0.1
		c-0.1,2.7-0.2,5.2-0.3,7.6c0,1,0,2.1,0,3.3c0,0.2,0,0.3,0,0.3c0.3,21.2,5.1,67.4,6.3,71.9C572.3,264.6,574.4,268.2,574.4,268.2z"/>
	<path class="st2" d="M567.6,145.6c0,0,0,0.2,0,0.5c0,0.1,0,0.2,0,0.3c-0.4,3.9-2,20.4-2.5,28.1c0,0.2,0,0.3,0,0.5
		c0,0.4,0,0.8-0.1,1.2c0,0.2,0,0.4,0,0.6v0.1c-0.2,5.5-0.2,9.7-0.2,10.9c0,0.2,0,0.3,0,0.3l-5.6-8.5l-1.8,37c0,0,0-31.8,0.4-38.1
		c0-0.5,0-0.8,0.1-1c0.4-2.3-14-7.4-23.4-9.1c0,0,2.2,28.8,0.8,37.6c-1.4,8.6-10.7,44.7-13,49.8c0.4-1,0.7-2,0.9-3.1
		c0.8-4.2,2.9-40.3,3.6-51.7c0.7-11.3,1.9-27.6,1-37c-0.3-3-1.3-9.5-2.4-17l0-0.1l1.9-6.6c0,0,1.8,1.5,14.4,7.1
		c11.3,5,16.1,5.6,17,5.7c-1.5,0-13.4-0.5-18.3-2.3c0,0,10.1,5.1,18.5,5.6C558.6,156.3,564.7,152.8,567.6,145.6z"/>
	<path class="st0" d="M616,182.6c0,0,4.5-4,7.6-4.7c0,0,4.2-1.2,6-1.2c1.8-0.1,4.5-0.1,6-0.4c1.4-0.4,6.6-4.7,7-5.5s-0.7-1.9-1.3-2
		c-0.6-0.1-2.7,1.4-2.7,1.4s-11.9,3.1-16,4.2c-4.1,1.1-7.5,5.4-7.5,5.4v1.2L616,182.6z"/>
	<path class="st0" d="M529.5,180.7c0,0,4.3,2,4.8,3.6c0.2,0.7-2.3,2.3-4.3,1.3C528.1,184.4,529.5,180.7,529.5,180.7z"/>
	<path class="st0" d="M548,79.9c0,0-1,8-3.1,13.2c0,0,0.8,4.4,3.1,7.1c2.2,2.7,4.9,2,4.9,2s1.9-1.3,2.3-2.5c0,0-0.1-4.1,0.4-6.4
		L548.8,79L548,79.9z"/>
	<path class="st0" d="M577.3,73.1c-0.2,1.3-0.1,3.4,0,5.8c0,1.2,0,2.6-0.1,3.9c0,0.3,0,0.5-0.1,0.8c-0.1,1.3-0.3,2.7-0.7,3.9
		c-1.6,5.2-9.2,12-14.7,11.3c-4.8-0.6-9.4-6.8-11.7-12.5c-0.1-0.2-0.2-0.4-0.2-0.6c-0.2-0.5-0.4-1-0.5-1.5c0-0.1-0.1-0.2-0.1-0.2
		c-1.8-6.1-2.4-16.3-1-22.3c1.1-4.8,4.4-7.6,9.5-9.2c1.2-0.4,2.5-0.7,3.9-0.9c2.8-0.5,5.2-0.6,7.3-0.4c0,0,0.1,0,0.1,0
		c3,0.3,5.2,1.1,6.9,2.3c2.8,2,4,5,4,8.1C580.1,67.1,577.8,70.3,577.3,73.1z"/>
	<path class="st3" d="M577.3,73.1c-0.2,1.3-0.1,3.4,0,5.8l0,0c-2.5,2.3-5.5-1-5.5-1c-0.1-1.6,0.6-6.5,2.1-8.6
		c1.5-2.1,3.3-2.6,3.3-2.6c0.3-2.5-1.5-5.8-1.5-5.8c-5.9,0.8-14.7-5.5-14.7-5.5c-3.3,3.4-1.9,9.1-1.9,9.1c3.9-1.7,8.8-1.2,8.8-1.2
		c-0.2,8.6-2.8,14.4-2.8,14.4c-7.6,0.4-12.3-5.2-12.3-5.2c-2.9,4.1-2.6,13.9-2.6,13.9l-0.2,0c-0.3-0.8-0.6-1.6-0.8-2.3
		c-1.8-6.1-2.4-16.3-1-22.3c1.2-4.8,4.4-7.7,9.5-9.2l11.2-1.3h0l0,0l6.9,2.3c2.8,2,4,5,4,8.1C580.1,67.1,577.8,70.3,577.3,73.1z"/>
	<path class="st0" d="M579.7,65.3c0-0.2,0.5-2.1,0.4-3.9c0,0-0.8,1.6-2.1,2.6c0,0-0.2-4.2-2.9-6.9c0,0-2.3,0.3-6.4-0.6
		c-4.1-0.9-6.8-2.9-8.1-3.1c-1.3-0.2-5.6,2.6-6.2,3.8c-0.6,1.1-0.6,2.5,0.3,4.2c0,0-0.2,2.4-2.2,6c-1.5,2.8-2.7,4.3-2.7,4.3
		l-2.2-2.4c0,0-2-10.4-1.2-12.8c0,0,3.4-3.9,9.4-5c6-1.2,8.1-1.2,12.8-1.6c4.7-0.4,13.2-2.9,13.2-2.9s-1.2,2-2.3,2.5
		c0,0,4,2.7,4.5,6.5c0,0.2,0,0.4,0,0.7C583.8,60.4,580,65,579.7,65.3z"/>
	<path class="st0" d="M557.3,65.4c0,0,4.8-2.6,10.6-2.4c0,0-0.4,1.4-1.9,2.6C566.1,65.6,564.1,64.3,557.3,65.4z"/>
	<path class="st0" d="M573.9,69.4c0,0,3.5-5.3,5.7-3.6c0,0-0.1,1.9-0.8,2.9c0,0-0.2-1-1.4-1.1C576.1,67.4,573.9,69.4,573.9,69.4z"/>
	<path class="st0" d="M577.2,83.6c-0.1,1.3-0.3,2.7-0.7,3.9c-1.5,5.2-9.2,12-14.7,11.3c-4.8-0.6-9.4-6.8-11.7-12.5
		c-0.3-0.7-0.5-1.4-0.8-2.1c0-0.1-0.1-0.2-0.1-0.2c1.3-2,7.2-1.9,7.2-1.9s5-1.6,9.4-2.1C569.5,79.7,575.3,81.8,577.2,83.6z"/>
	<path class="st0" d="M610.4,171.5c0,0,2.9,1,5.7,1.3c2.7,0.3,12.8-0.7,15.4-1.5c2.6-0.8,7.1-2.9,7.9-3c0.8-0.1,1.4,1.1,1,2
		c0,0-2.9,3.1-5.8,4.2c0,0-5.1,0.4-9.8,1c-4.8,0.6-9.3,5-9.3,5s1.3,2.4,3.3,3.9c0,0,2.9,0,3.9,0.7c1,0.7,1.8,2.8,2,5.2
		c0,0-1.1,0.8-2.4,0c0,0-3.2-3.4-5-3.9c-1.8-0.6-6.5-1.6-7.8-2.9c-1.4-1.4-1.4-6.1-1.4-6.1l-1.8-1.4
		C606.4,175.9,608.6,172.2,610.4,171.5z"/>
	<path class="st0" d="M559.3,102.5c-0.9-3.6-4-6.5-4-6.5l-0.1,3.5c0,0.5-2.3,2.5-2.3,2.5c-6-1.4-8-9-8-9l0.6-1.6
		c-1.4,1.3-4.2,4.5-4.2,4.5v0c-1.2,1.2-2.9,2.8-4.4,3.8c0,0,1.3,6.7,5.8,14.7s9.7,17.7,12.9,24.8c0,0,7.6-13.5,8.1-28.8L559.3,102.5
		z"/>
	<path class="st0" d="M522.6,158.4c-0.2,4.4,1.9,13.8,1.9,13.8s2.4-0.4,2.6,0.2c0.2,0.6,0,2.7,0,2.7c-0.8-1.6-9.2-2-13.1,0.8
		c-3.9,2.8-5,8.1-4.6,9.5c0.4,1.3,1.5,1.8,1.7,1.9l-2.2-0.7c0,0-0.2-0.3-0.5-0.9c-1.1-1.9-3.5-6.5-3.8-9.6c-0.2-2.5,0.2-6.4,0.9-10
		l0,0c0.4-2.1,0.9-4.1,1.4-5.7c1.4-4.1,2.3-8.2,4.6-17.8c2.3-9.5,7.7-31.6,7.7-31.6s8.3,9.2,9.1,16.5c0.4,4.2-0.5,9-1.3,12.4
		c0,0,0,0,0,0.1c-0.6,2.5-1.2,4.1-1.2,4.1S522.8,153.9,522.6,158.4z"/>
	<path class="st0" d="M510.3,183.8l-0.7-1.2c0,0,2.1-8.4,10.6-8.6c0,0,1.9,2.9,3.9,3.3c0,0-5-0.8-8.9,1.1
		C511.2,180.4,510.3,183.8,510.3,183.8z"/>
	<path class="st0" d="M608.3,179.7c0,0,2.8-5.2,6.4-7.1c0,0-3.5-1.1-4.2-1.7c0,0-2.8,2.3-5.2,6.7L608.3,179.7z"/>
	<path class="st0" d="M557.3,332.8c0,0-18.5,0.8-20.5,0c-2-0.8-4.1-2.3-4.1-2.3v0.8h-8c-0.6-5.3,0-8.5,0-8.5
		c6.4-9.4,15.2-7.4,15.2-7.4c0.6,0.9,1.2,1.7,1.8,2.5c6,7.6,14.2,10,14.2,10c0.5,0.5,0.9,1,1.2,1.5
		C558,331.3,557.3,332.8,557.3,332.8z"/>
	<path class="st0" d="M557.8,72.6c0,0,3.1-3.8,6.9-2.6c0,0,1.7,3-0.7,6.6C563.9,76.6,559.2,78.3,557.8,72.6z"/>
	<path class="st0" d="M572.4,76.7c0.7,1.7,2.8,2.7,4.2,1c0,0,0.8-3.7,0.4-5.9C577,71.7,573.2,71.4,572.4,76.7z"/>
	<path class="st0" d="M565.1,82.5c0,0,1.1,0.4,2.2,0.4c1.1,0,4.6,0,5.9,0.8c0,0-1.2,1.9-4.1,2.2c0,0-0.9,0-1.6-0.4
		c0,0-0.7-1-1.6-1.2C565.9,84.3,565.1,83.3,565.1,82.5z"/>
	<path class="st0" d="M565.9,84.3l1.6,1.2C567.5,85.5,566.3,82.9,565.9,84.3z"/>
	<path class="st0" d="M559.1,85c0,0,1.5-0.8,2.9-0.6c0,0,0.3,0.3,0.1,0.8l-1-0.1c0,0,0.6,2.3,3.2,3.5c2.6,1.2,5.8,0.7,5.8,0.7
		s-3.9,1-6.3-0.4c-2.4-1.4-3.4-3.8-3.4-3.8S559.7,84.9,559.1,85z"/>
	<path class="st0" d="M557.8,72.6c0,0,4.9-0.3,7.4,0.5c0,0,0.4-1.9-0.6-3.4C564.6,69.6,561.3,68.4,557.8,72.6z"/>
	<path class="st0" d="M572.8,75.1c0,0,2.1-0.7,4.2-0.3c0,0,0.5-1.1,0-3.1C577,71.7,574.2,70.8,572.8,75.1z"/>
	<path class="st0" d="M557.8,72.6c0,0,3.7-0.7,5.8-0.4c2.2,0.3,2.5,1.1,2.5,1.1l-1,0.6l0.1-0.6C565.2,73.3,563.2,72.3,557.8,72.6z"
		/>
	<path class="st4" d="M548.3,78.8l-1.1,5.6c0,0,0.3,9.8,7.9,14.3l0.2-3.8C555.4,94.9,548.8,87.8,548.3,78.8z"/>
	<path class="st0" d="M561.8,72.6c0,0-1,1.6-0.8,4c0,0,1.6,0.5,3,0c0,0,0.9-0.8,1.2-3.3C565.2,73.3,563.7,72.7,561.8,72.6z"/>
	<path class="st0" d="M540.7,96.5l-1.8,1.6c0,0,3.9,14.1,8.5,21.3c0,0,10.5-0.3,14.4-4.3c0,0-1,11.9-3.3,17.1c0,0,4.4-10,5.2-21.7
		l-6-11.3l-4.4,3l-3.7-1.6L540.7,96.5z"/>
	<path class="st0" d="M575,74.8c0,0-0.7,1.2-0.6,3.7c0,0,1,0.5,2-0.7c0,0,0.6-1.2,0.5-3C577,74.8,575.9,74.7,575,74.8z"/>
	<path class="st0" d="M563.1,72.7c0,0-0.9,1.4-0.9,4c0,0,0.9,0.1,1.8-0.2c0,0,1-1.1,1.2-3.3C565.2,73.3,564.8,73,563.1,72.7z"/>
	<path class="st0" d="M576,74.8c0,0-1,1.4-0.8,3.8c0,0,0.7,0,1.4-0.9c0,0,0.5-1.6,0.4-2.9C577,74.7,576.5,74.7,576,74.8z"/>
	<path class="st0" d="M572.8,75.1c0,0,2.9-1.2,5.1-0.6l-0.8,0.9l0-0.6C577,74.8,575.3,74.6,572.8,75.1z"/>
	<path class="st0" d="M561.7,73.9c0,0.3-0.2,0.6-0.6,0.6c-0.3,0-0.6-0.2-0.6-0.6c0-0.3,0.2-0.6,0.6-0.6
		C561.5,73.4,561.7,73.6,561.7,73.9z"/>
	<path class="st0" d="M575.1,76.4c0,0.3-0.2,0.5-0.5,0.5c-0.3,0-0.5-0.2-0.5-0.5c0-0.3,0.2-0.5,0.5-0.5
		C574.9,75.9,575.1,76.1,575.1,76.4z"/>
	<path class="st0" d="M579.3,49.6c-0.3,0.1-0.6,0.1-1,0.2C579,49.6,579.3,49.6,579.3,49.6z"/>
	<path class="st0" d="M579.7,65.3c0-0.2,0.5-2.1,0.4-3.9c0,0,1.2-1.3,1.3-4c0,0-2.9-4.8-10.9-5.3c0,0-4.4-1.1-7.9,0.8
		c0,0,7.9,3.6,13.5,3.6c0,0,2.9,2.5,1.9,7.6c0,0-0.2-4.2-2.9-6.9c0,0-2.3,0.3-6.4-0.6c-4.1-0.9-6.8-2.9-8.1-3.1
		c-1.3-0.2-5.6,2.6-6.2,3.8c-0.6,1.1-0.6,2.5,0.3,4.2c0,0-0.2,2.4-2.2,6c-1.5,2.8-2.7,4.3-2.7,4.3l-2.2-2.4c0,0-2-10.4-1.2-12.8
		c0,0,2.6,0.7,7.5-1.4c4.9-2.2,8.1-3.6,8.1-3.6s10.9-1,16.5-1.9c-1.1,0.2-3,0.8-5.5,2.2c0,0,10,2.2,11.1,4.8
		C583.8,60.4,580,65,579.7,65.3z"/>
	<path class="st0" d="M549.6,71.6c0,0-1.6-4.2-5.6-5.5c0,0-2.2,0.2-3.8,3.3c0,0-0.5,3.3,1,7.6c1.6,4.3,4.5,4.9,5.6,4.8
		c1.1-0.1,2.4-0.7,2.7-1.6C549.8,79.4,549.6,71.6,549.6,71.6z"/>
	<path class="st0" d="M540.8,71.3c0,0,1.5-2.2,2.7-2.4c1.3-0.2,4.2,3.8,5.2,6.6c0,0-3.9-4.7-4.8-5.4C543,69.5,540.8,71.3,540.8,71.3
		z"/>
	<path class="st0" d="M545.2,70.7c0,0-1,0.9-1,3.6c0,2.8,2.7,4.6,2.7,4.6s-1.2-1.7-1.3-3.5c-0.1-1.8,1.3-2.7,1.3-2.7L545.2,70.7z"/>
	<path class="st0" d="M540.1,97.1h-3.3c0,0-5.5,4.1-7.6,10c0,0,6.7,1.2,8.8,3.2c0,0-0.6,8-0.1,12.3c0.5,4.3,19.2,25.1,20.6,28.8
		c0,0-1.4-8.2-2.9-12.6c0,0-10.1-20-13.4-27.1c-3.3-7-4.9-12.7-4.9-12.7L540.1,97.1z"/>
	<path class="st0" d="M559.3,100.7c0,0,6.1,5.2,10.8,12.8l-3.4,4.1c0,0,2.7,6.2,2.4,11.1c0,0-6,10.2-12.4,13.8l-1.1-3.8
		c0,0,3.6-7.5,4.9-12c2.9-10,3.2-16.3,3.2-16.3l-4-6.9L559.3,100.7z"/>
	<path class="st0" d="M552.9,102.1l-1.8-0.7c0,0-4.2,5-4.2,11.4c0,0-7.3-8.1-6-17.2c0,0,3.3-6.3,4-6.5c0.7-0.2,1.4-0.4,1.4-0.4
		l-0.3,1.5c0,0-0.3,4.2,4.3,9.6C550.3,99.8,551.5,100,552.9,102.1z"/>
	<path class="st0" d="M552.9,102.1l2.8-1.1c0,0,4.8,4.9,6.1,9.4c0,0-0.8-4.9-2.5-9.1c-1.5-3.7-4-5.6-4-5.6s-0.4,2.9-0.1,3.9
		C555.2,99.5,554.2,100.9,552.9,102.1z"/>
	<path class="st2" d="M522.6,158.4c-0.2,4.4,1.9,13.8,1.9,13.8c-3.5-0.8-9.9,1.3-13.3,5.1c-1.9,2.2-2.5,5.8-2.6,8.5
		c-1.1-1.9-3.5-6.5-3.8-9.6c-0.2-2.5,0.2-6.4,0.9-10l0,0c-0.2,7.5,3.7,11.7,3.7,11.7c5.1-6.4,14.1-7.6,14.1-7.6l-2.4-9
		c-1.2-2.2-4.3-2.7-4.3-2.7c0.2-0.8,4.7-4.4,4.7-4.4c2.1-2.9,5.5-12.8,5.9-14.1c-0.6,2.5-1.2,4.1-1.2,4.1S522.8,153.9,522.6,158.4z"
		/>
	<path class="st3" d="M550.4,249.5c1.4-8,5.1-24.8,5.3-25.8l-4.6,30.7c-0.3-1.1-0.5-1.7-0.5-1.7c-3.8,12.9-10.9,22.1-10.9,22.1
		c-6.3-0.9-11.5-4.6-15-8c4.7,2.7,10.4,5,15,4C539.6,270.8,549,257.8,550.4,249.5z"/>
	<path class="st0" d="M513,178.1c0,0-2,2.1-2.6,4.5c-0.6,2.4,0.9,3.7,0.9,3.7h2.7c0,0,1.3,1.3,1.5,3.6l-1,1.3c0,0,3.2,0.4,4.8,0v0.7
		c0,0,2,0.1,4-0.4c0,0,2,0,3.6-0.5c0,0,0.4-0.5,0.5-1.5c0,0,1.4,0,2.4-0.6c0,0,0.8-5.1-1.2-11.2c0,0-0.4-0.2-2.6,0
		c0,0-1.1-0.5-3.6-0.5C522.6,177.3,516.7,177.2,513,178.1z"/>
	<path class="st3" d="M555.7,138.7c0,0,2.1,9.9,2.9,12.6c0.8,2.7-0.8,25.9-0.8,25.9s-1.1,35.3-1.1,39.3l-6.2,36.1l0,0
		c0,0,6.9-28.5,7.5-37.5c0.6-8.9-0.2-37.3-0.2-37.3s2.7-21.6,2.1-25.9c-0.6-4.3-1.3-19.8-1.3-19.8L555.7,138.7z"/>
	<path class="st2" d="M608.2,170.9c-0.4,0.4-6.2,6.6-7.1,14.3l0,0c-0.5-0.3-17.2-10.9-24.6-23.7c0,0-1.2-6.9-3.7-12.9
		c-1.7-4.2-3.6-7.3-4.6-8.7l0.7-7c0,0,5.4,16,7.7,20.9c0,0,7.8-1.8,11.2-1.6c0,0-6.2,2.9-8.1,6.5c0,0,6.1-4.9,10.8-6v0l0,1.5
		c0,0-5.1,1.2-8.8,6.8c0,0,11.4,18.3,17.6,21.3C599.4,182,603.7,173.7,608.2,170.9z"/>
	<path class="st2" d="M542.4,319.1l-2.5-3.6c0,0-3.9-0.2-7.6,1.5c-3.6,1.8-7.6,5.8-7.6,5.8v3.6c0,0-1.9,0-2.9-0.7l0.3-1.1
		c0,0,1.1-5.1,6.7-8.2c5.6-3.1,12.8-3.5,14.2-2.3C543,316,542.4,319.1,542.4,319.1z"/>
	<path class="st1" d="M557.3,332.8c0,0-18.5,0.8-20.5,0c-2-0.8-4.1-2.3-4.1-2.3v0.8h-8c-0.6-5.3,0-8.5,0-8.5
		c6.4-9.4,15.2-7.4,15.2-7.4c0.6,0.9,1.2,1.7,1.8,2.5l0,0c0,0-7,0.8-12.9,7.3c0,0,4.3,4.1,11.4,5.5c7,1.4,16.9-1.4,16.9-1.4
		C558,331.3,557.3,332.8,557.3,332.8z"/>
	<path class="st0" d="M504.6,175.3c0,0,0.9-6.6,4-15.9c3.2-9.3,7.7-25.4,9-33.5c1.3-8.1,3.6-15.5,4.7-16.9c1.1-1.4,5.9-2.4,7.7-3.9
		c0,0,5.7-5.7,6.8-6.6h1.7l1.6-1.4l0.7-0.6c0,0,3.5-5.3,4.1-5.6c0.7-0.4,1-0.3,1-0.3s2.6-5.9,2.6-9.3c0,0-4.5-0.3-6.2-4.6
		c-1.7-4.3-0.2-8.1,1.1-9.5c0,0,3.4,0.3,4.9,2.3c0,0-1.4-10.9-0.9-12.7c0.6-1.8,8.9-5.4,11.6-5.7c0,0-7.9,0.6-12.9,5.6
		c0,0-0.4,4.1,1,11.5c0,0-1.3-1.6-3.3-2.1c0,0-2.5,0.3-3.8,3.3c0,0-0.2,4.8,1.2,8.4c1.3,3.6,4.6,3.9,4.6,3.9l1.7-0.1l-1.7,7.1
		c0,0-0.5-0.4-1.2,0.4c-0.7,0.8-4,6.5-4,6.5l-1.5,1.5h-2.3c0,0-3.2,1.3-6,6.3c0,0-1.9,1.1-4,1.6c-2.1,0.5-4.2,0.8-4.2,0.8
		s-1.6,0.8-2.6,2.6c-1,1.8-6.5,25.6-7.6,30c-1.1,4.4-6.1,24-7.2,27.9C504.5,170.1,504.6,174.3,504.6,175.3z"/>
	<path class="st0" d="M518.8,191.3c0,0,1-3.9-0.2-8.3c0,0,2,4.4,0.8,8.9L518.8,191.3z"/>
	<path class="st0" d="M523.4,191.5c0,0,0.8-1.4,0.4-5.6c-0.3-4-0.8-4.9-0.8-4.9s1,1.6,1.4,5.3c0.4,3.6-0.5,5.3-0.5,5.3H523.4z"/>
	<path class="st0" d="M527.5,189.5c0,0,0.5-4.5-0.3-9.1c0,0,1.5,5.3,1.2,9C528.3,189.4,527.8,189.5,527.5,189.5z"/>
	<g>
		<path class="st0" d="M577.3,82.8c0,0.3,0,0.5-0.1,0.8c-0.1,1-0.2,2-0.5,3c-0.1,0.3-0.2,0.6-0.2,0.9c-0.2,0.6-0.5,1.3-0.8,2
			c-1.7,3.1-5,6.4-8.4,8.1c-1,0.5-2.1,0.9-3.1,1.1c-0.8,0.2-1.6,0.2-2.3,0.1c-3-0.4-6-3-8.4-6.4c0,0,0,0,0,0c-1.4-1.9-2.5-4-3.3-6.1
			c-0.1-0.2-0.2-0.4-0.2-0.6c0.6-1.1,1.6-2.5,2.7-3.8c1.6-2,3.3-3.7,3.3-3.7s9.2,1.6,9.9,1.5c0,0,0,0,0,0c0.4-0.1,1.2-0.5,2-0.9
			c0.1,0,0.1-0.1,0.2-0.1c0.6-0.3,1.1-0.5,1.4-0.5c0.8-0.1,3,0.9,3,0.9s1.1,1.9,2.4,2.9C575.8,82.9,576.9,82.9,577.3,82.8z"/>
		<path class="st5" d="M569.4,78.3v3.8l-4.3,0.4l-10.5-2.4l9.7,1l1.5-1.3C565.7,79.8,568.1,78.7,569.4,78.3z"/>
		<path class="st6" d="M558.8,92.6l-6.9-4.9c1.7,3.6,8.5,9.2,8.5,9.2L562,98l2.2,0.8c-0.8,0.2-1.6,0.2-2.3,0.1
			c-4.8-0.6-9.4-6.8-11.7-12.5c-0.1-0.2-0.2-0.4-0.2-0.6c0.6-1.1,1.6-2.5,2.7-3.8l0.5-0.3l7.6,2.4l8.7-0.7l-5.6,2.3l-6.9-1.1l-1,0.3
			l4.4,6.5l4.4,3.3L558.8,92.6z"/>
		<path class="st6" d="M576.7,86.6c-0.1,0.3-0.2,0.6-0.2,0.9c-0.2,0.6-0.5,1.3-0.8,2l-0.2-1.9l-1.8-3.9L576.7,86.6z"/>
		<path class="st2" d="M567.2,97.7c-1,0.5-2.1,0.9-3.1,1.1c-0.8,0.2-1.6,0.2-2.3,0.1c-3-0.4-6-3-8.4-6.4c1.3,1,6.3,4.8,8.5,5.4
			C563,98.3,565.2,98,567.2,97.7z"/>
		<polygon class="st5" points="572.4,83.7 571.3,87.7 571.4,94.2 		"/>
		<path class="st0" d="M555.4,78.8l-5.8-7.3l-0.6-1.2c0,0,3.4,2.7,6.9,7.9L555.4,78.8z"/>
		<polygon class="st0" points="550,85.6 547.2,81.7 546.3,81.7 550.5,87 		"/>
		<path class="st6" d="M557.8,86.2c0,0,2.7,4,3.7,4.9c1,0.9,7.4,3.5,7.6,3.4c0.3,0,1.9-0.3,1.9-0.3s-1.3-0.1-2.2-0.4
			c-0.8-0.2-6.6-3.4-6.9-3.9C561.7,89.4,557.8,86.2,557.8,86.2z"/>
	</g>
</g>
<g>
	<path class="st0" d="M317.7,307.2c0,0.6-4.7,7-4.7,7l-2.1-2.1c-7.8-0.3-15,3.8-15,3.8l-1.7,4c0,0-3.3-3.9-3.8-5v0l0-0.2v0
		c0.1-0.7,2.1-2.1,2.1-2.1s-3-9.2-3.1-10.6c-0.1-1.4,3-4,3-4c0.7-6.3-4.2-23-4.5-25.6c-0.2-2.5-1.4-18.6-2-20.1l-0.1-0.2l-0.1-0.2
		l-0.1-0.4l-0.4-1.3l-0.1-0.3l-0.2-0.5c-0.5-1.7-1.2-3.9-1.9-6.3v0c-1.5-5-1.6-7.2-1.9-9.1c-0.5-2.7-1.7-18.3-2.5-28.1l0-0.5
		l-0.1-0.9c0-0.3,0-0.6-0.1-0.9l-0.1-1.1l-0.1-1.9l-1.3-0.4c0,0-8.3,43.4-8.1,45c0.2,1.6,3.5,14.1,3.5,14.1c1,13.1-4,41.5-4,41.5
		s2.7,6.4,2.7,7.3l0,0.1c-0.3,1-4.9,4.4-4.9,4.4v5.9l-2.2,1.3v-1.4c0,0-3.1-4.9-6.9-7.5c-3.9-2.5-10.9-6.7-10.9-6.7l-0.2,0.6
		l-1.1-1.5l2.8-4.1c0,0-3.1-3.3-2.8-3.8c0.3-0.4,3-2.6,3-2.6c2.3-13.3,1.5-40,1.5-40l-0.5-5.4c0.9-24.8,5.2-59.1,5.2-59.1l-0.9-1.6
		l0.6-1.6c19.2,2.9,48.2-11.4,48.2-11.4l3.5,12.2l-1.6,5c-1.6,19.7,1.5,57.7,1.5,57.7l1.5,1.6l-0.7,4.2l4.8,10.3
		c1.3,10.2,2.4,34,2.6,38.4c0,0.5,0,0.7,0,0.7S317.7,306.5,317.7,307.2z"/>
	<path class="st0" d="M264.2,320.4l-49,0.5l2.5-1.8l0.8-0.6c0,0,15.8-6.3,19.1-8.2c3.1-1.8,5.6-3.7,7-4.9l0.7-0.6
		c0.4-0.3,0.6-0.5,0.6-0.5s0,0,0,0c0.5,0.2,7.1,2.8,10.5,5.4c3.5,2.7,7.3,8.7,7.3,8.7L264.2,320.4z"/>
	<polygon class="st0" points="264.2,320.4 264.2,324.3 214,324.3 215.2,320.8 	"/>
	<path class="st0" d="M315.8,325.9c-1.9,0.2-3.8,0.3-5.8,0.3c-5.7,0.2-11.5,0-15.1-0.1c-1.7-0.1-2.8-0.1-3.3-0.2c-0.1,0-0.2,0-0.2,0
		l0.5-2.7c2.6-3.7,4-7.2,4.1-7.4l0,0c9.9-5.5,15-3.8,15-3.8l2.1,2.1C315.5,318.9,315.8,325.9,315.8,325.9z"/>
	<path class="st0" d="M316.2,329.7c-0.4,0.1-0.8,0.1-1.2,0.2c-7,1-16.4,0.4-21,0.1c-1.7-0.1-2.8-0.3-2.8-0.3v-3.8c0.1,0,0.2,0,0.2,0
		c1.1,0,2.2,0,3.4,0.1c2.4,0,4.7,0.1,6.9,0.1c7.8,0,14-0.2,14-0.2L316.2,329.7z"/>
	<path class="st2" d="M317.7,307.2c0,0.6-4.7,7-4.7,7l-2.1-2.1c-7.8-0.3-15,3.8-15,3.8l-1.7,4c0,0-3.3-3.9-3.8-5v0l0-0.2v0l14.4-6.3
		c-6.3,1.6-12.3,4.2-12.3,4.2s-3-9.2-3.1-10.6l12.7-8.1c4.6-11.1,5.2-20.6,5.2-20.6c-1.8,9.4-9.5,21.2-9.5,21.2l-5.3,3.5
		c0.7-6.3-4.2-23-4.5-25.6c-0.2-2.5-1.4-18.6-2-20.1l-0.1-0.2l-0.1-0.2l-0.1-0.4l-0.4-1.3l-0.1-0.3l-0.2-0.5l8.9,4.6l8.5-6.1
		l1.2-15.6l-4,13l2-30.8l-4.4-15.1l-10.7-4l-5.3,5.2l0.8,28.4l1.1,14.2l0-0.1v0c-1.5-5-1.6-7.2-1.9-9.1c-0.5-2.7-1.7-18.3-2.5-28.1
		l0-0.5l-0.1-0.9l-0.1-0.9l-0.1-1.1l-0.1-1.9l-1.3-0.4c0,0-8.3,43.4-8.1,45c0.2,1.6,3.5,14.1,3.5,14.1c1,13.1-4,41.5-4,41.5
		L257,289.4l3.4,8.8l10.6,9.9l0,0.1c-0.3,1-4.9,4.4-4.9,4.4v5.9l-2.2,1.3v-1.4c0,0-3.1-4.9-6.9-7.5c-3.9-2.5-10.9-6.7-10.9-6.7
		l-0.2,0.6l-1.1-1.5l11.3,3.4l-8.5-7.5c0,0-3.1-3.3-2.8-3.8l18.7,11.3l-10.6-9.2l-5.2-4.8c2.3-13.3,1.5-40,1.5-40l-0.5-5.4l0.9,0.9
		l7-3l7.7-51.8l-3.9-1.4l-6.6-3.8l-0.9-1.6l0.6-1.6c19.2,2.9,48.2-11.4,48.2-11.4l3.5,12.2l-1.6,5c-1.6,19.7,1.5,57.7,1.5,57.7
		l1.5,1.6l-0.7,4.2l4.8,10.3c1.3,10.2,2.4,34,2.6,38.4c-7.4-0.5-12.3,1.1-12.3,1.1C307.6,304.5,317.7,307.2,317.7,307.2z"/>
	<polygon class="st2" points="277,200.4 267.1,192.2 270.1,196.9 266.5,218.8 266.2,229.5 268.1,213.8 272.7,211.1 268.9,245.3 	"/>
	<path class="st2" d="M268.3,300.9c0,0,2.7,6.4,2.7,7.3l0,0.1c-0.3,1-4.9,4.4-4.9,4.4v5.9l-2.2,1.3v-1.4c0,0-3.1-4.9-6.9-7.5
		c-3.9-2.5-10.9-6.7-10.9-6.7l-0.2,0.6l-1.1-1.5l2.8-4.1c0,0-3.1-3.3-2.8-3.8l18.7,11.3l-15.8-13.9c2.3-13.3,1.5-40,1.5-40l-0.5-5.4
		l0.9,0.9l7-3l9-20.8l4.5-27.7l6.9,3.5c0,0-8.3,43.4-8.1,45c0.2,1.6,3.5,14.1,3.5,14.1C273.3,272.6,268.3,300.9,268.3,300.9z"/>
	<path class="st2" d="M287.9,271.4l6.8,15.1l2.1,8.6l-4.4,2.9c0,0,0.2-5.9-1.1-10.7C289.9,282.4,287.9,272.7,287.9,271.4z"/>
	<path class="st2" d="M317.7,307.2l-4.7,7l-2.1-2.1c0,0-6.2-1.4-15,3.8l-1.7,4c0,0-2.4-2.4-3.8-5.2l14.4-6.3l-3.7-4
		C301.1,304.3,314,305.5,317.7,307.2z"/>
	<polygon class="st7" points="253.9,188.4 260.4,192.2 268.1,193 266.9,190.7 274.1,193 295.3,179.3 302.7,187.1 297.7,178.4 
		302,174.7 301.7,173.7 253.6,185.1 253,186.7 	"/>
	<path class="st2" d="M285,249.4l2.9,3.4l8.9,9.7c0,0-2.1-7.9-2.9-8.5C293.1,253.4,285,249.4,285,249.4z"/>
	<path class="st0" d="M326.9,136.1c0,0-2.5,3.4-5.9,7.5l0,0c0,0,0,0,0,0c-2.5,3-5.5,6.3-8.5,8.9c-0.3,0.3-0.6,0.5-0.9,0.7
		c-6.7,5.7-11.3,8.1-11.3,8.1l-2.6-9.5l1.5-18.5l0.3-3.1L326.9,136.1z"/>
	<path class="st2" d="M321,143.7L321,143.7l-9.4,9.6c-6.7,5.7-11.3,8.1-11.3,8.1l-2.6-9.5l1.5-18.5l0.7-0.8l3.8,2.8l-0.7,3.3
		l12.9,3.6l-8.4-0.6l9.1,4.8L321,143.7L321,143.7z"/>
	<path class="st0" d="M211.3,129.7c0,0,0,6.7,2,10.4c0,0,7.5-7.7,2-17.5L211.3,129.7z"/>
	<path class="st8" d="M188.3,113.4c0,0-0.6,2.8,1.9,7.2h1.3l1.7,1.9c0,0,6.4,2.4,8.7,2.4c2.3-0.1,4.4-2.2,4.4-2.2
		s-6.2-12.5-8.4-13.6C195.8,107.8,188.3,113.4,188.3,113.4z"/>
	<path class="st8" d="M215.9,135.4c-1.9-4-4.9-6-4.9-6c-4.7,0.4-9.7-0.3-10.2-0.8c0,0,0,0,0,0c-0.5-0.6-3.7-6.3-5.6-8.3
		c-2.3-2.5-6-3.5-6-3.5l-0.1-1.6c3.2-1.8,6.7-0.8,7.7-0.1c1,0.7,3.4,6,3.4,6c1,1.2,3,0.7,3,0.7s-0.8-4.8-2.3-7.8
		c-1.5-3-3.6-4.7-3.6-4.7c-0.4-0.1-2.9,1.1-2.9,1.1c-2.6,2.9-7.2,3-7.2,3c-1.3-0.5-1.6-2.1-1.6-2.1c5.7-1.1,10.8-7.8,10.8-7.8
		s1.7-1.2,2.5-0.8c0.8,0.4,4.8,6.8,8.9,11.7c4,4.9,11.5,11.6,11.5,11.6C219.5,133.9,215.9,135.4,215.9,135.4z"/>
	<path class="st0" d="M248.7,134.2c0,0-0.2,1.8-0.8,4.4c-0.6,2.7-1.6,6.3-3.1,9.7c-2.9,6.7-5.9,10.3-6.3,10.5
		c-0.4,0.1-8-2.7-11.3-5.5c-3.3-2.8-8.3-10-8.3-10l-6-0.7c-2.1-5-1.4-12.8-1.4-12.8l0.4,0.3c-0.3,5.6,1.6,10.1,1.6,10.1
		c4.5-5.5,2.5-17,2.5-17l-0.5-0.5l0.8-0.5l0.3,0.2l0.2,0.1c0.9,0.8,3,2.7,4.6,4c0.8,0.7,1.6,1.2,2,1.4c0.9,0.4,2.4,1,3.7,1.5
		c1.6,0.6,2.9,1.1,2.9,1.1l0.2-0.4l1.2-2.7h1l2.3-2.5c0,0,0.9-22.8,1.9-22.3c0.3,0.1,0.6,0.4,0.9,0.8
		C241.9,108.7,248.7,134.2,248.7,134.2z"/>
	<path class="st2" d="M247.8,138.5c-0.6,2.7-1.6,6.3-3.1,9.7c-2.9,6.7-5.9,10.3-6.3,10.5c-0.4,0.1-8-2.7-11.3-5.5
		c-3.3-2.8-8.3-10-8.3-10l-6-0.7c7-8.6,3.5-20.3,3.5-20.3l0.3,0.2l0.2,0.1l4.6,4l0,0l5.7,9.9l12.8,9.9L227,129.5
		c1.6,0.6,2.9,1.1,2.9,1.1l0.2-0.4l10.6,9l-4.2-8l-4.1-3.8l2.3-2.5c0,0,0.9-22.8,1.9-22.3c0.3,0.1,0.6,0.4,0.9,0.8l4,8.2
		L247.8,138.5z"/>
	<path class="st8" d="M254.4,83.8c0,0,0.3,2.9,0.2,3.2c0,0.2-0.6,0.7-0.6,0.7s-0.8,10.5,4,15.2c0,0,9.3-8.8,10.7-13
		c1.4-4.2,1.3-11.2,1.3-11.2s-4.4-8-5.2-11.5L254.4,83.8z"/>
	<path class="st0" d="M254.2,91c0,0,2,3.8,3.9,4c3.3,0.2,8.8-4,8.8-4s-4.4,9.5-9.4,12.8C257.5,103.9,254.1,98.3,254.2,91z"/>
	<path class="st9" d="M254.4,83.8l0.2,2.6c0,0-2.1,5.7,2.2,14c0,0-2.1-6-1-9.2c0,0,3.9-2.4,6.3-7.4c2.4-4.9,4.3-12.6,4.3-12.6
		l-0.2-0.5l-1.7-1.2L254.4,83.8z"/>
	<path class="st8" d="M263.1,76.4c-1.1,1.4-8.5,7.7-11.4,9.1c-2.9,1.4-6.8,0.9-7.9,0.3c-1.1-0.6-7.1-11.6-7.4-15
		c-0.2-1.9,0.2-3.5,0.7-4.8c0.3-1,0.7-1.8,0.8-2.5c0.3-1.7-2.5-8.7-2-11.3c0.4-1.9,3.5-6.4,7.6-8.9l0.1,0c0.4-0.3,0.9-0.5,1.3-0.7
		c1-0.4,1.9-0.7,2.9-0.9c2.2-0.2,4.6-0.2,7,0.2l0.2,0h0c5.1,0.8,9.8,3.1,10.7,6.6C266.9,53.8,264.2,75,263.1,76.4z"/>
	<path class="st8" d="M263.4,62c0,0,2.8-5.5,4.4-5.5c1,0,3.5,0.7,4.3,2.9c0.4,1.3-1.4,7.8-3.1,9.8c-1.3,1.6-3.7,1.8-4.6,1.3
		C263.6,69.9,262.7,63.2,263.4,62z"/>
	<path class="st10" d="M264.5,51.3l-1.9,11.4c0,0-1-2.8-1.5-3.1c-0.4-0.3-3.6-0.7-3.6-0.7s-6.4,4.8-9.1,4.9
		c-2.7,0.2-3.7-10.4-3.7-10.4s-3.1-0.7-6.4,0.8c0,0,3.4,7.1,3.7,8.8c0.3,1.7-2.8,3.6-4.9,3v0c0.3-1,0.7-1.8,0.8-2.5
		c0.3-1.7-2.5-8.7-2-11.3c0.4-1.9,3.5-6.4,7.6-8.9l0.1,0l1.3-0.7l3.3-1.7l6.7,1.1l0.2,0h0l5.7,2L264.5,51.3z"/>
	<path class="st8" d="M266.3,57.5c0,0-2.6,2.8-3.7,5.1c0,0,0.2-2.5,0-4.8c-0.2-2.3-2.7-4.2-3.5-5.3c-0.8-1.1-1-4.6-1.1-5.6
		c0-1-1.2-1.2-1.2-1.2l1.7-1.3c-0.2-0.2-3.6,0.7-3.6,0.7s0,0,0,0c0,0,0,0,0,0c-0.5-0.4-3.1-2.5-4.2-2.5c0,0-6.7,5.3-8.9,6.3
		c-2.3,1-5.2,1.7-5.2,1.7s-0.8,1.6-0.8,2.1c0,0.5,1.4,7.2,1.4,7.2s-6.6-6-6.4-11.5c0,0,3.7-1,6.9-3.2l0.1-0.1
		c0.6-0.4,1.2-0.9,1.7-1.4c0.2-0.2,0.5-0.5,0.7-0.7l0,0c3.1-3,5.6-5.6,8.8-5.2c3.4,0.4,7.7,3.6,11.7,5.6c4.1,2,4.6,1.8,6.2,3.1
		c0.1,0.1,0.2,0.3,0.3,0.5C268.1,49.3,266.3,57.5,266.3,57.5z"/>
	<path class="st0" d="M303.7,172.1c-5.5,5.8-30.2,15-37,15c-6.8,0-14-2.3-14-2.3s1-7.3,1-8.6c0-1.3-3.1-8.4-3.1-8.8
		c0-0.4,2.2-2.3,2.2-2.3c0-0.2,0-0.4,0-0.7c-0.5-7.1-5.3-23.7-5.3-23.7s-3.1-5.1-3.6-5.8c-0.5-0.7-1.1-3.1-1.7-7.8
		c-0.4-3.1-2.2-8.4-3.4-11.8c-0.6-1.8-1.1-3.1-1.1-3.1s-1.4-8.7-0.9-9.4c0.5-0.7,5.9-4.1,7.1-5c1.1-1,7.6-7.4,7.6-7.4l2.2-3.7
		l1.1-0.4c0,0-1,2.5,0,7.6c0.5,2.5,1.4,4.7,2.1,6.3c0,0,0,0,0,0.1c0,0,0,0,0,0c0,0,0,0,0,0c0.7,1.6,1.3,2.5,1.3,2.5s6.6-6.6,9-12.4
		c2.5-5.7,3-11.9,3-11.9l-1-1.9h1c0,0,8.9,7.2,10.2,7.6c1.3,0.4,18,6,18,6c2.8,9,3.7,44.1,3.7,44.1s-1.9,17.7-1.9,19.3
		C300.1,155.2,303.4,171.1,303.7,172.1L303.7,172.1z"/>
	<path class="st0" d="M298.3,90.3c0,0-8.6,3.9-9.9,7.7c-1.4,3.7,0.9,22.8,0.9,22.8l-0.4,2.8l14.7,12.1c0,0,8.7,4.3,12.2,4.4
		c3.4,0.1,10.7-2.7,11.1-4c0.5-1.3-7.8-17.5-17.8-26.8L298.3,90.3z"/>
	<path class="st8" d="M244.9,50.8c0,0,0.2,1.9,1.4,3c0,0,4.7-0.5,5.9-0.5c1.1,0,3.4,0.6,3.6,0.5c0.2-0.1-0.9-1.8-3.2-2.6
		C250.2,50.4,244.9,50.8,244.9,50.8z"/>
	<path class="st8" d="M236.3,55.6c0,0,0.4-0.3,0.5-0.3c0.8,0,2.5,1.5,2.7,1.4c0.2-0.1-1.1-3.3-3.7-4.2
		C235.8,52.6,235.6,54.4,236.3,55.6z"/>
	<path class="st8" d="M248.6,61.2c0,0-1-3.2-0.2-4.1c0.9-0.9,4.8,0,6.4,2.5L248.6,61.2z"/>
	<path class="st8" d="M252.5,61.1c0,0-0.1,0-0.2,0.1c-0.3,0.1-0.6,0.3-0.9,0.4c-0.7,0.4-1.4,0.7-1.9,0.8c-0.2,0-0.4,0-0.5-0.1
		c-0.4-0.3-0.6-1.1-0.7-2c-0.1-1.2,0.1-2.4,0.7-2.6c3.2-1,5.4,1.4,5.7,1.8C255,60,253.8,60.4,252.5,61.1z"/>
	<path class="st8" d="M241.5,62.9c0,0-0.7-3.5-3.3-3.8c-0.3,0-0.5,1.8,0.6,4.8L241.5,62.9z"/>
	<path class="st8" d="M240.3,65.1C240.3,65.1,240.3,65.1,240.3,65.1c-0.3,0.2-0.6,0.3-0.8,0.4c-0.4,0.1-0.7-1-1-2.3v0
		c-0.1-0.4-0.2-0.9-0.2-1.3c-0.1-0.8-0.1-1.5,0.1-1.8c0.4-1.1,2.8,0.5,3.2,3.2C241.7,64,241,64.7,240.3,65.1z"/>
	<path class="st8" d="M252.6,60.7c0,0.1,0,0.2,0,0.4c0,0-0.1,0-0.2,0.1c-0.3,0.1-0.6,0.3-0.9,0.4c-0.7,0.4-1.4,0.7-1.9,0.8
		c-0.2,0-0.4,0-0.5-0.1c-0.4-0.3-0.6-1.1-0.7-2c0.2-1.1,1-1.9,2.1-1.9C251.6,58.5,252.6,59.5,252.6,60.7z"/>
	<path class="st8" d="M251.6,61c0,0.2,0,0.4-0.1,0.6c-0.7,0.4-1.4,0.7-1.9,0.8c-0.5-0.2-0.8-0.8-0.8-1.4c0-0.8,0.6-1.5,1.4-1.5
		C251,59.5,251.6,60.2,251.6,61z"/>
	<path class="st8" d="M240.3,65.1C240.3,65.1,240.3,65.1,240.3,65.1c-0.3,0.2-0.6,0.3-0.8,0.4c-0.4,0.1-0.7-1-1-2.3v0
		c-0.1-0.4-0.2-0.9-0.2-1.3c0.2-0.4,0.4-0.7,0.7-0.7c1-0.1,1.8,1.4,2.1,3C241.2,64.4,240.5,64.9,240.3,65.1z"/>
	<path class="st8" d="M240.3,65.1c-0.3,0.2-0.6,0.3-0.8,0.4c-0.4,0.1-0.7-1-1-2.3v0c0.1-0.4,0.3-0.6,0.5-0.7c0.5-0.1,1,0.7,1.2,1.8
		C240.3,64.6,240.3,64.9,240.3,65.1z"/>
	<path class="st8" d="M249.8,62.4c0,0,2.7-1.3,4.8-2.4C254.6,60,253.5,61.5,249.8,62.4z"/>
	<path class="st8" d="M238.9,64.5c0,0,0,0.6,0.8,0.6c0.8,0,1.8-1.3,1.8-1.3s-0.7,1.6-2.1,1.9C239.1,65.8,238.9,64.5,238.9,64.5z"/>
	<path class="st8" d="M252,58.8c0,0.2-0.2,0.4-0.4,0.4s-0.4-0.2-0.4-0.4s0.2-0.4,0.4-0.4S252,58.6,252,58.8z"/>
	<path class="st8" d="M240.6,62c0,0.2-0.2,0.4-0.4,0.4s-0.4-0.2-0.4-0.4c0-0.2,0.2-0.4,0.4-0.4S240.6,61.7,240.6,62z"/>
	<path class="st0" d="M238.9,69.5c0,0-0.2,1.4,4.2,1.4c0,0,1-0.4,1.5-0.7c0,0,0.4-0.9,0.7-1.1c0.3-0.2,1.4-0.4,1.4-0.4
		s0.8-0.5,0.8-1.1c0,0-0.2,0.3-2.3,0.7C243.1,68.7,241.4,68,238.9,69.5z"/>
	<path class="st8" d="M238.9,69.5c-0.7,0.6,2.7-5.1,3.2-6.2c0.4-1.1,2-1,2.6-0.7c0.6,0.2,0.5,4.3,0.5,5c0,0.7-2.3,0.9-2.3,0.9
		S240,68.6,238.9,69.5z"/>
	<path class="st11" d="M254.9,45.1c-0.3-0.3-3.1-2.6-4.3-2.6c0,0-6.7,5.3-8.9,6.3c-2.3,1-5.2,1.7-5.2,1.7s-0.8,1.6-0.8,2.1
		c0,0.5,1.4,7.2,1.4,7.2s-6.6-6-6.4-11.5c0,0,6.7,0.4,11.4-2c4.7-2.4,8.1-5.9,8.3-5.7C250.7,40.7,254.5,44.6,254.9,45.1z"/>
	<path class="st11" d="M237.6,45.1c0,0,2.8-0.8,4.5-1.5c1.7-0.7,3.8-3.1,3.8-3.1s-3.4,2.3-5.7,2.3L237.6,45.1z"/>
	<path class="st11" d="M266.3,57.5c0,0-2.6,2.8-3.7,5.1c0,0,0.2-2.5,0-4.8c-0.2-2.3-2.7-4.2-3.5-5.3c-0.8-1.1-1-4.6-1.1-5.6
		c0-1-1.2-1.2-1.2-1.2s1.5-0.1,2,0c0.5,0.1,1.4,2.7,3.1,3.6c1.5,0.8,4.5-1.7,5.4-2.4C268.1,49.3,266.3,57.5,266.3,57.5z"/>
	<path class="st11" d="M254.9,45.1c0,0,4-2.8,4.9-2.3c0.9,0.5,1.6,0.8,1.6,0.8l-2.9,0.8L254.9,45.1z"/>
	<path class="st12" d="M230.8,48.3c0,0,5.7,0.5,11.4-2c5.7-2.5,8.3-5.7,8.3-5.7s-6.7,2.7-12.8,4.5C234.8,47.2,230.8,48.3,230.8,48.3
		z"/>
	<path class="st12" d="M258.7,45.7c0,0,2.6,1.1,4.6,1.1c2,0,2.8-1.1,2.8-1.1s1,0.6,1.1,1.2c0,0-2.6,2.6-4.3,2.7
		C261.4,49.6,258.7,45.7,258.7,45.7z"/>
	<path class="st8" d="M240.3,42.8c0,0,4.5-0.1,8.7-5.2C249,37.7,245.2,37,240.3,42.8z"/>
	<path class="st8" d="M258.1,47.6c0,0,2.7,4.6,4.8,5.5c2.1,0.9,4.1,0,4.1,0l-0.4,2.4c0,0-4.1,0.4-7.8-3.3
		C258.9,52.2,257.6,49.6,258.1,47.6z"/>
	<path class="st13" d="M263.8,64.7c0,0,3.5-5.7,5.4-6.3l1.7,1c0,0-0.1,5.9-1.8,8.1c0,0,1.2-3.3,0.9-6l-1-1.6l-1.5,1l1.2,2.4
		c0,0-0.2,3.5-3.3,3.8l0.4-1.4l-0.7-1.5L263.8,64.7z"/>
	<path class="st0" d="M263.1,76.4l-4.3,2.4l-2.2,3.3C256.6,82.1,261.5,78.1,263.1,76.4z"/>
	<path class="st14" d="M254.8,108.8l10.3-2.6c0,0,8.5-14.7,8.9-17.4c0.5-2.6-0.8-9.6-0.8-9.6l-3.1-2.5L271,80c0,0,0.9,4.2-4.1,13.2
		C261.9,102.1,254.8,108.8,254.8,108.8z"/>
	<path class="st14" d="M258.1,102.9l-3.7,5.3c-3.7-7.3-3.1-17.8-3.1-17.8l2.2-3.7l1.1-0.4c0,0-1,2.5,0,7.6
		C255.6,99,258.1,102.9,258.1,102.9z"/>
	<polygon class="st2" points="256.8,100.4 254.4,108.2 258.1,102.9 	"/>
	<path class="st2" d="M285.9,90.3c0,0-10.3,11.3-11.8,12.4c-1.5,1.1-14.8,8.5-14.8,8.5s13.2-5.3,16.6-7
		C279.3,102.6,285.9,90.3,285.9,90.3z"/>
	<path class="st2" d="M263.4,124c-0.6-0.2-9.7-3.8-12.5-5.4c-2.9-1.7-6.2-4.7-6.2-4.7l-6,1.3c-0.6-1.8-1.1-3.1-1.1-3.1
		s-1.4-8.7-0.9-9.4c0.5-0.7,5.9-4.1,7.1-5c1.1-1,7.6-7.4,7.6-7.4l2.2-3.7l1.1-0.4c0,0-1,2.5,0,7.6c0.5,2.5,1.4,4.7,2.1,6.3
		c-0.4-0.8-3.1-6-3-12.2l-2.3,8.3l-7.9,5v2.6c0,0,6.6,10.8,10.5,13.6C257.7,120.2,263,123.7,263.4,124z"/>
	<path class="st2" d="M303.7,172.1c-5.5,5.8-30.2,15-37,15c-6.8,0-14-2.3-14-2.3s1-7.3,1-8.6c0-1.3-3.1-8.4-3.1-8.8
		c0,0,6.3,5.5,9.7,7.6c3.4,2.1,19.7,0.7,19.7,0.7s-14-2.7-16-3.4c-2-0.7-8.4-5.2-8.8-5.5c0.4,0.2,7.3,2.8,10.1,3.2
		c3,0.4,14.5-15.3,14.5-15.3s5.3-15.8,7-22.9c0,0-22.2,27.7-34,32.5c-0.5-7.1-5.3-23.7-5.3-23.7s-3.1-5.1-3.6-5.8
		c-0.5-0.7-1.1-3.1-1.7-7.8c-0.4-3.1-2.2-8.4-3.4-11.8l4.3,10.2l1.6,8.9c0,0,4.9,5.8,7.2,7.2c2.3,1.4,9.8,3.5,9.8,3.5
		s-6.3,0.4-8.5,0c-2.2-0.4-2.2-0.4-2.2-0.4l7.6,8.9c0,0,8.7-9.3,14.1-17.3c5.4-8,6.8-10.4,6.8-10.4s-3.3,11.7-4.3,14.3
		c-1,2.5-3.8,6.3-4.1,6.7c0.9-0.9,15.2-15,18-23.5l5.7,4.7l-11.2,24.3l-7,14.1c0,0,10.6-12.4,12.5-16.6c1.9-4.2,6.2-21.3,6.2-21.3
		l6.9,6c0,0-1.9,17.7-1.9,19.3C300.1,155.2,303.7,172.1,303.7,172.1z"/>
	<polygon class="st2" points="287.9,118.4 301.8,125.6 316.5,136.9 297.7,128.1 288.9,123.3 284.9,119.1 	"/>
	<path class="st2" d="M271,146.9l1.5-1.4C271.9,145.9,271.4,146.4,271,146.9z"/>
	<path class="st2" d="M303.6,172.1l-4.4-13.5l-5.2,17.4l5.2-23.1l-6.5-11.4l-3.3,6.6l4.8-16.6l-2.7,2.8l-7.7,7.2l2.7-9.5l-14.2,13.4
		c5.1-5,11.2-13,12.4-14.7c1.3-1.9,4-7.4,4-7.4l13.1,11.1c0,0-1.9,17.7-1.9,19.3C300.1,155.2,303.4,171.1,303.6,172.1z"/>
	<polygon class="st2" points="302,134.4 303.6,135.7 302.9,138.8 307.4,141.7 316.5,146.5 301.3,160.5 300.1,153.7 	"/>
	<polygon class="st2" points="295.1,128.4 301.5,139.4 302,134.4 	"/>
	<path class="st2" d="M250.6,167.5c0,0,7.7,6.9,9.7,7.6c2,0.7,7.9,1.4,13.8,1.1c0,0-10.5,1.4-12.8,0.8c-2.4-0.6-7.8-1.8-7.8-1.8
		L250.6,167.5z"/>
	<path class="st2" d="M247.4,140.7c0,0-2.3,7.1-4.1,10.5l-3-14.3l0.8-14.2l0.6,2.2l1.9,10.6L247.4,140.7z"/>
	<path class="st15" d="M309.1,109.3L298.6,95l-9.6,5.3l-0.2,16.4c0,0-1.3-17.5-0.5-18.8c0.8-1.4,6.9-7.4,9.9-7.7L309.1,109.3z"/>
	<path class="st3" d="M265.1,120.6c0,0,5.9-1.7,8.7-2.4c2.7-0.8,11.2-2.9,11.2-2.9s-8,3.8-10.3,4.5
		C272.4,120.4,265.1,120.6,265.1,120.6z"/>
	<path class="st2" d="M212.8,142.5c0,0,2.4-2.2,3.6-7c1.1-4.8-0.1-13.3-0.1-13.3s5.1,13.8,4.8,20.8l-2.3,0.2L212.8,142.5z"/>
	<path class="st9" d="M316.2,329.7c-0.4,0.1-0.8,0.1-1.2,0.2l-1.6-3.6l-3.5-0.1l-8.2-0.2l-6.9-0.2l0,0.1l0,0.1L294,330
		c-1.7-0.1-2.8-0.3-2.8-0.3v-3.8l0.5-2.7c0,0,9.6,1.4,14.7,0.9c5.2-0.5,7.2-1.7,7.2-1.7l-0.8-6.3c0,0-10.7-2.7-17-0.3
		c9.9-5.5,15-3.8,15-3.8l2.1,2.1c2.5,4.7,2.8,11.8,2.8,11.8L316.2,329.7z"/>
	<path class="st9" d="M264.2,320.4v4h-25.1v-3.5l-23.9,0l2.5-1.8h21.3l14.1-3.9l-8.5-9.6l0.7-0.6l0.6-0.5c0.5,0.2,7.1,2.8,10.5,5.4
		c3.5,2.7,7.3,8.7,7.3,8.7L264.2,320.4z"/>
	<path class="st0" d="M212.8,131.4c0,0,2.2-4.5,1.8-9.5l1.3,1.2c0,0,1.2,7.3-0.2,11.9L212.8,131.4z"/>
	<path class="st10" d="M197.3,122.2c0.3,0.8,3.3,6.1,3.5,6.5c-0.5-0.6-3.7-6.3-5.6-8.3c-2.3-2.5-6-3.5-6-3.5l-0.1-1.6
		c3.2-1.8,6.7-0.8,7.7-0.1c1,0.7,3.4,6,3.4,6c1,1.2,3,0.7,3,0.7s-0.8-4.8-2.3-7.8c-1.5-3-3.6-4.7-3.6-4.7c5.1,2.4,8.1,13.2,8.1,13.2
		c-1.4,0.1-6.1-1.1-6.1-1.1S197,121.3,197.3,122.2z"/>
	<path class="st10" d="M198,108.3l-0.7,1.1c-0.4-0.1-2.9,1.1-2.9,1.1c-2.6,2.9-7.2,3-7.2,3c-1.3-0.5-1.6-2.1-1.6-2.1l3.8-0.6
		c0,0,1.2,1.1,1.8,1.1C191.8,111.9,196.9,109.2,198,108.3z"/>
	<path class="st0" d="M210,104.4c0,0,1.1,0.4,1.1,1.6l-31.9,13.1l-0.4-0.6L210,104.4z"/>
	<path class="st0" d="M172.4,113.6c0,0,4.3,0.5,6.8,5.5l0.7-0.3c0,0-0.8-4.2-6.4-5.8L172.4,113.6z"/>
	<path class="st0" d="M172.4,113.6c0,0,2.2,4.7,6.8,5.5C179.2,119.1,176.8,113.5,172.4,113.6z"/>
	<polygon class="st9" points="292.2,181.3 302,189.9 302.7,187.1 295.3,179.3 	"/>
	<path class="st9" d="M288.4,98l-7.7,2.8l5.2-10.5l2.5-2l9.9,2C298.3,90.3,292.7,92.3,288.4,98z"/>
	<path class="st0" d="M268.8,123.5c0,0-2.8-8.5-2.5-9c0.3-0.5,1.2-1.3,1.9-1.2c0.7,0.1,2.2,10,2.2,10L268.8,123.5z"/>
	<path class="st0" d="M273.5,118.4c0,0,6,0.6,8.4-1.7l-0.4,0.9c0,0-3,2.1-6.6,1.7C274.8,119.3,273.9,118.7,273.5,118.4z"/>
	<path class="st0" d="M265.1,120.6c0,0,8.1-0.5,9.6-0.8c1.4-0.3,10.3-4.5,10.3-4.5l0.7,4.6c0,0-6.7,3.2-8.7,3.6
		c-2,0.4-10.5,0.6-10.5,0.6L265.1,120.6z"/>
	<polygon class="st0" points="269.2,116.1 270.5,116.5 271.8,126.6 271.2,126.6 268.8,116.8 	"/>
	<polygon class="st2" points="266.4,124 266.9,130.3 264.4,139.4 	"/>
	<path class="st0" d="M272.6,120l-1.4-6.7l10.7-2.5h1.2l0.7,5c0,0-8.4,3.8-8.7,3.9C274.7,119.7,272.6,120,272.6,120z"/>
	<path class="st0" d="M271.8,116.1h1.8l9.9-2.3l0.3,2c0,0-7.7,3.6-8.7,3.9c-1,0.2-2.4,0.4-2.4,0.4L271.8,116.1z"/>
	<polygon class="st2" points="274.7,119.7 273.5,113.3 271.2,113.3 272.6,120 	"/>
	<path class="st0" d="M239.1,74.7l-0.4,0.9l0.5,0.2c0,0,1.8,1.7,2.7,1.7c2.5-0.2,5.4-1.9,6.7-2.9c1.3-1,2.4-3.4,2.4-3.4l-1-0.1
		c0,0,0.3,0.3,0.2,0.7c-0.1,0.3-0.2,0.5-0.8,1.1c-1.1,1.1-3.9,2.6-6.8,3c-3,0.4-3.6-0.5-3.6-0.5L239.1,74.7z"/>
	<path class="st3" d="M249.4,71c0,0,2.6,0.1,4,1.1c0,0-1-1.6-2.7-2C250.7,70.1,249.8,70.5,249.4,71z"/>
	<path class="st16" d="M242.6,78.5c0,0,1.9-0.7,3.4-0.8c0,0-0.6,2.2-1.3,2.4C244,80.2,242.6,78.5,242.6,78.5z"/>
	<g>
		<path class="st0" d="M263.2,71.7c0,0-1.7,3.2-3.3,6.1v0c-1,1.8-2.1,3.4-2.8,4.2c-1.8,2.1-6,4.5-7,4.7c-0.9,0.2-5.4,0.4-6.4-0.3
			c-0.7-0.5-3.7-6.3-5.7-10.4c-1-2-1.8-3.6-1.9-3.9c-0.4-0.9,0.3-3.7,0.3-3.7s1.3,0.3,2.6-0.7c1.2-1,2.3-2.9,2.3-2.9
			s2.1-0.9,2.9-0.9c0.3,0,0.8,0.2,1.4,0.5c0,0,0.1,0,0.2,0.1c0.8,0.4,1.6,0.8,2,0.9c0,0,0,0,0,0c0.6,0.1,9.5-1.5,9.5-1.5
			s1.6,1.7,3.2,3.7C261.5,69,262.7,70.6,263.2,71.7z"/>
		<path class="st17" d="M244.2,63.8v3.8l4.2,0.4l10.2-2.4l-9.4,1l-1.4-1.3C247.7,65.3,245.4,64.2,244.2,63.8z"/>
		<path class="st17" d="M263.2,71.7c0,0-4.3,8.3-6.1,10.4c-1.8,2.1-6,4.5-7,4.7c-0.9,0.2-5.4,0.4-6.4-0.3l7.6-2.9l1.6-1.1
			c0,0,6.5-5.6,8.2-9.2l-6.7,4.9l-5.7,2.1l4.2-3.3l4.3-6.6l-1-0.3l-6.7,1.1l-5.4-2.3l8.4,0.7l7.3-2.4l0.5,0.3
			C261.5,69,262.7,70.6,263.2,71.7z"/>
		<polygon class="st17" points="236.5,72.6 240,69.2 238.3,73.2 238,76 		"/>
		<path class="st2" d="M259.8,77.8L259.8,77.8c-1,1.8-2.1,3.4-2.8,4.2c-1.8,2.1-6,4.5-7,4.7c-0.9,0.2-5.4,0.4-6.4-0.3l7.6-2.9
			L259.8,77.8z"/>
		<polygon class="st18" points="241.3,69.2 242.3,73.2 242.1,82.4 		"/>
		<path class="st0" d="M257.7,64.3l6.9-4.4l0.6-0.8c0,0-2.9,1.1-7.9,4.6L257.7,64.3z"/>
		<polygon class="st0" points="263.2,71.7 265.1,70.1 265.8,70.4 262.4,73.2 		"/>
	</g>
</g>
<g>
	<path class="st0" d="M381.7,227.4c0,0,10,8.3,25.1,10.3l3.9-5.2l0.7,6.4c0,0,15.2-1.2,24.1-8.6l-10.9-47.8l-13.9-3.9
		C410.8,178.8,383.4,217.1,381.7,227.4z"/>
	<polygon class="st9" points="402.9,237.1 423.2,211.6 415.1,193.3 402,215.3 401.3,236.7 	"/>
	<path class="st0" d="M433.5,310.6c-0.4,2,1.8,5.7,1.6,6.9c-0.2,1.2-2,3.7-2,3.7V319c-5.3-7.8-13.8-5.5-13.8-5.5l-2.4,2.6
		c0,0-1.8-2.2-1.8-4.3c0-0.7,0.3-1.4,0.8-2.2c0.8-1.4,2-3,2.3-4.9c0.4-3.1,0.8-36.6,0.8-42.5c0-5.9-1-11.5-1.4-16.8
		c-0.3-4-0.1-20.7-0.5-30.7c-0.1-3.3-0.3-5.9-0.6-7.1c-1.2-4.9-2.1-8.6-2.1-8.6s-5.3,9.4-9.6,23.1c-4.3,13.7-5.5,30.3-4.1,32.9
		c4.4,8.1,10.6,28.8,10.2,31.1c-0.4,2.2-2.2,5.5-2.2,6.5c0,0.2,0.2,0.5,0.4,0.9l0,0c0.8,1.1,2.6,2.7,2.6,3.6c0,0.4-0.1,0.8-0.1,1.3
		c-0.2,1.1-0.5,2.3-0.5,2.3c3.1,8,3.3,16.2,3.3,16.2l-1.4,1c-6.7-7.4-15.7-7.8-15.7-7.8l-1.3,1.2c0,0-1.1-1.6-1.3-3.7
		c-0.2-2,1.3-3.5,1.3-3.5s-6.4-33.5-7.7-39.3c-1.2-5.7-2.9-9-3.1-11.9c-0.8-11.9,0.9-23.9,2.1-30.4c0.6-3,1-4.8,1-4.8
		c1.3-6.8,25.2-39.3,25.2-39.3l10.6,6.4l3.3,2c0,0,4.7,9.8,5.9,18c0.6,3.8,0.5,11.6,0.2,19.6c-0.3,9.5-0.8,19.3-0.8,22.9
		c0,6.7,1.6,16.6,2.5,25.6c0.8,9-1.4,25.2-1.6,26.6c-0.2,1.4,3.3,3.7,3.5,5.1c0,0.2,0,0.4-0.1,0.7
		C436.1,307,433.8,308.9,433.5,310.6z"/>
	<path class="st0" d="M397.1,310.2c0,0-4,5.3-11,9.1c-7.1,3.8-15.3,6.3-15.3,6.3s-0.9,0.9-1.2,3.4H400c0,0-0.9-2.9,2.5-3.5
		c3.4-0.6,3.2,3.5,3.2,3.5h8.6l-1.4-11C412.8,318,407,310.6,397.1,310.2z"/>
	<path class="st9" d="M411,300.8c0,0,0.3-1.2,0.5-2.3c-2.5,1.2-7.4,3.2-10.4,2.8c0,0,8.1,1.8,9.7,6c1.7,4.1,0.7,5.7,0.7,5.7
		s-9.2-9.8-17.1-5.1c0.2,2,1.3,3.7,1.3,3.7l1.3-1.2c0,0,9,0.4,15.7,7.8l1.4-1C414.2,317,414,308.8,411,300.8z M433.2,299.8
		c0.2-1.4,2.5-17.6,1.6-26.6c-0.8-9-2.5-18.8-2.5-25.6c0-3.7,0.5-13.4,0.8-22.9l-9.5-39.6l-10.6-6.4c0,0-23.8,32.5-25.2,39.3
		c0,0-0.4,1.8-1,4.8l0,0l12.1-4.8c0,0-0.9,19.3-1.7,27.1c-0.8,7.8-2.2,10.6-1.8,11.8c0.4,1.2,9.9,14.1,11.3,20.7
		c1.5,6.6-2.4,11-2.8,12.4c-0.5,1.4,4.7,3.5,4.7,3.5c-0.2-0.3-0.4-0.6-0.4-0.9c0-1,1.8-4.3,2.2-6.5c0.4-2.2-5.8-22.9-10.2-31.1
		c-1.4-2.7-0.2-19.2,4.1-32.9c4.3-13.7,9.6-23.1,9.6-23.1s1,3.7,2.1,8.6c0.3,1.2,0.5,3.8,0.6,7.1c3.8,10,10.3,28.4,12.9,41.3
		c3.7,18.6,4.1,37.1,3.3,39.9c-0.7,2.8-3.5,4.1-3.5,4.1s6.5,2.5,7,4.9C436.5,303.5,433,301.2,433.2,299.8z M433.5,310.6
		c0.3-1.8,2.6-3.7,3.2-5.1c-0.9,1.6-7.1,0.7-7.8,2.1c-0.8,1.5,4.5,5.2,4.4,7.2c0,0-15.3-7.7-17.4-5.2c-0.4,0.8-0.8,1.5-0.8,2.2
		c0,2,1.8,4.3,1.8,4.3l2.1-3.2c0,0,8.8-1.6,14.1,6.1v2.2c0,0,1.8-2.5,2-3.7C435.3,316.4,433,312.7,433.5,310.6z"/>
	<path class="st9" d="M385.4,255.5c0,0,3.3,1.5,6.4,0l-4.8,5C387.1,260.5,385.9,258.6,385.4,255.5z"/>
	<path class="st9" d="M416.2,309.2c0,0,5.6-0.7,17,5.7c0,0-5.3-6-9.3-7.6c-4-1.6-6.7,0-6.7,0L416.2,309.2z"/>
	<path class="st9" d="M394.4,307.8c0,0,7.6-4.9,17.1,5.1c0,0-4.1-6.5-8.6-8.5c-4.6-2.1-7.2-0.1-7.2-0.1S393.9,305.7,394.4,307.8z"/>
	<path class="st9" d="M394.4,313.4c0,0,6.9,3.1,8,7.7v2.3c0,0-3.1,1.4-6.6,2.6c-3.6,1.1-8.7,3.3-8.7,3.3l26-0.1
		c0,0,0.5-8.8-0.2-11.1c0,0-4.5-7.3-15.7-7.8L394.4,313.4z"/>
	<path class="st0" d="M418.9,312.9c0,0-0.5,3.6-8.2,7.4c-7.9,3.9-10.3,4.6-10.3,4.6s-1.7,1.5-2,4.1c0,0,15.3,0.6,27.6,0
		c0,0,2.4-1.9,4.7-2.3c2.3-0.5,1.9,0,1.9,0s1-4.8,0.4-7.7C433,319,431.6,312.7,418.9,312.9z"/>
	<path class="st0" d="M398.4,329c0,0,25.5,0.5,27.8-0.6c2.3-1.1,3.4-2.4,6.6-2.9l-0.7,3.4c0,0-8.4,0.4-11.4,0.3
		C417.8,329.1,398.4,329,398.4,329z"/>
	<path class="st15" d="M400.4,324.9c0,0,9.5,0.7,15.2,0c5.8-0.7,11.3-6.9,11.3-6.9s-5-3.9-10.1-1.9
		C416.9,316.1,409.4,322.2,400.4,324.9z"/>
	<path class="st0" d="M374.4,216.3c0,0,1.8-0.2,2-1.5c0.2-1.4-3.5-5.7-3.5-5.7s2.3-6.6,3.5-8.3c1.1-1.7-0.8-6.7-0.8-6.7l-4.9,2.5
		l-2.3,8.6C368.5,205.2,373.3,215.4,374.4,216.3z"/>
	<path class="st0" d="M372.2,181.3c0,0-2.9,9.8-3.4,12c-0.5,2.1-2,11.8-1.8,14.3c0.2,2.5,6.9,11.3,7.4,10.4c0.5-0.9,1.1-3.1,0-4.7
		c-1.1-1.6-3.3-4.8-3.4-6.9c-0.1-2.1,1.8-8.5,4-10.2c0,0,0.8,3.4,0.4,5.3c0,0-1.5,1.7-1.9,3.7c-0.4,2,0.8,5.6,1.3,6.1
		c0.5,0.5,1.8,0.2,2.3-0.5c0.5-0.8,0.4-6,1.1-7.6c0.8-1.6,3.1-5.1,3.5-6.7c0.5-1.5-2.1-9.7-2.1-9.7S374.7,181.2,372.2,181.3z"/>
	<path class="st4" d="M368.6,194.5c0,0,6.3-3.8,12-4.2l-0.5-1.7l-10.2,0.8C369.9,189.3,369.1,191.7,368.6,194.5z"/>
	<path class="st0" d="M368.6,185.4c0,0,7.4,5.1,14.5,3.9c0,0-7.6-8.7-14.5-8l-1.6,0.8L368.6,185.4z"/>
	<path class="st0" d="M395.7,132.1c0,0-4,12.3-5,16.9c-1,4.6-0.4,14-2.2,19.8c-1.7,5.8-5.6,17.9-5.6,17.9l0.2,2.6
		c-4.9-4-14.4-8-15-7.3c-0.6,0.7,0.4,3.1,0.5,3.4c-0.2-0.3-1.6-2.4-1.6-3.2c0-0.9,3.8-4.1,3.8-4.1s4-13.3,7.1-26.1
		c0.1-0.3,0.2-0.7,0.2-0.9c0-0.2,0.1-0.4,0.1-0.5c0.1-0.3,0.1-0.5,0.2-0.7c0-0.2,0.1-0.3,0.1-0.3v0c0,0,0,0,0,0
		c1.1-4.5,2-8.9,2.5-12.5c2.1-14.2,3.1-30,3.4-32.4c0.3-2.3,2.9-4.7,2.9-4.7l7.8,16.8l0.6,13.6L395.7,132.1z"/>
	<path class="st0" d="M370.9,182.6l-2.5,6.7c0,0,7.8,1.1,12.9-1.3C381.4,188,374.9,183.1,370.9,182.6z"/>
	<path class="st5" d="M395.7,132.1c0,0-4,12.3-5,16.9c-1,4.6-0.4,14-2.2,19.8c-1.7,5.8-5.6,17.9-5.6,17.9
		c-3.8-7.8-12.2-8.7-12.2-8.7s4-13.3,7.1-26.1c-0.8,3.6-2.1,10-1.1,10.2c1.4,0.4,12.4-10.6,13.7-19.8c1.2-9.2,1.7-28.5,1.7-28.5
		l3.5,16.4L395.7,132.1z"/>
	<polygon class="st0" points="454.4,207.1 455.9,216.3 447.8,218 446.7,205.2 	"/>
	<path class="st0" d="M447.8,191.3v2c0,0,6.6,1.8,13.2,0l-1.4-5.2L447.8,191.3z"/>
	<path class="st0" d="M438,226.5c0.2,1.2-2.6,11.6-10.2,15.3c0,0-5.1-15.7-9.3-31.6c-2.7-10.1-5-20.2-5.5-26.3l-29.8,41.6
		c-0.2,0.3-0.5,0.6-0.6,0.9c-0.5,0.6-0.7,1-0.8,1.1l0,0c0,0,3.3-21.3,7.6-39.5c0.6-2.6,1.3-5.1,1.9-7.6c0,0,0,0,0,0v0
		c1.3-4.8,2.7-9.2,4-13c2.6-7.7,4.7-12.7,4.7-12.7s-1.8-1.4-1.4-2.8c0.1-0.4,0.3-0.7,0.5-0.8h0c0.5-0.4,1.1-0.3,1.1-0.3l0-0.1
		l-5-21.9c-0.2-0.7-0.4-1.4-0.5-2.1c-0.3-1.1-0.5-2.2-0.8-3.3c-0.1-0.6-0.3-1.2-0.4-1.8c-0.1-0.6-0.3-1.2-0.4-1.8
		c0-0.1-0.1-0.3-0.1-0.4c-0.1-0.5-0.2-1-0.3-1.4c0-0.1,0-0.2-0.1-0.3c-0.2-0.9-0.3-1.5-0.4-1.8c0,0,0-0.1,0-0.1l0,0l0,0
		c0,0,0-0.1,0-0.1c-1.7-9.9-4.8-15.8-4.8-15.8s11.1-8.4,21.1-10c10.1-1.6,18.7,3.3,18.7,3.3s2.7,0.5,5.9,1.1
		c2.8,0.5,5.9,1.2,8.1,1.6c0.9,0.2,1.7,0.4,2.1,0.5c1.5,0.4,2.3,1.4,2.8,2.4c0.6,1,0.7,2,0.7,2s-7.2,23.3-9.8,32
		c-2.7,8.7-4.3,12.6-4.7,20.5c-0.4,7.8,0,29.5,0,29.5l2,3.5l-1.8,3.1l3.5,35.1C435.9,224.3,437.7,225.3,438,226.5z"/>
	<path class="st0" d="M446.7,100.7c0,0-0.1,0.3-0.3,0.8c-0.2,0.7-0.5,1.7-0.9,3c-2.1,7-6.6,21.6-8.6,28.1
		c-2.7,8.7-4.3,12.6-4.7,20.5c-0.4,7.8,0,29.5,0,29.5l2,3.5l-1.8,3.1l3.5,35.1c0,0,1.8,1,2,2.1c0.2,1.2-2.6,11.6-10.2,15.3
		c0,0-5.1-15.7-9.3-31.6c-2.7-10.1-5-20.2-5.5-26.3l-29.8,41.6c-0.2,0.3-0.5,0.7-0.6,0.9c-0.5,0.6-0.7,1-0.8,1.1
		c0.1-0.6,3.3-21.5,7.6-39.4c0.6-2.6,1.3-5.1,1.9-7.6c0,0,0,0,0,0v0c1.3-4.8,2.7-9.2,4-13c2.6-7.7,4.7-12.7,4.7-12.7
		s-1.8-1.4-1.4-2.8c0.1-0.4,0.3-0.7,0.5-0.8h0c0.5-0.4,1.1-0.3,1.1-0.3l0-0.1l-5-21.9c-0.2-0.7-0.4-1.4-0.5-2.1
		c-0.3-1.1-0.5-2.2-0.8-3.3c-0.1-0.6-0.3-1.2-0.4-1.8c-0.1-0.6-0.3-1.2-0.4-1.8c0-0.1-0.1-0.3-0.1-0.4c-0.1-0.5-0.2-1-0.3-1.4
		c0-0.1,0-0.2-0.1-0.3c-0.2-0.9-0.3-1.5-0.4-1.8c0,0,0-0.1,0-0.1l0,0l0-0.1c0,0,0-0.1,0-0.1c-1.7-9.9-4.8-15.8-4.8-15.8
		s11.1-8.4,21.1-10c10.1-1.6,18.7,3.3,18.7,3.3s2.7,0.5,5.9,1.1c0.8,0.2,1.6,0.3,2.4,0.5c2.1,0.4,4.1,0.8,5.7,1.2
		c0.9,0.2,1.6,0.4,2.2,0.5c1.5,0.4,2.3,1.4,2.8,2.4C446.6,99.8,446.7,100.7,446.7,100.7z"/>
	<path class="st0" d="M420.6,80.6c0,0-1.4,6.5-1.4,13.3v2.2c0,0-6.3,11-7.4,13.9c-1.1,2.9-1.7,8.7-1.7,8.7s-7.7-17.9-7-25.1l5.2-3.2
		c0,0,1.9-16.2,3.5-21.1L420.6,80.6z"/>
	<path class="st19" d="M413,157.6c0.4,3.2,4,38.2,5.5,52.5c-2.7-10.1-5-20.2-5.5-26.3l-29.8,41.6c3.3-4.6,11.2-15.8,14-20.2
		c3.6-5.6,13.8-21.5,15.5-25.1c1.6-3.6-2-44.8-2-44.8l-15-29.9l10.1,7.5L433,94.2l0.2-0.2l7.9,1.8c0,0-28.6,17.9-30.1,20.9
		c-1,2,1.8,27.8,1.8,27.8S412.6,153.5,413,157.6z"/>
	<path class="st9" d="M446.7,100.7c0,0-7.2,23.3-9.8,32c-2.7,8.7-4.3,12.6-4.7,20.5c-0.4,7.8,0,29.5,0,29.5s-2-4.5-4.2-12.3
		c-2.2-7.8-2.9-13.9-2.9-13.9s-2.8,0.7-9.9,2.4c-7.1,1.7-14.9-2.5-14.9-2.5c-1.7,1.5-7.6,19.5-8.8,23.3l3.8-12.3
		c2.6-7.7,4.7-12.7,4.7-12.7s-1.8-1.4-1.4-2.8c0.1-0.4,0.3-0.7,0.5-0.8l-0.5,0.8c9.1,5.5,20.1,1.6,21.4,1.4
		c-12.3,2-19.8-2.5-19.8-2.5l0-0.1l-5-21.9c1.3,5.2,2.8,10.1,3.9,11c2.5,2,28.1-2.6,30.4-5.3c2.3-2.7,5.4-15.2,5.4-15.2
		c5.6-13.3,11.3-20.5,11.3-20.5C446.6,99.8,446.7,100.7,446.7,100.7z"/>
	<path class="st0" d="M437.6,66.8L437.6,66.8c-0.1,0.9-0.4,1.9-0.7,3c-1.5,5-4.8,11.8-7.2,12.5c-1.3,0.4-3.4,0.3-5.6-0.3
		c-0.1,0-0.2,0-0.2,0l0,0c-0.2-0.1-0.3-0.1-0.5-0.2c0,0,0,0,0,0c-3.1-1-6.4-2.8-8.4-5.3c-0.4-0.5-0.7-1-1.1-1.6v0
		c-0.7-1.2-1.4-2.7-2-4.2c-2-5-3.5-10.5-3.5-10.5s-1.5-12.3-0.1-15.7c0-0.1,0.1-0.2,0.1-0.3c0.4-0.6,1.4-1.4,2.9-2.1
		c5-2.6,15.1-5,19.9-1.9c2.5,1.5,2.5,5.6,2.8,8.5c0.3,2.9,0,9.4,0,9.4s0.3,0.4,0.8,1c0.6,0.7,1.3,1.9,1.9,3.1h0c0.5,1,0.8,2,0.9,3.1
		C437.7,65.6,437.7,66.1,437.6,66.8z"/>
	<path class="st0" d="M437.6,66.7L437.6,66.7l-0.7,3c-1.5,5-4.8,11.8-7.2,12.5c-1.5,0.5-3.8,0.2-6.4-0.6c0,0,0,0,0,0
		c-3.1-1-6.4-2.8-8.4-5.3c-1.1-1.4-2.2-3.5-3.1-5.8l0-1.3l-1.5-5.6l1.4,0.4c0,0,1.6,2.8,4.1,3.9s8.4-3.3,12.8-3.3
		C432.9,64.7,437.6,66.7,437.6,66.7z"/>
	<path class="st3" d="M434.8,58.9c0,0-2.8,1.7-4.2-1.4c0,0,0.2-7.6,1.7-10.3c0,0-2-3.3-6.9-1.8l0.2,13c0,0-2.4,3.4-9.4-1.3
		c0,0-1.8,5.3-1.3,11.1c0.5,5.8,3,10.6,8.4,13.6c-3.1-1-6.4-2.8-8.4-5.3c-3.5-4.4-6.5-16.4-6.5-16.4s-1.5-12.3-0.1-15.7l3-2.4
		c5-2.6,15.1-5,19.9-1.9c2.5,1.5,2.5,5.6,2.8,8.5c0.3,2.9,0,9.4,0,9.4S434.3,58.3,434.8,58.9z"/>
	<path class="st0" d="M439.4,37.9l1,0.1c0,0-0.2,0.4-0.5,1c-1,1.8-3.4,5.6-6.1,7.1l-1-4.8c0,0-1.2,0.8-4.3,0.8
		c-3.1,0-7.5-2.1-10.4-1.6c-3,0.5-6.2,3-6.2,3s0.7,3.2,3,4.1c0,0-1.8,3.2-3.7,4.3c-1.8,1.1,0.6,12.4,0.6,12.4H409
		c0,0-1.9-5.6-5.3-11.2c0,0-0.7-2.5,1-4.5l-1.2-3.9c0,0,0,0,0,0c0.6-0.6,8.7-8.2,17-10.4c8.6-2.2,10.5-1.2,10.5-1.2
		s-1.4,1.9-2.7,2.9c0.9-0.5,2.8-1.3,5.8-1.4c4.4-0.1,7,1.7,7,1.7L439.4,37.9z"/>
	<path class="st0" d="M419.1,96.2c0,0-5.3,9.7-7,13c-1.7,3.3-2.1,9.6-2.1,9.6l0,0c-0.4-0.9-7.7-16.1-6.9-25.1l5.3-3.8
		c0,0,0.6-4.8,1-7.4c0,0,5.5,2.8,10.7,1.2C420,83.7,418.7,92.8,419.1,96.2z"/>
	<path class="st0" d="M411.5,134.8c0,0-2.4-8.1-3.8-12.1c-1.4-4-16.2-22.3-17.4-24.9c-1.2-2.6-2.2-5-2.2-5s9.9-9.3,19.6-13.6
		c0.8-0.4,1.6-0.7,2.4-0.9l-1.7,12.3c0,0-4.3,2.1-5.2,3.2c0,0,0.6,6.8,2.1,11.8c1.1,3.6,3.2,9.2,4.2,11.8c0.4,1,0.6,1.6,0.6,1.6
		s0.1,3.9,0.3,6.5C410.6,127.9,411.5,134.8,411.5,134.8z"/>
	<path class="st0" d="M434.2,95.2c0,0-17.8,10.7-20.4,13.5c-2.7,2.8-3.7,10-3.7,10s0-6.7,1.5-9.6c1.5-2.9,7.6-13,7.6-13
		c-1.1-6.1,1.3-14.9,1.3-14.9c4.1,2.6,9.2,8.4,11.9,11.7C433.5,94.3,434.2,95.2,434.2,95.2z"/>
	<path class="st0" d="M462.1,189.2c-6.3,3.3-16,1.6-16,1.6s-0.4-20.4-2.6-32.9c-1.2-6.6-3-13.4-4.4-18.2c-1.2-4.3-2.2-7.1-2.2-7.1
		s-0.8-9.7,0.7-19.3c1.1-6.6,4.7-11.1,6.8-13.2c0.9-1,1.6-1.4,1.6-1.4c0.1,0.6,0.2,1.6,0.4,2.8c1.3,8.8,4.9,31.6,5.8,36.1
		c1,5.2,6.5,14.1,7.8,21c0.1,0.6,0.2,1.4,0.3,2.3l0.3,2.7l0,0.1l0,0.2c0.2,2.2,0.4,4.8,0.6,7.4C461.8,180,462.1,189.2,462.1,189.2z"
		/>
	<path class="st0" d="M447.8,193.3c0,0-2.8,1.5-4.2,3.9c-1.4,2.5-2.1,8.5-1.8,9.6c0.3,1.1,1.1,2.1,1.1,2.1s0.5-4.3,1.9-5.4
		c1.4-1.1,5.4-0.2,5.4-0.2l-0.7,9.4c0,0,5.8-0.3,9-2.1c0,0,1.5-10.7,0.8-17.3H447.8z"/>
	<path class="st0" d="M437.6,66.8L437.6,66.8c-0.1,0.9-0.4,1.9-0.7,3c-1.5,5-4.8,11.8-7.2,12.5c-1.3,0.4-3.4,0.3-5.6-0.3
		c1,0.2,4.4,0.9,6.2-0.7c2.2-1.8,6.5-12.6,6.1-16.3c-0.4-3.7-2.5-6.6-2.5-6.6c0.3-3.1,0.1-9.8,0.1-9.8c0.3,2.9,0,9.4,0,9.4
		s0.3,0.4,0.8,1c1,1.3,2.6,3.8,2.9,6.2C437.7,65.6,437.7,66.1,437.6,66.8z"/>
	<path class="st0" d="M445,203c0,0-3.5,3.9-3.2,13.3l7.6-0.6c0,0,0.3-8.4,1.6-12.7C451,203,448.2,201.6,445,203z"/>
	<path class="st0" d="M436.7,216.3c0,0-0.7,28.1,2.7,44.3h11.2l8.8-3.6c0,0,3.4-26.6,3.6-40.7l-13.6-1L436.7,216.3z"/>
	<path class="st0" d="M447.4,215.7c0,0,4,30.3,3.2,44.9l8.8-3.6c0,0,3.6-22.6,3.6-40.7L447.4,215.7z"/>
	<path class="st0" d="M417.3,50.6c0,0,2.4-4.7,8.2-6.1c0,0,0.3,1.5-0.5,2.9c0,0-2.3,0.3-4.3,1.3C418.8,49.6,417.3,50.6,417.3,50.6z"
		/>
	<path class="st0" d="M425,57.4c0,0.1-0.1,0.1-0.1,0.2c0,0,0,0,0,0c-0.3,0.7-1.2,1.8-2.8,1.5c-1.8-0.3-3.3-2.1-3.2-3
		c0.4-2.3,2.6-3.4,4.2-3.6c0,0,0.1,0,0.1,0c0.2,0,0.3,0,0.5,0c0.5,0,0.9,0.1,1.1,0.3c0.1,0.1,0.1,0.2,0.1,0.4c0,0,0,0,0,0
		c0.2,0.5,0.2,1.3,0.3,2.1c0,0,0,0.1,0,0.2v0C425.2,56.3,425.1,57.1,425,57.4z"/>
	<path class="st0" d="M434.2,56.6c0,0.4-0.1,0.9-0.2,1.2h0c-0.1,0.6-0.3,1-0.6,1c-0.9,0.2-2.9-0.5-3.1-2.3c-0.3-2.6,1.8-4.2,3-4.3
		c0,0,0.1,0,0.1,0h0c0,0,0.1,0,0.1,0c0.2,0,0.4,0.1,0.5,0.2c0,0,0,0,0,0.1c0.1,0.2,0.2,0.7,0.2,1.2
		C434.4,54.6,434.3,55.7,434.2,56.6z"/>
	<path class="st0" d="M425,57.4c0,0.1-0.1,0.1-0.1,0.2c0,0,0,0,0,0c-0.4,0.5-0.8,0.7-1.4,0.7c-1.1,0-2.1-1.3-2.1-2.9
		c0-1.4,0.7-2.6,1.6-2.9c0,0,0.1,0,0.1,0c0.1,0,0.2,0,0.4,0c0,0,0.1,0,0.1,0c0.5,0,0.9,0.3,1.2,0.7c0,0,0,0,0,0
		c0.2,0.5,0.2,1.3,0.3,2.1c0,0,0,0.1,0,0.2v0C425.2,56.3,425.1,57.1,425,57.4z"/>
	<path class="st0" d="M425.2,55.4L425.2,55.4c0,1.1-0.6,1.9-1.3,1.9c-0.7,0-1.3-0.8-1.3-1.9c0-1,0.6-1.9,1.3-1.9
		c0.7,0,1.3,0.8,1.3,1.7C425.2,55.3,425.2,55.3,425.2,55.4z"/>
	<path class="st0" d="M434.2,56.6c0,0.4-0.1,0.9-0.2,1.2h0c-0.2,0.1-0.3,0.2-0.5,0.2c-0.8,0-1.4-1.3-1.4-2.9c0-1.4,0.5-2.6,1.1-2.9
		c0,0,0,0,0.1,0c0,0,0.1,0,0.1,0c0,0,0.1,0,0.1,0h0c0,0,0.1,0,0.1,0c0.2,0,0.3,0.1,0.5,0.2c0,0,0,0,0,0.1c0.1,0.2,0.2,0.7,0.2,1.2
		C434.4,54.6,434.3,55.7,434.2,56.6z"/>
	<path class="st0" d="M434.2,56.6c-0.2,0.2-0.3,0.3-0.5,0.3c-0.5,0-0.9-0.8-0.9-1.9c0-1,0.4-1.9,0.9-1.9c0.2,0,0.4,0.2,0.6,0.5
		C434.4,54.6,434.3,55.7,434.2,56.6z"/>
	<path class="st0" d="M418.9,56.2c0,0,0.9-2.3,3.2-2.9c2.3-0.7,2.8,0.4,2.8,0.4s0.7-0.9,0.6-1.5c-0.1-0.5-2.1-0.5-4,0.5
		C419.9,53.6,418.9,55.7,418.9,56.2z"/>
	<path class="st0" d="M430.6,55.1c0,0,0.9-1.8,2.2-2.3c1.2-0.4,1.5,0.4,1.5,0.4s0.6-1,0.6-1.4c0-0.4-1.6-0.2-2.6,0.5s-1.5,2-1.5,2
		L430.6,55.1z"/>
	<g>
		<path class="st0" d="M434.8,63.8c0,0-5.3-1.1-8,0.4c0,0,1.9,1.6,3.7,1.9C430.6,66.1,433.6,66,434.8,63.8z"/>
		<path class="st0" d="M429.4,65.7c0,0-1.1-1.9-2.6-1.6C426.9,64.2,428.2,65.4,429.4,65.7z"/>
		<path class="st0" d="M426.9,64.2c-0.3,0.1,0.1-2.2,0.8-2.6c0.6-0.5,2.5-1.4,4.5-0.7c1.9,0.8,2.7,2.9,2.7,2.9
			S429.6,62.8,426.9,64.2z"/>
		<path class="st0" d="M432.1,48.4c0,0-1.8,6.7-1,9.8c0.4,1.3,2.7,3.8,2.7,3.8s-2.5-1.7-3.2-3.7c-0.7-2-0.3-7.1-0.3-7.1L432.1,48.4z
			"/>
		<path class="st0" d="M427.1,62c0,0-0.5,0.9-0.3,2.2C426.9,64.2,425.4,63.6,427.1,62z"/>
	</g>
	<path class="st0" d="M433.7,45.5c0,0-1.4,1.5-2.2,2.9c-0.8,1.4-1.1,2.8-1.1,2.8s1.2-2.1,3.6-2.7C434,48.5,434.4,46.6,433.7,45.5z"
		/>
	<path class="st0" d="M424.6,68.1c0,0,3.2,2.6,6.6,2.4c0,0-1.1,0.4-2.8,0.3C426.7,70.7,424.6,68.1,424.6,68.1z"/>
	<path class="st4" d="M411.1,72.4c0,0,4,9.4,8.6,12.6l1-4.3c0,0-7.1-2.1-8.8-11.2L411.1,72.4z"/>
	<path class="st0" d="M439.9,39c-1,1.8-3.4,5.6-6.1,7.1l-1-4.8c0,0-1.2,0.8-4.3,0.8c-3.1,0-7.5-2.1-10.4-1.6c-3,0.5-6.2,3-6.2,3
		s0.7,3.2,3,4.1c0,0-1.8,3.2-3.7,4.3c-1.8,1.1,0.6,12.4,0.6,12.4H409c0,0-1.9-5.6-5.3-11.2c0,0,3.7-1.7,6.3-4.5l-5.3,0l-1.2-3.9
		c0,0,0,0,0,0c0.9-0.7,15.5-11.6,27.5-11.6l-3.4,3.4l0,0c0,0,8.6-0.3,11.7,1.6l-4.6,1.5C434.8,39.4,438,39.6,439.9,39z"/>
	<path class="st0" d="M409.5,62.4c0,0-2.8-1.6-6.2-1.4c0,0-2,2.1-1.4,6.1c0.7,4,7.3,6,8.4,5.4c1.1-0.6,1.5-3.2,1.5-3.2
		S411.1,63.1,409.5,62.4z"/>
	<path class="st0" d="M410.2,65.2c0,0-2.1-2.4-6.7-1.6c0,0-0.6,1.1-0.2,3.8c0.4,2.6,2.6,3.5,2.6,3.5s-1.9-1.5-2-3.8
		c-0.1-2.3-0.1-2.3-0.1-2.3s1.9-0.6,4.3,0.7c2.4,1.3,2.4,3.3,2.4,3.3S411.1,66.7,410.2,65.2z"/>
	<path class="st0" d="M405.8,64.1c0,0,0,1.2,0.8,3c0.9,1.8,2.8,1.1,2.8,1.1s-1.8,0.7-2.2-1.1c-0.4-1.7,0.5-2.4,0.5-2.4L405.8,64.1z"
		/>
	<path class="st5" d="M409.4,117.2l0,0.2c0,0,0,0.1-2.6-1.6c-2.6-1.7-12.4-16.2-13.5-18c-1.1-1.8-2.9-3.7-2.9-3.7l-2.5-1.4l3.2-0.2
		c0,0,6.6-5.9,7.9-6.7c1.2-0.8,9.8-5.7,9.8-5.7l-1.3-0.9c0.8-0.4,1.6-0.7,2.4-0.9l-1.7,12.3c0,0-4.3,2.1-5.2,3.2
		c0,0,0.6,6.8,2.1,11.8C406.4,109,408.4,114.5,409.4,117.2z"/>
	<path class="st5" d="M432.3,92.9c0,0-3.1,2.8-7.2,5.8c-4.1,3-13.6,10.4-13.6,10.4c1.5-2.9,7.6-13,7.6-13
		c-1.1-6.1,1.3-14.9,1.3-14.9c2,1.3,4.2,3.3,6.2,5.4C428.9,88.9,430.9,91.3,432.3,92.9z"/>
	<path class="st19" d="M426.7,86.6l-7.6,9.5c-1.1-6.1,1.3-14.9,1.3-14.9C422.4,82.5,424.6,84.5,426.7,86.6z"/>
	<polygon class="st19" points="403.1,93.6 409.9,79 408.3,90.4 	"/>
	<path class="st19" d="M419.1,96.2c0,0-5.3,9.7-7,13c-1.7,3.3-2.1,9.6-2.1,9.6l0,0l-2.3-6.2c4.3-6.2,12.3-28.8,12.3-28.8
		S418.7,92.8,419.1,96.2z"/>
	<path class="st19" d="M392.1,115.8l3,13C393.6,122.9,392.3,116.8,392.1,115.8z"/>
	<path class="st9" d="M462.1,189.2c-6.3,3.3-16,1.6-16,1.6s-0.4-20.4-2.6-32.9c-1.2-6.6-3-13.3-4.4-18.2c0,0,4.5,10.5,6,15.3
		c0.8,2.5,6.6,27.7,10.1,31c2.3,2.2,5.1-5.6,6-14.7C461.8,180,462.1,189.2,462.1,189.2z"/>
	<path class="st0" d="M410.4,178.2c-1.1-0.8-4.4,3.6-2.9,4.3C408.9,183.3,411.8,179.4,410.4,178.2z"/>
	<path class="st0" d="M408.7,141.2c-1.4-0.1-1.7,5.4-0.1,5.2C410.2,146.2,410.5,141.3,408.7,141.2z"/>
	<path class="st19" d="M413,183.8l2.2-5.1l3.3,31.4C418.5,210.1,412.9,191.1,413,183.8z"/>
	<path class="st4" d="M448.1,193.3l11.3,4.3l-0.2-4.3C459.2,193.3,450.5,192.9,448.1,193.3z"/>
	<path class="st0" d="M445,203c0,0,0.9-1.8,4.8-2.2l1.2,2.2C451,203,448.1,201.8,445,203z"/>
	<path class="st0" d="M450.6,204.7c0,0,0.2,5.5,0.4,5.9s1.9,0.6,2.5,0.7c0.6,0.1,2.7,0.2,4.9-0.7c0,0-2.2,1.7-8.8,2.1
		C449.6,212.7,449.8,206.2,450.6,204.7z"/>
	<path class="st0" d="M441.8,260.5c0,0,2-10.4,3.3-11.9c1.3-1.5,3.1,11.9,3.1,11.9H441.8z"/>
	<path class="st0" d="M449.4,215.3c0,0,3.9,14.8,7.3,17.9c3.4,3.1,5.4,0.8,5.4,0.8l-0.1-2.1c0,0-2.7,3.2-6.1-1.4
		c-3.4-4.6-6.1-14.7-6.1-14.7L449.4,215.3z"/>
	<path class="st9" d="M424.1,175.1c0,0,4.1,10.4,9.8,11.6l-1.5,2.5C432.4,189.2,427.6,186.3,424.1,175.1z"/>
	<path class="st0" d="M428.4,35.8c0,0,7.1-1.7,11.7,1.4l1-1C441.1,36.1,435.3,32.4,428.4,35.8z"/>
	<path class="st0" d="M460.7,163.9c0,0,0-0.1,0-0.2L460.7,163.9z"/>
	<g>
		<path class="st8" d="M437.6,66.8L437.6,66.8c-0.1,0.9-0.4,1.9-0.7,3c-1.5,5-4.8,11.8-7.2,12.5c-1.3,0.4-3.2,0.3-5.4-0.3
			c-0.1,0-0.1,0-0.2,0c-0.1,0-0.2,0-0.2,0l0,0c-0.2-0.1-0.3-0.1-0.5-0.2c0,0,0,0,0,0c-3.1-1-6.4-2.8-8.4-5.3c-0.3-0.4-0.6-0.9-1-1.4
			c0-0.1-0.1-0.1-0.1-0.2v0c0,0,0,0,0,0c0.6-3.3,1.1-7.5,0-12.8c0,0,0.5,0.1,1.2,0.2c2.6,0.3,8.4,0.9,10.1-0.2
			c2.8-1.8,5.1-2.4,6.1-2.4c0.3,0,0.5,0,0.6,0c0,0,0,0,0,0c0,0,0,0,0,0c0.4,0.3,2.3,1.5,3.7,2c0.4,0.2,0.8,0.3,1.1,0.3
			c0.2,0.4,0.4,0.8,0.5,1.3c0,0.1,0.1,0.3,0.1,0.4c0,0.1,0,0.2,0.1,0.2c0,0.1,0.1,0.3,0.1,0.4c0.1,0.3,0.1,0.5,0.1,0.8
			C437.7,65.6,437.7,66.1,437.6,66.8z"/>
		<path class="st0" d="M437.6,66.8L437.6,66.8c-0.1,0.9-0.4,1.9-0.7,3c-1.5,5-4.8,11.8-7.2,12.5c-1.3,0.4-3.2,0.3-5.4-0.3
			c1.2,0.3,4.3,0.7,6-0.7c2.2-1.8,6.5-12.6,6.1-16.3c-0.1-1.2-0.4-2.3-0.8-3.2c0.4,0.2,0.8,0.3,1.1,0.3c0.2,0.4,0.4,0.8,0.5,1.3
			c0,0.1,0.1,0.3,0.1,0.4c0,0.1,0,0.2,0.1,0.2c0,0.1,0.1,0.3,0.1,0.4c0.1,0.3,0.1,0.5,0.1,0.8C437.7,65.6,437.7,66.1,437.6,66.8z"/>
		<path class="st0" d="M433.8,62c-0.2-0.1-1.6-1.1-2.5-2.4c0.3,0,0.5,0,0.6,0c0,0,0,0,0,0c0,0,0,0,0,0
			C432.7,60.7,433.7,61.8,433.8,62z"/>
		<path class="st0" d="M413.9,74.8c0,0-1.3-1.8-2.2-5.1l0.1-0.3c0.8,2.5,2.1,5,2.1,5L413.9,74.8z"/>
		<path class="st0" d="M413.9,62c0,0-2.1,0.9-3.3,1.9l0.1,0.2c1.6-1.2,3.2-1.9,3.2-1.9L413.9,62z"/>
		<path class="st0" d="M436.7,62.1c-2.5,0-4-2.2-4.8-2.2c-4.1-0.1-5.4,2.3-8,2.8c-4.3,0.8-8.8-0.6-8.8-0.6c2.6,0.3,8.4,0.9,10.1-0.2
			c2.8-1.8,5.1-2.4,6.1-2.4c0.3,0,0.5,0,0.6,0c0,0,0,0,0,0c0,0,0,0,0,0c0.4,0.3,2.3,1.5,3.7,2C436,61.9,436.4,62,436.7,62.1z"/>
		<path class="st8" d="M419.7,74.3c1.5-0.1,3-0.4,4.4-1c-1.4,0.4-2.9,0.6-4.4,0.5c-1.2,0-2.4-0.2-3.6-0.5c-0.6-1.6-1-3.4-1.2-5.3
			c0-0.1,0-0.3,0-0.4c0.7,0.3,1.2,0.5,1.9,0.6c0.8,0.2,1.6,0.3,2.4,0.3c0.8,0.1,1.6,0.1,2.4,0.1c0.8,0,1.6-0.1,2.4-0.1
			c-0.8,0-1.6-0.1-2.4-0.1c-0.8-0.1-1.6-0.2-2.4-0.3c-0.8-0.1-1.6-0.3-2.3-0.6c-0.7-0.2-1.5-0.5-2.1-0.9c0,0-0.1-3.1,0.1-4.6
			c-0.8-0.1-1.2-0.2-1.2-0.2c1.1,5.3,0.6,9.5,0,12.8c0,0,0,0,0,0c0,0.1,0.1,0.1,0.1,0.2c0.3,0.5,0.6,1,1,1.4
			c1.9,2.4,5.2,4.3,8.4,5.3c-3.3-1.9-5.5-4.4-6.8-7.4c0.3,0,0.6,0,0.9,0.1C418.2,74.4,418.9,74.4,419.7,74.3z"/>
		<path class="st0" d="M434.8,63.8c0,0-5.3-1.1-8,0.4c0,0,1.9,1.6,3.7,1.9C430.6,66.1,433.6,66,434.8,63.8z"/>
	</g>
</g>
<g>
	<g>
		<path class="st0" d="M707.8,86.5c0,0-1.1,20.6,3.8,29.1c4.9,8.5-12.3,5.5-12.3,5.5l-23.4-2c0,0-4.3-8.6-2.8-15.3
			c1.5-6.6,4.6-19,4.6-19s19.3,3.4,21.6,6.1C701.6,93.7,707.8,86.5,707.8,86.5z"/>
		<path class="st0" d="M707.1,112.5v25.3c0,0,3.3,7.4,6.8,11.6c0.3,0.4,0.7,0.8,1.1,1.2c3.9,3.9,10.8,2.6,10.8,2.6
			c-0.8-2.9-6.3-9.4-8.8-16.4c-0.4-1.1-0.7-2.3-1-3.6c-1.6-6.7-2.1-14.7-3.3-16C711.4,115.9,707.1,112.5,707.1,112.5z"/>
		<path class="st9" d="M707.1,112.5v25.3c0,0,3.3,7.4,6.8,11.6l1.9-15.8l0.2-0.4c-1.6-6.7-2.1-14.7-3.3-16
			C711.4,115.9,707.1,112.5,707.1,112.5z"/>
		<path class="st0" d="M692.8,315.9l2.6,12.2h2.4l-0.4-9.8c0,0,3.4,0,6.7,2.2c3.4,2.2,6.3,7.3,6.3,7.3c3.2,0.5,13.5,0,13.5,0
			s-0.5-1.3-1.1-2.3c-0.6-1-5.2-1.7-8.7-5.2c-3.5-3.5-9.2-13.1-9.2-13.1s1.9-0.8,1.9-1.6c0-0.8-1.9-2.8-1.9-2.8
			c0.4-3.2,1.2-7.4,2.3-12.1c0,0,0,0,0,0c3.4-15.8,9.2-36.4,9.2-36.4c-0.8-5-8.5-16.5-8.5-16.5s-7,13.3-8.5,19.8
			c-0.9,4-1.8,20.4-2.5,32.6c-0.4,7.8-0.7,13.8-0.7,13.8C694.5,307.7,692.8,315.9,692.8,315.9z"/>
		<path class="st0" d="M692.8,315.9l2.6,12.2h2.4l-0.4-9.8c0,0,3.4,0,6.7,2.2c3.4,2.2,6.3,7.3,6.3,7.3c3.2,0.5,13.5,0,13.5,0
			s-0.5-1.3-1.1-2.3c-0.6-1-5.2-1.7-8.7-5.2c-3.5-3.5-9.2-13.1-9.2-13.1s1.9-0.8,1.9-1.6c0-0.8-1.9-2.8-1.9-2.8
			c0.4-3.2,1.2-7.4,2.3-12.1c-0.2,0.1-4.2,1-8.6-2.6l-1.6,2c-0.4,7.8-0.7,13.8-0.7,13.8C694.5,307.7,692.8,315.9,692.8,315.9z"/>
		<path class="st0" d="M689,96.8c0,0,2.7,4.9,3.6,9.8c0,0,1.8,3.4,6.7,3.2c0,0-2-5-2.1-9.5C697,95.8,689,96.8,689,96.8z"/>
		<path class="st4" d="M697.8,105c0,0-4.3-0.8-6.9-3.8l-2-4.4l8.1,3.1L697.8,105z"/>
		<path class="st0" d="M679.3,79.2c0,0.2,0,0.4,0.1,0.6c0.8,4,5.4,13,9.6,17c0.7,0.6,1.3,1.1,1.9,1.5c2.2,1.2,5.2,2.2,8.2,2.4l0.2,0
			c3.5,0.3,6.9-0.7,7.6-1.3c1.6-1.6,4.1-10,3.8-12.5c-0.2-1.4-0.9-2.3-1.5-3c0,0-0.1-0.1-0.1-0.1c0,0,0-0.1-0.1-0.1
			c-0.4-0.5-0.8-0.9-0.9-1.4c-0.3-1.2-0.2-11.5-1.5-13.3c-3.8-3.7-13.3-7.2-13.3-7.2c-2.8,0.5-5.8,3.6-8.2,6.1
			c-1.7,1.8-3.1,3.8-4.2,5.7c-0.5,0.9-0.9,1.8-1.2,2.6C679.3,77.4,679.2,78.4,679.3,79.2z"/>
		<path class="st3" d="M679.4,79.8c0.9,4.7,6.8,16.6,11.5,19.2c2.2,1.2,5.3,1.9,8.2,2.2l0.2,0c0,0-8-2-9.3-6.4
			c-1.3-4.4-1.4-9.9-1.4-9.9c6.1,2.1,8.7,0.2,8.7,0.2s0.1-5-0.4-7.5c-0.6-2.5-2.2-5.1-2.2-5.1l-5.3,2.1c0,0,2.5-9.1,6.5-9
			c3.9,0.1,7.7,3.1,7.7,3.1l-1.6,5c-1.2,5.9,1.7,9.2,1.7,9.2c1.9,0.9,5.3,0.7,5.3,0.7c-0.4-0.5-0.8-0.9-0.9-1.3
			c-0.3-1.2-0.2-11.5-1.5-13.3c-3.8-3.7-13-7.7-13-7.7c-2.8,0.5-6.1,4.1-8.5,6.6l-4.2,5.7l-1.1,1.5l-0.1,1.2L679.4,79.8z"/>
		<path class="st0" d="M673.8,329.2c0,0,9.9,1.3,16.2-0.4l3.3-0.8c0,0-0.1-7.2,1.3-10.6c1.4-3.5,1.9-4.5,1.9-5.6
			c0-1.1-0.1-7.3-0.1-8.5c0-0.5,1.2-8.3,2.5-17.3c2-13.1,4.4-28.9,4.4-28.9s-12,1.8-14.3,3.7c0,0-0.8,6.6-0.8,15
			c0,3.2,0.1,6.9,0.3,10.2c0.3,5.4,0.6,10.1,0.5,10.9c-0.1,1.4-1.6,2-1.8,2.9c-0.2,0.9,2.2,1.5,1.8,2.4c-0.4,0.9-2.4,8.1-6.4,14.4
			c-4,6.3-7.8,9.5-8.3,10.2C673.9,327.6,673.8,329.2,673.8,329.2z"/>
		<path class="st0" d="M672.7,84.6c1.4,5.4-0.2,13.1-1.2,17.6c-1.1,4.9-2.9,7.1-2.8,8.4c0.5,4.5,7.2,8.6,7.2,8.6s-1.8-7.5,0-15.7
			c1.8-8.2,8.4-14.8,8.4-14.8s-1-0.9-1.4-2.9c-0.3-2.1,0-5.5,0-5.5c2.9-1.9,4.4-7,6-11.6c1.6-4.6,4.4-4.9,4.4-4.9
			c4.2-0.4,8.7,1.7,11.5,4.3c2.8,2.6,3,9.9,3,9.9s3.2-8.6,2.9-10c-0.2-0.8-1-1.5-1.7-1.9l0,0c-0.2-0.1-0.4-0.2-0.6-0.3l-0.1-0.1l0,0
			l0,0c0,0-0.9-2.6-4.6-5.2c-3.7-2.6-13.6-2.8-14.6-1.8c-0.9,0.8-0.7,1.2-0.7,1.2l0,0c0,0-9,0.2-10.5,2.1c0,0,0,0,0,0
			c-0.9,1.2-2.5,3.8-3.5,5.5v0l-0.3,0.5l-0.3,0.4l-0.5,0.8c0,0-3.4,0.1-4.3,2.1c-0.1,0.2-0.1,0.3-0.2,0.5c-0.1,0.3-0.1,0.6-0.1,0.9
			l0,0c0,0,0,0,0,0c-0.2,2.4,0.1,5.5,0.1,5.5c0.1,0.4,0.2,0.7,0.3,1c1.1,2.8,3.2,4,3.2,4C672.4,83.7,672.5,84.2,672.7,84.6z"/>
		<path class="st0" d="M671.6,77.4c2.3,1.8,10.2,3.9,10.2,3.9s-8.5,1.5-11.3-0.6c-0.6-0.5-1.1-0.9-1.4-1.4c1.1,2.8,3.2,4,3.2,4
			c0.2,0.4,0.3,0.9,0.4,1.3c4.5,2.3,11.6,4,11.6,4s-1-0.9-1.4-2.9c-0.3-2.1,0-5.5,0-5.5c2.9-1.9,4.4-7,6-11.6
			c1.6-4.6,4.4-4.9,4.4-4.9c4.2-0.4,8.7,1.7,11.5,4.3c2.8,2.6,3,9.9,3,9.9s3.2-8.6,2.9-10c-0.2-0.8-1-1.5-1.7-1.9l0,0l-0.6-0.3
			l-0.1-0.1l0,0l0,0c0,0-3.7-1.2-7.2-2.1c-3.5-0.9-7.8-2.7-7.8-2.7c3.4-1.2,9.9-0.1,10.4,0c-3.8-1.3-9.4-0.8-9.4-0.8
			c-4.1-0.5-5.2-1.5-5.2-1.5c-0.9,0.8-0.7,1.2-0.7,1.2l0,0c1.2,0.9,2.2,3,2.2,3c-4.3,1.8-12.3-1-12.3-1l-0.5,0.1c0,0,0,0,0,0
			c-0.9,1.2-2.5,3.8-3.5,5.5v0l-0.3,0.5l-0.3,0.4l-0.5,0.8c0,0,0.9,2,3.9,2.7c2.9,0.6,8-1.8,8.4-1.9c-0.5,0.4-9.7,6.9-12.9,5.4
			c-3.3-1.6-3.6-4-3.6-4l-0.3,1.5l0,0c0,0,0,0,0,0C668.6,72.9,669.4,75.6,671.6,77.4z"/>
		<path class="st0" d="M677.7,90.8c0,0-3.4,11.6-7.3,15.2c0,0,5.6-14.1,1.9-22.7c0,0,8.3-0.4,10.7-3.1L677.7,90.8z"/>
		<polygon class="st1" points="711.9,271.3 702.5,262.5 705.3,246.6 710.3,242.3 716.5,254.2 		"/>
		<path class="st0" d="M684.1,87.6c0,0-3.3-2.5-5.6-1c-2.8,1.8,1.3,8.6,4.4,9c3.2,0.4,3.6-1.6,3.6-1.6S686.2,89,684.1,87.6z"/>
		<path class="st0" d="M686.7,252.2l-2.4,8.7c0,0,7.9,6.5,15.3,6c0,0,1.3-2.9,3.1-7.2c2.2-5.3,5.1-12.7,7-19.1c0,0,3,7.7,5.2,16.3
			c1.3,5,2.2,10.3,2,14.5c0,0,8.1-6.7,11.6-18.8c0,0,4.3-68.6,2.6-75c-0.4-1.6-1.7-3.8-3.5-6.3c0,0,0,0,0,0l-0.1-0.1
			c-1.1-1.5-2.3-3.1-3.6-4.6l-0.2-0.2h0c-4.9-6-10.5-11.7-10.5-11.7s-2.7-6.1-2.8-12.7c0,0,4-5.9,3.2-10.9c-0.8-5.1-5.7-9.8-5.7-9.8
			s-19.6-9.8-23.6-8.7c0,0-4.1,4.3-5.9,7.4c0,0,6.7,11.8,10,18.3c0.4,0.8,0.7,1.4,1,2c2.6,5.6,5.4,14.5,5.4,14.5s-0.4,0.9-0.8,2.1
			c-0.1,0.3-0.1,0.7,0,0.9c0.2,0.7,0.8,1.1,0.8,1.1s-4.6,15.1-6.8,29.8c-0.1,0.5-0.2,1.1-0.2,1.8c-1.9,16.2,0,57.5,0,57.5
			L686.7,252.2z"/>
		<path class="st9" d="M686.7,252.2c0,0,8.8,7.2,16,7.5c2.2-5.3,5.1-12.7,7-19.1c0,0,3,7.7,5.2,16.3c6.6-2.4,12.9-5.4,12.9-5.4
			l-3.7-7.2c0,0-9.7-12.2-2.7-29.5c7-17.1,6.4-42.8,6.4-43.4c0,0,0,0,0,0l-0.1-0.1l-3.6-4.6l-0.2-0.2h0l-2.9-1.2l-14.5,22.1
			c0,0-8.7-0.5-9.9-6.3c-1.2-5.8-0.2-20-0.2-20c11.6,2.6,16.1-1,16.3-1.2c-8.8,3.6-18.5-2.1-18.5-2.1c0.2,0.7,0.8,1.1,0.8,1.1
			s-4.6,15.1-6.8,29.8c-0.1,0.5-0.2,1.1-0.2,1.8l15.4,1.5l-11.7,48.3L686.7,252.2z"/>
		<path class="st9" d="M704.8,128.4c0,0,3.5,4.5,0.9,10.8l2.5,18.5c0,0,1.1,1.2,1.1,1.9c-0.1,0.7-0.4,2-0.4,2s6.3,19.7,6.9,31.3
			c0.6,11.6-5.5,49.3-5.5,49.3s4.5-44.5,3-56.3c-1.4-11.8-4.9-24.4-4.9-24.4s0.5-1.6,0.2-2.4c-0.3-0.8-0.9-1.3-0.9-1.3l-2.4-18.7
			C705.3,139.2,707.4,134.4,704.8,128.4z"/>
		<path class="st0" d="M710.6,174.1c0,0,3.1,5.6,8.3,5.4c0,0-0.7-5.1-3.3-6.9c-2.5-1.7-5-1.1-5-1.1V174.1z"/>
		<path class="st0" d="M703.6,177.2c0,0,0.5,7.3-3.1,11.9c0,0-1.7-4-1.2-7.7c0.5-3.8,2.9-5.8,2.9-5.8S703.6,176.1,703.6,177.2z"/>
		<path class="st0" d="M714.3,171.4c0,0-1.1,2.9-2.3,2.8c-1.3-0.1-2.4-0.7-3.4,0c-1,0.7-3,5.3-3,5.3s-1.7,0.9-1.6,1.7
			c0.1,0.8,2.5,0.9,3.4-0.9c0,0,0.1-1.4,1.8-2.8c0,0,0.4,1.3,0,4.8c-0.4,3.4-1.8,8.1-1.8,8.1s2.3,2.9,4.7,2.3c2.4-0.6,4-8,5.4-14.1
			l2.5-7.1C719.8,171.4,716,171.9,714.3,171.4z"/>
		<path class="st0" d="M699,183.3l3.1,1.7c0.7,3,1.8,8.3,2.1,9.6c0,0.2,0.1,0.3,0.1,0.3c0.9,1.2,2.2,1.3,2.2,1.3l0.6-0.9l0.5,0.7
			c0,0,2.1,0.5,2.5,0.2c0.4-0.4,0.5-0.7,0.5-0.7s0,0,0.6,0.2c0.6,0.2,2.3-0.1,2.3-0.6c0-0.5-0.4-2.5-0.5-2.7
			c0.2,0.4,3.5,6.3,3.8,6.9c0.3,0.6,1.3,0.5,1.4,0c0.1-0.5,0-1.9-0.6-4c-0.6-2-2-4.2-2.9-6.5c0-0.1,0-0.1,0-0.1
			c-0.9-2.2-2.1-5.6-2.2-5.8c0.1,0,1.6,0.5,2.4,1.2c0.8,0.8,1.7,2.5,2.8,3.1c1.1,0.6,4.7-0.1,4.6-0.7c-0.2-0.6-3.6-1.9-5.7-3.4
			c-2.1-1.5-3.9-5.1-5.2-5.1c-1.3-0.1-4.5,1-5.7,0.9c-1.2-0.1-8.9-3.2-8.9-3.2C695.8,178.1,699,183.3,699,183.3z"/>
		<path class="st20" d="M710.1,127.5c0,0-1,5.1-10,3.5c-9-1.6-21.5-11.2-21.5-11.2l5.9-7.4L710.1,127.5z"/>
		<path class="st0" d="M682.1,109.1c0.2,1,2.4,3.3,2.4,3.3s0.1,0.2,0.2,0.4c0.9,2.3,5.8,13.4,14.7,16.7c7,2.6,9.8-0.2,10.8-2.1
			c0.4-0.8,0.6-1.4,0.6-1.4s-0.8-1.1-1-2c-0.1-0.2-0.1-0.5,0-0.6c0.2-0.5,0.9-0.8,1.3-1.3c0.2-0.2,0.4-0.5,0.4-0.9
			c-0.1-1.1-0.6-1.1-0.6-1.1s-0.4-1.6-1.3-3.7v0c-0.9-2-2.2-4.4-4-6.2c-3.7-3.8-7.3-4.6-7.3-4.6l1.3,4.1c0,0-3,0.5-6.7-3.2
			c0,0-0.8-3.7-1.3-4.8c0,0-1.7-1.1-3.5-1.1c-1.8,0-0.4,2.9-0.4,2.9s-0.9-0.2-2.7,0.8c-1.2,0.6-1.9,1.9-2.3,3
			C682.1,108.1,682,108.7,682.1,109.1z"/>
		<path class="st0" d="M710.6,173.7l0.2-1.7c0.4,0.1,0.7,0.2,1,0.3h0c4.1,1.5,7,7.2,7,7.2l0.8-1.9c4-6.9,5.5-17.3,5.9-21.9
			c0.1-1.5,0.2-2.4,0.2-2.4c-3.4-3.9-9.8-1.8-9.8-1.8s-1.2,0.4-1.4,1.1c-0.1,0.5,0.2,1.1,0.5,1.9c0.2,0.4,0.3,0.8,0.4,1.2
			c0,0.1,0,0.3,0,0.6v0c0,2.3-0.8,9.9-1.5,11.6c-0.7,1.9-3.5,3.2-3.5,3.2C710.6,172.5,710.6,173.7,710.6,173.7z"/>
		<path class="st0" d="M673.8,329.2c0,0,9.9,1.3,16.2-0.4l3.3-0.8c0,0-0.1-7.2,1.3-10.6c1.4-3.5,1.9-4.5,1.9-5.6
			c0-1.1-0.1-7.3-0.1-8.5c0-0.5,1.2-8.3,2.5-17.3c0,0-5.3,2.7-10.4,0c0,0-0.1,0-0.1,0c0.3,5.4,0.6,10.1,0.5,10.9
			c-0.1,1.4-1.6,2-1.8,2.9c-0.2,0.9,2.2,1.5,1.8,2.4c-0.4,0.9-2.4,8.1-6.4,14.4c-4,6.3-7.8,9.5-8.3,10.2
			C673.9,327.6,673.8,329.2,673.8,329.2z"/>
		<path class="st0" d="M684.7,248.7l8.2,0.2l1.3,2.2c11.5,2.4,37.4,0,37.4,0s-1.7-21-2.4-31.2c-0.7-10.2-6.1-24.1-8.2-26.9
			c-2-2.9-6.8-5.8-6.8-5.8l2.1,4.6c0,0,2,2.8,3,5.9c1.4,4.1,0.5,13.1,0.5,13.1c-12.4,2.8-19.6-3.6-19.6-3.6
			c-0.4-1.9,0.2-5.5,0.9-8.9c1-4.1,2.2-8,2.2-8l-0.6-2.8c0,0-4.1,4.5-5,6.9C696.8,197,684.7,248.7,684.7,248.7z"/>
		<path class="st0" d="M706.8,69.9c0,0-2.7-0.6-3.7,0.9c-1.1,1.5-1.2,3.5-1.2,3.5s-0.1-4.8,2.4-7.3C704.3,67,706.8,68.6,706.8,69.9z
			"/>
		<path class="st0" d="M694.7,69.9c0,0,0.3,1.2,0,2.7c0,0-1.5,0.7-3.5,1.8c-2,1.1-3.6,3.4-3.6,3.4s1.1-2.4,2.5-4.1
			C691.6,71.9,694.7,69.9,694.7,69.9z"/>
		<path class="st0" d="M696.7,80.5c0,0,0.3-2.5-0.5-3c-1.3-0.8-5.6,0.8-6.6,4.3C689.6,81.9,696.5,81.4,696.7,80.5z"/>
		<path class="st0" d="M689.6,83.7c0.9,2.4,6.5,2.2,7.1,0.9c0.1-0.3,0.2-0.9,0.2-1.6c0-1.6-0.5-3.6-1.5-4c-0.8-0.3-1.5-0.5-2.3-0.3
			C690.8,79.5,688.8,81.8,689.6,83.7z"/>
		<path class="st0" d="M703.2,81.5c1.1,1.8,4,1.9,4.4,1.2c0.1-0.2,0.2-0.8,0.2-1.6c0-0.5,0-1,0-1.5c0,0,0,0,0,0
			c-0.1-1.7-0.6-3-0.9-3c-0.6,0-0.9-0.2-1.4,0.1c-0.3,0.2-0.5,0.4-0.8,0.6C703.3,78.5,702.7,80.7,703.2,81.5z"/>
		<path class="st0" d="M692.4,81.5c0.3,1.7,1.6,2.8,2.9,2.6c0.7-0.1,1.2-0.5,1.5-1.1c0-1.6-0.3-3.9-1.2-4.2c-0.8-0.3-1.7-0.3-2.6,0
			C692.5,79.4,692.2,80.4,692.4,81.5z"/>
		<path class="st0" d="M693.3,81.1c0.2,1.3,1.2,2.2,2.1,2c0.9-0.2,1.4-1.4,1.2-2.6s-1.2-2.2-2.1-2S693.1,79.8,693.3,81.1z"/>
		<path class="st0" d="M704.6,79c0.2,1.8,1.2,3.1,2.3,2.9c0.4-0.1,0.7-0.4,0.9-0.8c0-0.5,0-1,0-1.5c0,0,0,0,0,0
			c-0.1-1.7-0.4-3.4-0.7-3.4c-0.6,0-1.1,0.2-1.6,0.4c-0.3,0.2-0.5,0.4-0.8,0.6C704.6,77.8,704.5,78.4,704.6,79z"/>
		<path class="st0" d="M705.4,78.5c0.2,1.4,0.9,2.4,1.6,2.2c0.4-0.1,0.7-0.5,0.8-1.1c0,0,0,0,0,0c-0.1-1.7-0.4-3.4-0.7-3.4
			c-0.6,0-1.1,0.2-1.6,0.4C705.3,77.2,705.3,77.8,705.4,78.5z"/>
		<path class="st0" d="M692.3,82.5c0,0.3,0.2,0.5,0.5,0.5c0.3,0,0.5-0.2,0.5-0.5c0-0.3-0.2-0.5-0.5-0.5
			C692.5,82,692.3,82.2,692.3,82.5z"/>
		<circle class="st0" cx="704.8" cy="80.1" r="0.5"/>
		<path class="st0" d="M706.8,92.4c0,0,0,2.1-1.4,2.5c-1.4,0.4-4.1,0.1-7.1-3.6C698.3,91.3,705.2,92.7,706.8,92.4z"/>
		<g>
			<path class="st0" d="M706.8,85.4c0,0-4.4,0.3-6.1,2.1c0,0,1.9,0.9,3.4,0.6C704.2,88.2,706.5,87.4,706.8,85.4z"/>
			<path class="st0" d="M703.1,88.2c0,0-1.4-1.3-2.4-0.6C700.8,87.5,702.1,88.2,703.1,88.2z"/>
			<path class="st0" d="M700.8,87.5c-0.2,0.1-0.4-1.7-0.1-2.3c0.4-0.5,1.6-1.7,3.3-1.6c1.7,0.1,2.9,1.7,2.9,1.7
				S702.1,86.8,700.8,87.5z"/>
			<path class="st0" d="M702.2,72.8c0,0-0.6,6.1,0.6,8.7c0.5,1.1,3,3.2,3,3.2s-2.5-1.4-3.4-3.1c-0.9-1.6-1-5.3-1-5.3L702.2,72.8z"/>
			<path class="st0" d="M700.4,85.7c0,0-0.2,0.8,0.4,1.8C700.8,87.5,699.5,87.5,700.4,85.7z"/>
		</g>
		<path class="st0" d="M706.5,91.5c0,0-0.4-1.2-2.2-1.2s-3.6,1.4-4.6,1.2c-1-0.2-1.9-0.6-1.9-0.6s1.7,1.6,4.3,1.8
			c2.7,0.3,4.9-0.4,4.9-0.4l-0.6-0.3V91.5z"/>
		<path class="st0" d="M698.9,90.3c0,0-0.9,0.5-1.6,1c0,0,0.1-0.5,0.4-0.8C698,90.2,698.9,90.3,698.9,90.3z"/>
		<path class="st0" d="M707.8,79c0,0,0.9-2.8,0.2-3.2c-1.3-0.9-4.3,0.5-5,4.3c0,0,1.8-4.1,3.8-3.6C707.8,76.8,707.8,79,707.8,79z"/>
		<path class="st0" d="M685.1,91.3c0,0-3.1-3.1-5-3.1c-1.9,0-1.5,2.4-1.5,2.4s0.5-1.6,2.1-1.4C682.2,89.4,685.1,91.3,685.1,91.3z"/>
		<path class="st0" d="M680.8,88.7c0,0,0,1.7,0.9,3.3c0.9,1.6,2.4,1.2,2.4,1.2s-1.3,0.7-3-0.7c-1.7-1.4-1.5-3.2-1.5-3.2L680.8,88.7z
			"/>
		<path class="st0" d="M683.4,90.3c0,0-0.1,2.4-1.7,2.1c-1.6-0.3-1.1-3.2-1.1-3.2S681.8,88.8,683.4,90.3z"/>
		<path class="st0" d="M668.4,77.1c0-0.1,0.1-0.2,0.1-0.2S668.4,76.9,668.4,77.1z"/>
		<path class="st0" d="M682.9,80.2c0,0-3.4,3.2-10.7,3.1c0,0,7.6,2.9,10.9,3.3C683.1,86.6,682.6,83.1,682.9,80.2z"/>
		<path class="st9" d="M692.3,109c5.7,3.3,12.7,2.7,12.7,2.7l-2-1l-5-5l1.3,4.1c0,0-3,0.5-6.7-3.2c0,0-0.8-3.7-1.3-4.8
			c0,0-1.7-1.1-3.5-1.1C687.7,100.7,686.7,105.8,692.3,109z"/>
		<path class="st9" d="M682.1,109.1c0.2,1,2.4,3.3,2.4,3.3s0.1,0.2,0.2,0.4c0.9,2.3,5.8,13.4,14.7,16.7c7,2.6,9.8-0.2,10.8-2.1
			c-1.2,0.7-3.5,1.4-7.1,0.6c-5.8-1.2-11-8-11.2-8.3c0.4,0.1,14.7,5.3,17.8,4.2c-0.1-0.2-0.1-0.5,0-0.6c0.3-0.8,1.7-1.1,1.6-2.2
			s-0.6-1.1-0.6-1.1s-0.4-1.6-1.3-3.7c0,0.2-0.1,2.8-1,3.2c-0.9,0.3-17.4-3.6-22-7.9c-2.1-1.9-3.3-3.3-3.9-4.3
			C682.1,108.1,682,108.7,682.1,109.1z"/>
		<path class="st9" d="M685.1,113.7c0.5,0.6,8.5,9.8,24.5,10.4c-0.1-0.2-0.1-0.5,0-0.6c0.2-0.5,0.9-0.8,1.3-1.3
			C706.2,123.8,693.8,121.1,685.1,113.7z"/>
		<polygon class="st9" points="699.3,109.9 703,110.7 698,105.7 		"/>
		<path class="st9" d="M712.7,138.1c0,0-10.9-1.8-18.4,2.1c0,0,9.2-1.5,16.3,1.8L712.7,138.1z"/>
		<path class="st9" d="M694.1,157.7l0.8-3c0,0-0.4,0.9-0.8,2.1C694,157.1,694,157.4,694.1,157.7z"/>
		<path class="st9" d="M689.6,140.2c2.6,5.6,5.4,14.5,5.4,14.5l2.9,0.9l-8.4-18.8l-0.9,1.3C689,138.9,689.3,139.6,689.6,140.2z"/>
		<path class="st0" d="M674.5,159.1c0,0,4.8,10.2,10.2,16.5c5.2,6.1,13.8,10.4,14.3,10.6c0,0,0,0,0,0l1.5,2.9c0,0-0.9-8,2.3-13.3
			l0.8,1.3c0,0-0.1-1.1-1-2.2l-2.2,0.7c0,0-8.9-7.3-14.1-15l0,0c0.1-0.3,0.9-2.3,0.9-2.8c0-0.5-0.4-1-1-2.1
			c-0.6-1.1,0.2-12.8,2.1-18.1l1.3,0.2c0,0-0.2-6.9-3.8-11.8c-3.6-4.9-7.2-6.1-7.2-6.1s-0.6,0.5-0.8,1.4c-0.1,0.3,0,1.5,0.1,3.3
			c0,0,0,0,0,0c0,0,0,0,0,0.1c0.3,4.5,0.8,12.2,0.3,16.1C677.3,146.4,674.7,155.1,674.5,159.1z"/>
		<path class="st9" d="M674.5,159.1c0,0,4.8,10.2,10.2,16.5c5.2,6.1,13.8,10.4,14.3,10.6c-0.6-0.4-9.7-6.9-14.9-14.8
			c-5.4-8.2-2.3-12.3-2.3-12.3c3.3,0,4.5,1.5,4.5,1.5l0,0l0.9-2.8c0,0-8.7-1.6-8.7-3.1c0-1.2,0.7-10.4,0.7-12.7
			c0-2.2-1.3-16-1.4-17.3c0.3,4.5,0.8,12.2,0.3,16.1C677.3,146.4,674.7,155.1,674.5,159.1z"/>
		<path class="st9" d="M702.6,174.9c0,0-2.6,2.5-4.1,8.4c0,0,0.4-4.3,1.8-7.8L702.6,174.9z"/>
		<path class="st13" d="M686.2,155.6c0,0-2.9,0.9-7.6-0.9c0,0,3.4,3.1,8.7,3.1L686.2,155.6z"/>
		<path class="st9" d="M713.8,157.7c0,0-1.2,3.2-7.2,3.3c-6.1,0.1-12.1-3.3-12.1-3.3l0.7-2.9c0,0,4,3.4,10.4,3.8
			C711.9,159.1,713.8,157.7,713.8,157.7z"/>
		<path class="st9" d="M715.1,154.5c0,0,1.6-2.3,7-2.1c0,0-5.4-0.1-6.6,3.9L715.1,154.5z"/>
		<path class="st9" d="M711.9,172.2c4.1,1.5,7,7.2,7,7.2l0.8-1.9c4-6.9,5.5-17.3,5.9-21.9c0,0-2.6,14.7-5,17.8
			C718.2,176.6,714.6,172.7,711.9,172.2z"/>
		<path class="st9" d="M684.7,248.7l8.2,0.2l1.3,2.2c0,0,1.2-35.6,5.1-51.9l1.9-0.9c1-4.1,2.2-8,2.2-8l-0.6-2.8c0,0-4.1,4.5-5,6.9
			C696.8,197,684.7,248.7,684.7,248.7z"/>
		<path class="st9" d="M692.8,248.9c0,0,1.7-29.5,3.7-43.5l2.7-6.2c0,0-4.4,25-5.1,51.9L692.8,248.9z"/>
		<path class="st9" d="M725.6,213.8c0,0,1.6,19.9-10.5,20.5c-12.6,0.6-14.9-27.1-14.9-27.1s1.2,28.7,14.6,28.4
			C728.2,235.4,725.6,213.8,725.6,213.8z"/>
		<path class="st9" d="M719.8,210.8c0,0,2.8,0.6,5.2,2.3c0,0-2.5-3-5.1-4.4L719.8,210.8z"/>
		<path class="st0" d="M722.1,230.5c0,0-7.3-1.5-15-0.6l-0.3,1.4c0,0,2.2,4.8,7.7,4.9c5.4,0.1,7.9-4.4,7.9-4.4L722.1,230.5z"/>
		<path class="st9" d="M725.6,213.8c0,0-11.7,3.1-25.1-4.3l-0.4-2.4c0,0,9.9,7,19.6,3.6C719.8,210.8,724.1,211.9,725.6,213.8z"/>
		<path class="st15" d="M695.1,309.6c0,0-2.4,10-5.1,14.1c-2.6,4.1-15.6,3.1-15.6,3.1s10.2-7.6,14.6-24.6
			C689,302.2,695.6,301.9,695.1,309.6z"/>
		<path class="st15" d="M722.9,325.4c0,0-5.7-0.7-11.1-3.4c-5.4-2.6-9.2-14.3-9.2-14.3l2.4-0.7c0,0,4.7,9.5,9.2,13.1
			S722.9,325.4,722.9,325.4z"/>
		<path class="st9" d="M731.5,251.1c0,0-29.3,3.2-37-4.1l-1.7-1.6l-8.2,3.3l8.2,0.2l1.3,2.2C694.1,251.1,706.2,254,731.5,251.1z"/>
		<path class="st0" d="M703.8,178.3c0,0-2.9-0.3-1.7,6.7l-1.6-0.8c0,0-0.1-3.8,1.4-6.5L703.8,178.3z"/>
		<path class="st0" d="M704.3,194.6c0,0.2,0.1,0.3,0.1,0.3c0.9,1.2,2.2,1.3,2.2,1.3l0.6-0.9l0.5,0.7c0,0,2.1,0.5,2.5,0.2
			c0.4-0.4,0.5-0.7,0.5-0.7s0,0,0.6,0.2c0.6,0.2,2.3-0.1,2.3-0.6c0-0.5-0.4-2.5-0.5-2.7c0.2,0.4,3.5,6.3,3.8,6.9
			c0.3,0.6,1.3,0.5,1.4,0c0.1-0.5,0-1.9-0.6-4c-0.6-2-2-4.2-2.9-6.5c0.2,0.5,0.9,2.6,0.7,3.2c-0.2,0.6-2.4,0.1-2.4,0.1s-0.7,1-2,1.1
			c-0.8,0-1.4,0-1.4,0s-1.1,1-2.4,0.8C707.2,193.9,705.8,195,704.3,194.6z"/>
		<path class="st0" d="M725.8,153.3c0,0-7-6.7-8.4-9.3c-1.4-2.6-5.5-22.2-6.2-25.1c-0.7-2.9,0.8-2.1,0.8-2.1s-5.7-7.4-4.3-17.7
			l0.1-1.3c0,0-0.4,1.1-1.1,1.7c0,0,4-9.8,3.1-13.3c0,0-1-2.6-2.3-3.7l0.2-4.6c0,0,2.1-7.7,0.8-9.8c-1.3-2.1-3.1-3.3-3.1-3.3h1.1
			c0,0-2.4-3.4-6.5-5c-4.1-1.6-8.8-1.7-8.8-1.7s6.9-0.1,10.7,1.5c3.9,1.6,6.2,6.1,6.2,6.1s2.1,0.7,2.5,2.3c0.2,1.1-2.9,10-2.9,10
			l0.3,5c0,0,2.2,1.5,2.5,3.6c0.3,2-2.3,11-2.3,11s-0.5,8.1,1.7,13.9c1.7,4.6,2.2,5.3,2.2,5.3s1.3,0.8,1.5,2.9
			c0.2,1.5,1.8,13.5,3.9,18.6C719.6,143.4,725.9,152.4,725.8,153.3z"/>
		<path class="st8" d="M686.8,86.8c0.7,1.5,1.3,2.9,1.6,4.3c0,0.2,0.1,0.3,0.1,0.5c0.2,1,0.4,2.1,0.5,3.2c0,0.1,0,0.3,0,0.4
			c0,0.4,0,0.7,0,1.1c0,0.2,0,0.4,0,0.6c0.7,0.6,1.3,1.1,1.9,1.5c1.7,0.9,3.8,1.7,6,2.1c0.7,0.2,1.5,0.3,2.2,0.3l0.2,0
			c3.4,0.3,6.7-0.6,7.5-1.3c0,0,0,0,0,0c0,0,0,0,0,0c0,0,0,0,0,0c0,0,0.1-0.1,0.1-0.1c0,0,0,0,0,0c0.2-0.3,0.5-0.7,0.8-1.2
			c0-0.1,0.1-0.2,0.1-0.2c0,0,0,0,0,0v0c0.4-0.9,0.8-2,1.2-3.1c1-2.9,1.7-6.3,1.5-7.7c0-0.1,0-0.1,0-0.2c0-0.1,0-0.2,0-0.3
			c0,0,0-0.1,0-0.1c0-0.1-0.1-0.2-0.1-0.3c0-0.1,0-0.1-0.1-0.2l-0.1-0.3c-0.3-0.7-0.8-1.2-1.2-1.7c0,0,0,0,0,0c-0.1,0-0.2,0-0.3,0.1
			c-1.1,0.2-2.4,0.3-3.7,0.1c0,0,0,0,0,0c-0.1,0-0.3,0-0.4-0.1c-0.1,0-0.2,0-0.2-0.1c-0.2,0-0.3-0.1-0.5-0.1
			c-2.6-0.6-2.6,0.2-4.5,1.3c-2.4,1.4-7.9,1.7-10.7,1.7C687.5,86.8,686.8,86.8,686.8,86.8z"/>
		<g>
			<path class="st8" d="M686.8,86.8c1.6,0.2,3.2,0.2,4.8,0.2c1.6,0,3.2-0.2,4.8-0.5c0.8-0.2,1.6-0.3,2.4-0.6
				c0.8-0.3,1.5-0.8,2.1-1.2c0.6-0.5,1.2-0.8,1.9-0.7c0.7,0,1.4,0.3,2.3,0.4h0l0,0h0l0,0c0.9,0.1,1.9,0.1,2.8-0.1
				c0.5-0.1,0.9-0.2,1.3-0.3c0,0-0.1-0.1-0.1-0.1c-1.1,0.2-2.6,0.4-4,0.2c0,0,0,0,0,0c-0.2,0-0.4-0.1-0.6-0.1
				c-0.2,0-0.3-0.1-0.5-0.1c-2.6-0.6-2.6,0.2-4.5,1.3C696,87,686.8,86.8,686.8,86.8z"/>
		</g>
		<path class="st0" d="M689.1,96.9c0,0-2-1.5-2.7-2.6l0.2-0.3c0.9,1.4,2.5,2.5,2.5,2.5L689.1,96.9z"/>
		<path class="st0" d="M686.8,86.8c0,0-2.3-0.6-3.5,0.3l0.2,0.1c1.4-0.6,3.5-0.1,3.5-0.1L686.8,86.8z"/>
		<path class="st0" d="M706.8,99.4C706.8,99.4,706.8,99.4,706.8,99.4c0.1-0.1,0.1-0.1,0.2-0.2c0,0,0,0,0,0c0.4-0.4,0.6-0.9,0.8-1.2
			c0-0.1,0.1-0.2,0.1-0.2c0,0,0,0,0,0c0.4-0.9,0.8-2,1.2-3.1c0.7-2.7,1.6-6.6,1.5-7.9c0,0,0-0.1,0-0.1c0-0.1,0-0.1,0-0.2
			c0,0,0-0.1,0-0.1c0-0.1-0.1-0.2-0.1-0.3c0-0.1,0-0.1-0.1-0.2l-0.1-0.3c-0.3-0.7-0.8-1.3-1.2-1.7c-0.1,0-0.2,0-0.3,0.1
			c0.7,1.1,1.2,2.3,1.2,2.3C710.7,89.5,706.9,99,706.8,99.4z"/>
		<path class="st0" d="M706.8,85.4c0,0-4.4,0.3-6.1,2.1c0,0,1.9,0.9,3.4,0.6C704.2,88.2,706.5,87.4,706.8,85.4z"/>
		<path class="st0" d="M704.6,83.9c0.6,0.4,1,0.7,1.2,0.8c-0.1-0.1-0.4-0.3-0.8-0.7c0,0,0,0,0,0C704.9,83.9,704.7,83.9,704.6,83.9z"
			/>
		<path class="st21" d="M689,95c-0.1-1.2-0.2-2.3-0.5-3.4c0,0,0,0,0,0c0-0.1-0.1-0.2-0.1-0.4c-0.4-1.4-0.9-2.9-1.7-4.4
			c0,0,0.7,0,1.9,0c0.1,1.1,0.2,2.6,0.4,4.1c0.4,0.2,0.8,0.3,1.2,0.4c0.6,0.2,1.2,0.3,1.9,0.3c0.6,0.1,1.3,0.1,1.9,0.1
			s1.3,0,1.9-0.1c-0.6,0.1-1.3,0.2-1.9,0.3c-0.6,0.1-1.3,0.1-2,0.1c-0.7,0-1.3,0-2-0.1c-0.3-0.1-0.6-0.1-0.9-0.2
			c0.2,0.9,0.4,1.8,0.6,2.7c0.9,0.3,1.8,0.5,2.8,0.6c1.2,0.1,2.5,0.1,3.7-0.1c-1.2,0.4-2.4,0.5-3.7,0.5c-0.8,0-1.7-0.1-2.5-0.2
			c1.1,2.5,4.4,4.2,6.7,5.1c-2.2-0.4-4.3-1.2-6-2.1c-0.6-0.3-1.3-0.8-1.9-1.5c0-0.2,0-0.4,0-0.6C689,95.8,689,95.4,689,95
			C689,95,689,95,689,95z"/>
	</g>
</g>
<g>
	<path class="st0" d="M136.7,182.7c0,0-5.6,2-6.8,3c-1.2,1-0.7,6.1-0.8,8.7c0,2.6-1.1,8.5-0.8,9.1s3.2,0,3.9-1.7
		c0.7-1.7,0.6-4.8,0-7.5c0,0,0.6-2.4,2.2-2.7c0,0,1.1,7.5,0.8,10.5c0,0-1.8,2.3-2.6,5.2c-0.8,3-0.4,6.1-0.3,6.7
		c0.1,0.6,1.5,0.8,1.5,0.8l0.8-1.6c0,0,0.6-0.2,1.6-0.7c0,0,1.3-0.8,2.7-1.6c0,0,4.8-2.8,5.9-5.4c1.1-2.5-1.3-18.2-1.2-19
		c0-0.8,0.4-1.9,0.4-1.9L136.7,182.7z"/>
	<path class="st0" d="M134.6,213.1c0,0,2.9-7,3.5-8.5c0.6-1.4,0.6-5.2,0.6-5.2s0.4,3.8,0,5.6C138.4,206.8,134.6,213.1,134.6,213.1z"
		/>
	<path class="st0" d="M138,211.4c0,0,2-3,2.8-5.1c0.8-2.1,1.1-3.4,1.1-3.4s-0.4,4.8-2.8,8L138,211.4z"/>
	<path class="st0" d="M141,209.5c0,0,1.8-1.7,2.5-4.3c0,0-0.1,1.6-0.9,3L141,209.5z"/>
	<path class="st0" d="M134.2,183.6c0,0,1.2,6,4.7,8.1c3.4,2.2,5.4,1.3,5.4,1.3l-0.8-6.7l-6.9-3.7L134.2,183.6z"/>
	<polygon class="st0" points="112.6,321.6 99.1,321.5 72.7,321.5 72.7,320.5 98,316.8 106.2,315.6 112.1,318.3 	"/>
	<path class="st0" d="M112.1,318.3c-3.2-0.3-9.9,1.2-13.1,1.9c-0.4,0.1-0.8,0.2-1.1,0.2c-2.4,0.5-25.2,0-25.2,0s1.8-2.8,3.7-3.3
		c1.9-0.5,4.6,0.3,10.8-2.7c2.8-1.3,4.9-3,6.3-4.3c1.7-1.6,2.5-2.9,2.5-2.9c4.3-1.7,14.9,2.5,14.9,2.5L112.1,318.3z"/>
	<path class="st9" d="M112.6,321.6l-13.4,0c0-0.4-0.1-0.9-0.1-1.3c-0.2-1.2-0.5-2.4-1-3.4c-1.3-3.1-3.3-5.5-4.5-6.7
		c1.7-1.6,2.5-2.9,2.5-2.9c4.3-1.7,14.9,2.5,14.9,2.5l1.3,8.6L112.6,321.6z"/>
	<path class="st0" d="M139.8,324.2c-7.2,2.7-20.6,1.1-21.3,0.7c0,0,0,0,0,0c-0.5-0.4-0.9-1.6-1.1-2.2c0-0.1,0-0.2-0.1-0.2
		c0,0,0,0,0,0l0,0l-4.9-0.9c-0.3-1.7-0.4-2.5-0.4-2.5s0,0,0.1,0l0.1,0l4.4,0.7l23.2,3.5L139.8,324.2z"/>
	<path class="st0" d="M106.2,183.9l1.6,12.3l11.3,85.6l-7.4,30.6l-0.1,0.4c-0.2-0.2-0.4-0.3-0.7-0.5c-4.9-3.5-15-5.1-15-5.1
		s-1-3-0.9-4.2c0-0.1,0-0.2,0.1-0.3c0.4-1,4-2.3,4-2.3s1.5-12,0-26.9c-0.8-7.5-2-19.6-3.2-32.6c-1.1-13-2.2-26.8-2.5-37.9
		c-0.6-22.1,1.6-38.7,1.6-38.7s25.9-7.8,27.3-4.3c1.3,3.4,1.2,13.3,1.2,13.3C115.4,173.8,106.2,183.9,106.2,183.9z"/>
	<path class="st0" d="M121.2,77.5c0,0-1.6,13.1-2.2,17c0,0-5,12.3-11.5,13.6l-3.1-0.6l2.5-17.4l15.3-16.5L121.2,77.5z"/>
	<path class="st4" d="M106.6,93.2c0,0,4.5,1.1,9-2.8c4.5-3.9,5.3-10.3,5.3-10.3l0.5-3.5l-0.2-1.2l-14.3,14.7L106.6,93.2z"/>
	<path class="st9" d="M94.8,166.3c0,0,3.7,2.5,7,3.4c0,0,0.3,5.8,0.9,9.7c0.6,3.9,2,6.6,2,6.6s-2.5-9.8-2-16.4l2.5-0.2l0.9,14.6
		c0,0-0.7-13.5,0-14.9c0,0,13.5-1.7,16.9-4.9l-0.2-2.2l-27.9,2.4L94.8,166.3z"/>
	<path class="st9" d="M120.4,277l-6.1,35.8l-2.5-0.4l-0.8-0.1c-4.9-3.5-15-5.1-15-5.1s-1-3-0.9-4.2c5.8-0.8,11.3,3.8,11.3,3.8
		c-3.6-5-7.2-6.3-7.2-6.3s1.5-12,0-26.9c-0.8-7.5-2-19.6-3.2-32.6c0,0,6.2,3.9,8.6-4.9c2.3-8.8,0-35.8,0-35.8s-1.2-6.1-3-9.4
		c-1.9-3.3-4.9-12.9-4.9-12.9s3.5,3.9,5.6,6.1c2.2,2.2,4.1,2.6,4.1,2.6l1.5,9.7L120.4,277z"/>
	<path class="st0" d="M122.2,73.6c-0.9,2.5-1.9,4.9-3.3,7c-1.4,2.2-3,4.2-5.2,5.8c-4.2,3.2-8.6,4.9-11.1,3.5
		c-2.6-1.4-6.9-7.9-7.4-12.5c-0.4-3.2,0.1-5.4,0.6-7.6c0.1-0.6,0.3-1.2,0.4-1.8c0.1-0.4,0.2-0.9,0.2-1.3c0.5-3.7-1-7.7-0.2-11.4
		c0.8-3.7,3.6-7.5,3.6-7.5c10.8-3,17.3-0.8,20.9,2.7c0.7,0.6,1.3,1.3,1.8,2.1l0,0c0.6,0.9,1,1.8,1.3,2.6
		C125.6,60.1,124,68.6,122.2,73.6z"/>
	<path class="st3" d="M122.2,73.6c-1.8,5-4.2,9.6-8.5,12.8c3.7-4.8,5-10.6,5.2-13.9c0.2-3.4-1.3-5.8-1.3-5.8
		c-5.4,2.3-10.6,1.7-10.6,1.7c-0.5-3.1-1.1-11-1.1-11c4.2-0.3,9.7,2.8,9.7,2.8s-0.7-6.2-3.2-8.4c-2.6-2.2-10.8-0.8-10.8-0.8
		c-2.7,2.9-1.7,7.4-1.7,7.4c2.3,3.7,1.3,9.4,1.3,9.4c-2.4,1.1-5.1,0-5.1,0c0.1-0.4,0.2-0.9,0.2-1.3c0.5-3.7-1-7.7-0.2-11.4
		c0.8-3.7,3.6-7.5,3.6-7.5c10.8-3,17.3-0.8,20.9,2.7l1.8,2.1l0,0c0.6,0.9,1,1.8,1.3,2.6C125.6,60.1,124,68.6,122.2,73.6z"/>
	<path class="st0" d="M128.9,55.7c-0.2-0.9-1.3-1.2-1.3-1.2s0,0,0,0c-0.3,2.3-2.6,12.2-2.6,12.2l-0.4,1.6l-2.4,1.1
		c-1.7-2-3.5-8.3-3.5-9.2c0.1-0.9,1.1-2.8,1-4.5c-0.1-1.7-1.9-4.8-3-5.5c-1.1-0.7-4.7-0.6-8.2-0.6s-5.5-0.8-5.5-0.8
		c-2.2,0.3-3.8,2.3-4.2,2.9c-0.1,0.1-0.1,0.2-0.1,0.2s0,0,0,0c-0.4-1.1-0.2-1.7-0.2-1.7c-3,3.1-2.2,11.3-2.2,11.3
		c-3.3-2.9-4-9.1-4-9.1c-1.4,0.6-1.5,1.3-1.5,1.5c0-0.3,0-2.9,2.9-4.4c3.1-1.5,5.1-2.8,5.1-2.8c1.9-3.9,6.9-5.9,7.2-6
		c-5.1,1.3-7.8,5.8-8,6c3.6-8.8,13.9-9,15.3-8.5c1.4,0.5,2.2,4.1,4,7c1.8,3,5.8,5.6,8.7,6.9C128.9,53.5,128.9,55.7,128.9,55.7z"/>
	<path class="st0" d="M60.2,128.8c0,1.6-3.9,6.4-3.9,6.4s-2.7-3.4-4.2-4.2c-1.5-0.8-6.9-1-11.3-0.8c-4.4,0.1-9.5,1.2-11.4,1.3
		c-1.6,0-1.8-0.5-1.8-0.5s-1.8,0.3-2.3-0.4c-0.5-0.7,0-1.6,0-1.6c-0.8,0-2.1-0.1-2.1-0.9c0.1-0.8,0.7-1.1,0.7-1.1s0.4-0.3,1.2-0.8
		c0,0,0,0,0,0c1.3-0.8,3.5-2,6.2-2.8c2.7-0.8,4.4-1.1,6.2-1.4v0c1.2-0.2,2.4-0.3,4-0.6c4-0.7,7.2-3.2,7.4-3.4l0,0l-1-1.6
		c0,0-2.7,0.8-4.4-0.7c-1.7-1.4-2.7-5.1-1.5-5.6c1.2-0.5,4.2,2.7,5.1,3.6c0.9,0.9,3.4,0.6,4.3,1.2c1,0.6,3.1,1.4,3.6,2.6
		c0.5,1.2,1.2,6.4,1.8,8.2C57.6,127.2,60.2,128.8,60.2,128.8z"/>
	<path class="st8" d="M93.5,111l-4,19.3c-0.3,0.4-0.7,1.1-1.1,1.9c0,0,0,0,0,0c-1.9,3.6-4.6,10.5-6.8,16.3c-2.7,7.2-7.4,9.4-7.4,9.4
		c-10.4-5.1-16.9-20.3-16.9-20.3l-1.8-3.4c3.3-0.5,4.7-5.4,4.7-5.4l1.3-0.2c0.6-1.2,1.3-1,1.3-1c0.8,1.2,0.9,3.1,0.9,3.1
		c1.5,2.1,7.9,4.5,7.9,4.5s0-1.3,0.6-1.7c0.6-0.5,2.5,0,2.5,0c3.9-5.6,5.6-17.3,5.6-17.3c0.2-6.5,1.7-12.2,1.7-12.2L93.5,111z"/>
	<path class="st8" d="M146.4,108.1c0,0-7.4,11.5-14.3,21.9c-1.6,2.4-3.2,4.8-4.7,7c0,0-3.2,13.1-3.9,20.6c0,0,0.4,0,1.2,1.5l0,0.1
		c-0.1,0.3-0.4,1.4-1.2,2.5c0,0-1.8,1.1-4.7,2.2c-3.1,1.2-7.6,2.4-12.9,2.4c-10.3,0.1-10.8-1.9-10.8-1.9s-2.6-2.1-2.7-3.2
		c-0.1-1.1,0-1.7,0-1.7s-6.1-31-4.2-43.7c0,0-0.8-5.9-6.1-11.8c0,0,3.7-3.1,10.6-4.6c6.1-1.4,12.1-3.7,13.3-4.2
		c0.2-0.1,0.2-0.1,0.2-0.1s-0.6,5.5-0.8,7.2c-0.2,1.7,1.8,3.8,1.8,3.8s0.1-6.7,2.6-8.8c0,0,2.4-1,4.8-2.4c2-1.2,4-2.6,4.9-3.9
		l3.9,4.1c0,0,0.1,0.1,0.3,0.3c0.8,0.7,2.9,2.4,4.5,3C128.3,98.3,138.9,99.9,146.4,108.1z"/>
	<path class="st8" d="M152.7,158c-0.1,1-0.3,2.2-0.5,3.5c-1.7,8.1-6.4,20-7,21.1c-0.8,1.4-1.5,3.8-1.5,3.8c-3.9,0.8-6.9-3.1-6.9-3.1
		v-1.5c0,0-2-1.2-2-2.2c0-1.1,1.2-1.5,2-3c0.8-1.4,0.6-12.7,0.5-14.5c0-0.1,0-0.3-0.1-0.4c-0.3-1.7-1.9-3.9-1.8-4.8
		c0.1-0.6,0.5-1.4,0.8-2.1c0.3-0.5,0.5-0.9,0.5-0.9c0-8.3-1.8-15.6-3.4-20.4c-0.1-0.2-0.1-0.2-0.1-0.2c-1.2-3.6-2.3-5.7-2.3-5.7
		c1.9-16.1,15.5-19.4,15.5-19.4c0.8,2.6,1.3,17.8,1,20.5c-0.3,2.7,0.1,10.8,2.2,17.3c1.8,5.6,2.9,10.6,3.1,11.8
		C152.7,157.8,152.7,157.9,152.7,158C152.7,158,152.7,158,152.7,158z"/>
	<path class="st0" d="M130,302.4c0.1,0.3,0.1,0.7,0.1,1.3c-0.1,2.3-1.1,6.4-1.1,6.4l-3-2.9c-6-0.2-14.4,5.6-14.4,5.6
		s-0.3,1.8-0.4,1.6c-0.1-0.2-2.7-5.7-2.4-6.8c0.4-1.2,3.8-1.9,3.8-1.9s1.1-13.5,1.6-23.7c0.5-10.2-0.5-30.7-1.5-35.5
		c-1-4.8-2.1-10-2.1-10c-0.2-1.2-0.5-2.6-0.7-4.1c-0.5-3.6-1-7.9-1.4-12.4c0,0,0,0,0,0c-0.1-0.5-0.1-1.1-0.2-1.7
		c-1.4-16.1-2.2-34.3-2.2-34.3c4.7-11.1,17.3-10.6,17.3-10.6c0,2,0.9,15.7,1.9,29.7c0,0,0,0,0,0.1c0,0.1,0,0.1,0,0.2
		c0.1,1,0.1,2,0.2,3c0,0.4,0.1,0.8,0.1,1.3c0,0.4,0.1,0.8,0.1,1.2c0.9,12.2,1.9,23.5,2.5,26.2c1.3,6.1,4.5,19.8,4.5,19.8
		c1,13.4-4.2,43.7-4.3,44.7l0,0C129.4,299.6,130,302.4,130,302.4z"/>
	<path class="st0" d="M139.8,323.3c0,0-9,1.9-22,0c0,0-0.1-0.4-0.4-0.9c0,0,0,0,0,0c0-0.1-0.1-0.1-0.1-0.2c-0.3-0.5-0.6-1-1.2-1.5
		c-1.1-1-3.2-1.5-3.8-1.6l-0.1,0c-0.1,0-0.1,0-0.1,0s-1.1-3.8-0.5-6.3c0,0,8.2-6.8,14.4-5.6c0,0,1.5,0.6,2.1,1.6
		c0,0,0.9,1.4,2.2,3.2c1.5,1.9,3.6,4.3,5.7,5.4c0,0,2.2,1.1,3.1,2C140,320.4,139.8,323.3,139.8,323.3z"/>
	<path class="st0" d="M96.2,60.1c0,0,0.6-1,1.8-0.9c1.3,0.1,3.1,1.8,3.7,3.3c0,0-0.9-3.8-2.8-5.3c-1.5-1.2-2.5,0.5-2.8,1.3
		C96.2,58.5,96.1,59.5,96.2,60.1z"/>
	<path class="st0" d="M105.8,57.1c0,0,0.5,1.3,1.6,2.2c0,0,5.8-0.5,8.9,1.4C116.2,60.7,113,57.2,105.8,57.1z"/>
	<path class="st0" d="M101.3,67.1c-0.5,0.5-1.2,0.7-1.9,0.8c-0.4,0-0.7,0-1.1,0c-0.4,0-0.8-0.1-1.1-0.2c-0.3-0.1-0.4-0.1-0.4-0.1
		c-0.1-0.4-0.1-0.7-0.2-1c-0.1-1,0-1.8,0.2-2.4c0.2-0.7,0.4-1.1,0.4-1.1c0.5,0,0.9,0.1,1.3,0.2C100.9,64,101.3,67.1,101.3,67.1z"/>
	<path class="st0" d="M114.9,66.4c-1,0.8-2.1,1.2-3,1.4c-0.4,0.1-0.9,0.2-1.2,0.2c-1.1,0.1-2-0.1-2.3-0.2c-0.1,0-0.1,0-0.1,0
		c-0.5-0.6-0.6-3.9,0.8-4.4c0.2-0.1,0.3-0.1,0.4-0.1C112.8,62.2,114.9,66.4,114.9,66.4z"/>
	<path class="st0" d="M99.3,73.4c0,0,4.6-1,6.9,0.3c0,0-1.7,1.4-3.2,1.6C102.9,75.4,100.3,75.3,99.3,73.4z"/>
	<path class="st0" d="M104,75.1c0,0,1-1.7,2.2-1.4C106.2,73.8,105,74.8,104,75.1z"/>
	<path class="st0" d="M106.2,73.8c0.2,0.1-0.1-1.9-0.7-2.3c-0.6-0.4-2.2-1.2-3.9-0.6c-1.7,0.7-2.4,2.6-2.4,2.6
		S103.8,72.6,106.2,73.8z"/>
	<path class="st0" d="M105.9,71.8c0,0,0.5,0.8,0.2,1.9C106.2,73.8,107.5,73.3,105.9,71.8z"/>
	<path class="st0" d="M111.9,67.7c-0.4,0.1-0.9,0.2-1.2,0.2c-1.1,0.1-2-0.1-2.3-0.2c-0.1,0-0.1,0-0.1,0c-0.5-0.6-0.6-3.9,0.8-4.4
		c0.2-0.1,0.3-0.1,0.4-0.1c1.2-0.1,2.3,1.2,2.5,2.9C112.1,66.6,112,67.2,111.9,67.7z"/>
	<path class="st0" d="M110.6,67.9c-1.1,0.1-2-0.1-2.3-0.2c-0.2-0.3-0.3-0.7-0.4-1.1c-0.2-1.2,0.4-2.3,1.2-2.4c0.8-0.1,1.6,0.8,1.8,2
		C111.1,66.8,110.9,67.5,110.6,67.9z"/>
	<path class="st0" d="M99.4,67.9c-0.4,0-0.7,0-1.1,0c-0.4,0-0.8-0.1-1.1-0.2c-0.3-0.1-0.4-0.1-0.4-0.1c-0.1-0.4-0.1-0.7-0.2-1
		c-0.1-1,0-1.8,0.2-2.4c0.2-0.7,0.4-1.1,0.4-1.1c0.5,0,0.9,0.1,1.3,0.2c0.5,0.5,0.9,1.4,1,2.4C99.6,66.4,99.6,67.3,99.4,67.9z"/>
	<path class="st0" d="M98.3,67.9c-0.4,0-0.8-0.1-1.1-0.2c-0.2-0.3-0.5-0.7-0.6-1.2c-0.1-1,0-1.8,0.2-2.4c0.1-0.2,0.3-0.3,0.5-0.4
		c0.6-0.1,1.3,0.8,1.5,2C98.9,66.7,98.7,67.5,98.3,67.9z"/>
	<path class="st0" d="M96.9,63.7c0,0-0.2-1.1-0.1-1.5c0.5,0,3.3,0.5,4.3,4.1c0,0-0.8-2.4-3.9-3.3L96.9,63.7z"/>
	<path class="st0" d="M107.9,65.4c0,0-0.2-2.2,0.5-2.9c0,0,3.8-0.7,6,3.2c0,0-2-2.9-5.7-2.3C108.8,63.5,108.1,64.3,107.9,65.4z"/>
	<path class="st0" d="M112.5,65.9c0,0.2-0.2,0.4-0.4,0.4c-0.2,0-0.4-0.2-0.4-0.4c0-0.2,0.2-0.4,0.4-0.4
		C112.3,65.4,112.5,65.6,112.5,65.9z"/>
	<path class="st0" d="M100,66.2c0,0.2-0.2,0.4-0.4,0.4c-0.2,0-0.4-0.2-0.4-0.4c0-0.2,0.2-0.4,0.4-0.4C99.8,65.8,100,66,100,66.2z"/>
	<path class="st0" d="M99.8,78.2c0,0,1.6,0.4,4,0c2.4-0.4,6.4-2.8,6.4-2.8s0.4,0.3,0.3,0.6c-0.1,0.4-2.2,5.4-7,6.1
		c0,0-1.2-0.3-2.9-3.1L99.8,78.2z"/>
	<path class="st0" d="M99.8,78.2c0,0,1.7,0.3,4.5-0.4c2.8-0.7,5.9-2.3,5.9-2.3s-4.5,3.3-9.1,3.2c0,0,1.2,2.3,2.6,3.2
		c0,0,3.3-0.6,4.7-2.6c1.4-2,1.3-3.5,1.3-3.5l0.5-0.4l0.4,0.4c0,0-2.1,5.8-7.2,6.3c0,0-1.8-0.6-3.1-3.4L99.8,78.2z"/>
	<path class="st0" d="M109,75.6c0,0,1.9,0.4,2.8,1.3c0,0-0.7-2-1.6-2.1C110.2,74.9,109.4,74.6,109,75.6z"/>
	<path class="st0" d="M98.8,46.6c0,0-0.6,1.8-0.3,3.5c-3,3.1-2.2,11.3-2.2,11.3c-3.3-2.9-4-9.1-4-9.1c-1.4,0.6-1.5,1.3-1.5,1.5
		c0-0.3,0-2.9,2.9-4.4C96.7,47.9,98.8,46.6,98.8,46.6z"/>
	<path class="st0" d="M98.5,50.1c0.2,1.3,0.2,1.6,0.2,1.7C98.3,50.8,98.5,50.1,98.5,50.1z"/>
	<path class="st0" d="M127.7,54.5c-0.3,2.3-2.6,12.2-2.6,12.2l-0.4,1.6l-2.4,1.1c-1.7-2-3.5-8.3-3.5-9.2c0.1-0.9,1.1-2.8,1-4.5
		c-0.1-1.7-1.9-4.8-3-5.5c-1.1-0.7-4.7-0.6-8.2-0.6s-5.5-0.8-5.5-0.8c-2.2,0.3-3.8,2.3-4.2,2.9c0.7-1,4.6-6.3,9.1-8.2l-1.2,1.5
		c0.2-0.2,4-3,6.6-2.7c2.7,0.3,3.8,2.8,5.3,7.2c1.5,4.4,3.5,6.8,6,7.2C127,57.2,127.6,54.8,127.7,54.5z"/>
	<path class="st0" d="M122.7,68.9c0,0,2.6-2,6.1-2.2c0,0,2.3,1.9,2.1,5.9c-0.2,4.1-6.6,6.9-7.7,6.5c-1.1-0.5-1.9-3-1.9-3
		S121.2,69.8,122.7,68.9z"/>
	<path class="st0" d="M122.4,71.8c0,0,1.8-2.6,6.5-2.4c0,0,0.8,1.1,0.7,3.7c0,2.7-2.1,3.8-2.1,3.8s1.8-1.7,1.5-4.1
		c-0.2-2.3-0.2-2.3-0.2-2.3s-2-0.4-4.2,1.2c-2.2,1.6-2,3.6-2,3.6S121.6,73.4,122.4,71.8z"/>
	<path class="st0" d="M126.6,70.2c0,0,0.2,1.2-0.4,3.1c-0.6,1.9-2.7,1.5-2.7,1.5s1.9,0.4,2.1-1.3c0.2-1.8-0.8-2.3-0.8-2.3
		L126.6,70.2z"/>
	<path class="st9" d="M88.4,132.1C88.4,132.1,88.4,132.1,88.4,132.1c-1.9,3.6-4.6,10.5-6.8,16.3c-2.7,7.2-7.4,9.4-7.4,9.4
		c-10.4-5.1-16.9-20.3-16.9-20.3l-1.8-3.4c3.3-0.5,4.7-5.4,4.7-5.4l1.3-0.2c0.6-1.2,1.3-1,1.3-1c0.8,3.9-2.6,9.4-2.6,9.4
		c3.5,6.6,14.3,10.3,14.3,10.3c0.2-6.1-2.9-12.1-2.9-12.1l0.6-1.7c2.1,1.9,4.7,7.5,4.7,7.5c-0.5-4.4-2.1-7.3-2.2-7.5
		c1.1,1,5.9,3.6,5.9,3.6s1.2-1.7,2.7-6.1c1.5-4.4,3.3-15,3.3-15l-1.7-5.9c1.2,0.8,3.3,5.8,3.3,5.8C87.3,121.3,88.3,131.8,88.4,132.1
		z"/>
	<path class="st9" d="M136.7,153.8c0-8.3-1.8-15.6-3.4-20.4c0.5,1.5,3.4,10.1,4.7,20.5c0,0,3.7,3.3,7.1,3.9c0,0-6,0.6-8.9-3.1
		C136.5,154.2,136.7,153.8,136.7,153.8z"/>
	<path class="st9" d="M152.2,161.5c-1.7,8.1-6.4,20-7,21.1c-0.8,1.4-1.5,3.8-1.5,3.8c-3.9,0.8-6.9-3.1-6.9-3.1v-1.5c0,0-2-1.2-2-2.2
		c0-1.1,1.2-1.5,2-3c0.8-1.4,0.6-12.7,0.5-14.5c0-0.1,0-0.3-0.1-0.4c2.1,2.5,4.6,5.2,6.7,6.2C147.1,169.4,150.7,165.1,152.2,161.5z"
		/>
	<polygon class="st9" points="112.3,123.8 112.3,125.3 126.2,125.3 126.2,118.2 	"/>
	<path class="st0" d="M112.5,118.2c0,0-0.8,2.4-0.8,6.3H125l0.8-6.3C125.8,118.2,120.9,117.1,112.5,118.2z"/>
	<path class="st0" d="M125.8,118.2h0.4l-0.7,6.3H125C125,124.5,125.5,119,125.8,118.2z"/>
	<path class="st9" d="M132,130.1l-3.7-6.7v3.4l-8.5,6.5c-1.4-0.2-3.2-0.5-5.6-0.9c-2.8-0.4-6.6-0.7-10.4-0.9
		c-0.1-3.2-0.1-5.8,0.1-7.5c0.5-2.6,2.8-11.5,2.8-11.5s6.9-1.2,12-5.3c5.1-4.1,5-11.9,5-11.9l-9.1-0.5c-2.5,1.4-4.8,2.4-4.8,2.4
		c-2.5,2.1-2.6,8.8-2.6,8.8s-2-2.1-1.8-3.8c0.2-1.7,0.8-7.2,0.8-7.2s-0.1,0-0.2,0.1c-1.4,1.5-4.1,5.2-3.6,10.5c0,0,1.4,3.7,3,5.7
		c0,0-2.4,13.1-2.4,16.1c0,1.2,0,2.5,0.1,4c-7.4-0.4-14.7-0.5-14.7-0.5l0.1,2.3c0,0,2.5-0.1,13.7,0c0.3,0,0.6,0,1,0
		c0.1,1.8,0.2,3.5,0.2,4.9c-0.1,3-1,15.1-1,15.1s-6.8-2.1-10.1-6.5c0.6,0.8,4,5.5,10.2,9.2c0,0,0.5,6.7,0.9,7.6
		c0.4,1,1.3,2.1,1.3,2.1s-9.5-2.4-12.2-4.4c0.1,1.1,2.7,3.2,2.7,3.2s0.5,2,10.8,1.9c5.3-0.1,9.8-1.3,12.9-2.4l0,0c0,0,0.1,0,0.1,0
		c0.3-0.1,0.6-0.2,0.9-0.4c0.1,0,0.1-0.1,0.2-0.1c0.2-0.1,0.5-0.2,0.7-0.3c0.1,0,0.2-0.1,0.3-0.1c0.2-0.1,0.4-0.2,0.5-0.2
		c0.1-0.1,0.2-0.1,0.3-0.1c0.1-0.1,0.3-0.1,0.4-0.2c0.1-0.1,0.2-0.1,0.3-0.2c0.1,0,0.2-0.1,0.2-0.1c0.1-0.1,0.2-0.1,0.3-0.1
		c0,0,0.1-0.1,0.1-0.1c0.1,0,0.1-0.1,0.2-0.1c0,0,0,0,0,0c0.1,0,0.1,0,0.1,0c0.7-1.1,1.1-2.2,1.2-2.5l0-0.1
		c-0.8-1.5-1.2-1.5-1.2-1.5c0.7-7.5,3.9-20.6,3.9-20.6C128.8,134.9,130.4,132.5,132,130.1z M115.6,133.5l3.7,1.7
		c0,0,0.9,18.8-1.2,22.7l0,0c-1.4,0.3-3.3,0.4-5.2,0c-4.4-0.9-8.8-2.9-8.8-2.9s0.2-11.9,0-17.7c0-1.4-0.1-2.8-0.2-4.1
		C108.2,133.3,112.3,133.4,115.6,133.5z M106.2,165c0,0-2.1-1.3-2.3-2.9c-0.2-1.5-0.3-4.7-0.3-4.7s5.2,1.9,9.8,1.7
		c2-0.1,3.6-0.5,4.9-0.9l2,3.3C117.1,162.9,112.3,164.6,106.2,165z"/>
	<path class="st8" d="M107.4,103.9c0,0,0.5-4.8,2.9-6c0,0,2.9,2.7,4.4,10.2c0,0,7.3-5.5,9.1-12.8c0,0-2.4-5.6-3.9-7
		c0,0-0.2,1.7-0.6,2.7c-0.4,0.9-6.4,4.9-9.9,6C109.4,96.9,107.4,99.4,107.4,103.9z"/>
	<path class="st8" d="M105.5,102.8l1.3-11.6c0,0-2.4,1.7-4,5.8c0,0-0.9,4.8-0.3,8.6c0,0,0.3-6.4,2.8-8.5
		C105.2,97.2,105.2,99.7,105.5,102.8z"/>
	<path class="st9" d="M108.4,217.3c0,0,0,1,0.1,2.7c-0.1-0.5-0.1-1.1-0.2-1.7L108.4,217.3z"/>
	<path class="st9" d="M130.1,303.7c-0.1,2.3-1.1,6.4-1.1,6.4l-3-2.9c-6-0.2-14.4,5.6-14.4,5.6s-0.3,1.8-0.4,1.6
		c-0.1-0.2-2.7-5.7-2.4-6.8c0.4-1.2,3.8-1.9,3.8-1.9s-1.6,0.8,0,3.1C112.6,308.8,123.7,303.4,130.1,303.7z"/>
	<path class="st9" d="M128.5,299.4L128.5,299.4l-15.9,6.3c0,0,1.1-13.5,1.6-23.7c0.5-10.2-0.5-30.7-1.5-35.5c-1-4.8-2.1-10-2.1-10
		c-0.2-1.2-0.5-2.6-0.7-4.1c0.9,4.2,2.2,8.2,4.3,10.1c0,0,10.2,0.4,11.8-6.5c1.1-4.8,0.4-19.1-0.2-27.2c0.9,12.2,1.9,23.5,2.5,26.2
		c1.3,6.1,4.5,19.8,4.5,19.8C133.9,268.2,128.7,298.5,128.5,299.4z"/>
	<path class="st9" d="M117.5,322.7c0.5,1.2,1,2.1,1.1,2.2C118,324.5,117.6,323.2,117.5,322.7z"/>
	<path class="st9" d="M130.4,312c-5.7-0.9-13.4,2.2-13.8,5.3c-0.1,0.8-0.1,1.7,0.1,2.5c0.1,0.9,0.4,1.7,0.7,2.4
		c0,0.1,0.1,0.1,0.1,0.2l-4.9-0.9c-0.3-1.7-0.4-2.5-0.4-2.5s-1.1-3.8-0.5-6.3c0,0,8.2-6.8,14.4-5.6c0,0,1.5,0.6,2.1,1.6
		C128.1,308.8,129,310.3,130.4,312z"/>
	<path class="st9" d="M130.3,127c0,0,5.9,10.5,12,15.9c0,0-8.7-14.7-10.7-20.3L130.3,127z"/>
	<path class="st9" d="M106.7,193.6c0,0-6.9-10.8-7.8-13.3c0,0,3.7,5.2,7.5,6.2L106.7,193.6z"/>
	<path class="st0" d="M52.7,124.3c0,0-3.9-1.5-7.2,0c-3.3,1.5-7.4,4.3-7.4,4.3l-3,0.4c0,0-5.6-0.2-7.4,1.9c0-0.1,0.4-0.9,2.1-1.6
		c1.9-0.8,5.6-0.8,5.6-0.8s0.4-0.5,0.4-1.3c0,0-4.9-1.1-10.5,1.7c0.2-0.1,3.9-2.5,10.5-2.4c0,0,0.9-0.8,0.8-2.1
		c0,0-6.3-0.1-11.4,1.7c0.7-0.3,6.5-2.4,11.4-2.1c0,0,0.7-1,0.9-2.1v0c1.2-0.2,2.4-0.3,4-0.6c4-0.7,7.2-3.2,7.4-3.4l0,0
		c0,0,0.7,2.9,1.5,4C51.4,123,52.7,124.3,52.7,124.3z"/>
	<path class="st0" d="M54.2,132.8c0,0,3.9-0.5,6-4c0,0-0.3,3.9-4.7,5.4L54.2,132.8z"/>
	<path class="st8" d="M118.5,78.8c0.1,0.9,0.3,1.6,0.5,1.8c-0.9,1.4-1.8,2.7-3,3.8c-0.2,0.2-0.5,0.5-0.7,0.7c-0.5,0.4-1,0.9-1.5,1.3
		c-4.2,3.2-8.6,4.9-11.1,3.5c-2.6-1.4-6.9-7.9-7.4-12.5c-0.4-3.2,0.1-5.4,0.6-7.6c2.1,0.5,3.6,0.7,5.1,0.3c0.2,0,0.4-0.1,0.5-0.2
		c0,0,0,0,0,0c2.1-0.8,3.5-0.8,5.3,0.1c2.6,1.3,8.1,1.3,12.1,0.3c0,0,0.1,0,0.1,0c0,0.1-0.1,0.2-0.1,0.2c-0.3,0.9-0.5,2.2-0.6,3.5
		c0,0.3,0,0.7,0,1c0,0.7,0,1.3,0,1.9c0,0.3,0,0.7,0.1,1C118.4,78.2,118.4,78.5,118.5,78.8z"/>
	<path class="st8" d="M101.4,69.9c-0.4,0.6-0.9,1.1-1.5,1.5c0.4-0.4,0.7-0.8,1-1.3C101,70,101.2,69.9,101.4,69.9z"/>
	<g>
		<path class="st8" d="M118.9,70.2c-1.4,0.5-2.9,0.8-4.4,1c-0.8,0.1-1.5,0.1-2.3,0.2c-0.8,0-1.5,0-2.3-0.1c-0.8-0.1-1.5-0.2-2.3-0.4
			c-0.4-0.1-0.8-0.2-1.1-0.4c-0.4-0.2-0.6-0.3-1-0.4c-0.6-0.2-1.3-0.3-2-0.3c-0.7,0.1-1.4,0.3-2.1,0.5c0,0,0,0,0,0h0l0,0v0l0,0
			c-0.5,0.1-1,0.3-1.4,0.3c-0.5,0-1,0-1.5,0c-1-0.1-1.9-0.4-2.8-0.7c2.1,0.5,3.6,0.7,5.1,0.3c0.2,0,0.4-0.1,0.5-0.2c0,0,0,0,0,0
			c2.1-0.8,3.5-0.8,5.3,0.1C109.3,71.3,114.9,71.3,118.9,70.2z"/>
	</g>
	<path class="st0" d="M99.3,73.4c0,0,4.6-1,6.9,0.3c0,0-1.7,1.4-3.2,1.6C102.9,75.4,100.3,75.3,99.3,73.4z"/>
	<path class="st0" d="M118.9,80.7c0,0,1.7-2.5,2.4-4.2l-0.1-0.3c-0.6,1.2-2.4,4.3-2.4,4.3L118.9,80.7z"/>
	<path class="st0" d="M118.9,70.2c0,0,1.8-0.6,3.5-1.1l-0.2,0.3c-1.3,0.5-3.4,1.2-3.4,1.2L118.9,70.2z"/>
	<path class="st21" d="M118.5,78.8C118.5,78.8,118.5,78.8,118.5,78.8c0-0.1,0-0.2,0-0.4c0-0.1,0-0.2,0-0.3c0,0,0,0,0,0
		c0-0.4-0.1-0.8-0.1-1.3c-0.1,0.4-0.2,0.9-0.4,1.4c-0.5,0.4-0.9,0.8-1.4,1.1c-0.9,0.6-1.8,1-2.7,1.4c-1,0.4-1.9,0.7-3,0.9
		c-1,0.3-2,0.4-3.1,0.5c1,0,2.1-0.1,3.1-0.3c1-0.1,2.1-0.4,3.1-0.7c1-0.3,2-0.8,2.9-1.3c0.2-0.1,0.4-0.3,0.7-0.4
		c-0.8,2.3-2,4.8-3.7,7c0.5-0.4,1-0.8,1.5-1.3c0.2-0.2,0.5-0.5,0.7-0.7c1.1-1.2,2.1-2.5,3-3.8C118.8,80.4,118.6,79.7,118.5,78.8z"/>
	<g class="st22">
		<path class="st8" d="M118.3,73.9c0,0.3,0,0.7,0,1c-0.2,0.1-0.5,0.2-0.7,0.3c-0.7,0.3-1.3,0.5-2,0.7c-0.7,0.2-1.4,0.3-2.1,0.4
			c-0.7,0.1-1.4,0.2-2.1,0.2c0.7-0.1,1.4-0.3,2-0.4c0.7-0.2,1.3-0.4,2-0.6c0.6-0.3,1.3-0.5,1.9-0.9C117.6,74.4,118,74.2,118.3,73.9z
			"/>
	</g>
</g>
</svg>
