<svg id="Capa_1" data-name="Capa 1" xmlns="http://www.w3.org/2000/svg" viewBox="0 0 481.5 544.39"><text transform="translate(144.67 11.92)" style="font-size:14.02538013458252px;fill:#39b396;font-family:RussoOne-Regular, Russo One">Q1 2022 </text><text transform="translate(122.51 40.24)" style="font-size:14.02538013458252px;fill:#10b4ea;font-family:RussoOne-Regular, Russo One">Launchpad</text><text transform="translate(67.7 62.71)" style="font-size:12.946499824523926px;fill:#698da6;font-family:SairaCondensed-Medium, Saira Condensed;font-weight:500"><tspan style="letter-spacing:-0.030002528840978333em">W</tspan><tspan x="8.78" y="0">eb 1.0, community suppo</tspan><tspan x="122.51" y="0" style="letter-spacing:0.007995645649638474em">r</tspan><tspan x="126.42" y="0" style="letter-spacing:-0.04899218725886971em">t</tspan><tspan x="129.45" y="0">, </tspan></text><text transform="translate(46.09 78.25)" style="font-size:12.946499824523926px;fill:#698da6;font-family:SairaCondensed-Medium, Saira Condensed;font-weight:500">mar<tspan x="18.14" y="0" style="letter-spacing:-0.009013959010677336em">k</tspan><tspan x="23.39" y="0" style="letter-spacing:-0.00401668047965329em">e</tspan><tspan x="28.87" y="0">ting plan, NF</tspan><tspan x="86.27" y="0" style="letter-spacing:-0.015010693247906192em">T</tspan><tspan x="91.44" y="0" xml:space="preserve"> d</tspan><tspan x="99.72" y="0" style="letter-spacing:-0.009013959010677336em">ev</tspan><tspan x="110.31" y="0" style="letter-spacing:-0.000018857654834053006em">elopment</tspan></text><text transform="translate(276.51 100)" style="font-size:14.02538013458252px;fill:#39b396;font-family:RussoOne-Regular, Russo One">Q1 2022</text><text transform="translate(276.51 128.31)" style="font-size:14.02538013458252px;fill:#10b4ea;font-family:RussoOne-Regular, Russo One">Nomadzland Communi<tspan x="157.5" y="0" style="letter-spacing:-0.02000071124156735em">t</tspan><tspan x="163.39" y="0">y</tspan></text><text transform="translate(276.51 150.79)" style="font-size:12.946499824523926px;fill:#698da6;font-family:SairaCondensed-Medium, Saira Condensed;font-weight:500">Community <tspan x="54.81" y="0" style="letter-spacing:-0.004997278531024047em">r</tspan><tspan x="58.56" y="0" style="letter-spacing:-0.008995101355843284em">ew</tspan><tspan x="71.88" y="0">a</tspan><tspan x="77.37" y="0" style="letter-spacing:-0.003997822824819237em">r</tspan><tspan x="81.12" y="0">ds, ai</tspan><tspan x="105.11" y="0" style="letter-spacing:-0.003997822824819237em">r</tspan><tspan x="108.86" y="0">d</tspan><tspan x="114.66" y="0" style="letter-spacing:-0.003997822824819237em">r</tspan><tspan x="118.42" y="0">ops, gi</tspan><tspan x="148.36" y="0" style="letter-spacing:-0.009994557062048093em">v</tspan><tspan x="153.53" y="0" style="letter-spacing:-0.000018857654834053006em">e</tspan><tspan x="159.06" y="0" style="letter-spacing:-0.008995101355843284em">a</tspan><tspan x="164.43" y="0" style="letter-spacing:-0.010013414716882146em">w</tspan><tspan x="172.33" y="0">ays </tspan></text><text transform="translate(276.51 166.33)" style="font-size:12.946499824523926px;fill:#698da6;font-family:SairaCondensed-Medium, Saira Condensed;font-weight:500">&amp; mo<tspan x="23.87" y="0" style="letter-spacing:-0.003997822824819237em">r</tspan><tspan x="27.63" y="0" style="letter-spacing:-0.000018857654834053006em">e, apply </tspan><tspan x="66.4" y="0" style="letter-spacing:-0.0050161361858581em">t</tspan><tspan x="70" y="0">o li</tspan><tspan x="83.43" y="0" style="letter-spacing:-0.003997822824819237em">s</tspan><tspan x="88.24" y="0">t NFT´s in OpenSea, </tspan></text><text transform="translate(276.51 181.86)" style="font-size:12.946499824523926px;fill:#698da6;font-family:SairaCondensed-Medium, Saira Condensed;font-weight:500"><tspan style="letter-spacing:-0.00401668047965329em">t</tspan><tspan x="3.61" y="0" style="letter-spacing:0.000018857654834053006em">o</tspan><tspan x="9.27" y="0" style="letter-spacing:-0.009013959010677336em">k</tspan><tspan x="14.53" y="0">en and bac</tspan><tspan x="63.8" y="0" style="letter-spacing:-0.010013414716882146em">k</tspan><tspan x="69.04" y="0">end suppo</tspan><tspan x="116.66" y="0" style="letter-spacing:0.008014503304472528em">r</tspan><tspan x="120.57" y="0" style="letter-spacing:-0.000018857654834053006em">t deployment</tspan></text><text transform="translate(145.51 191.13)" style="font-size:14.02538013458252px;fill:#39b396;font-family:RussoOne-Regular, Russo One">Q1 2022</text><text transform="translate(44.18 219.45)" style="font-size:14.02538013458252px;fill:#10b4ea;font-family:RussoOne-Regular, Russo One">Nomadzland p<tspan x="100.56" y="0" style="letter-spacing:-0.02000071124156735em">r</tspan><tspan x="106.73" y="0">eseason</tspan></text><text transform="translate(57.12 241.93)" style="font-size:12.946499824523926px;fill:#698da6;font-family:SairaCondensed-Medium, Saira Condensed;font-weight:500"><tspan style="letter-spacing:-0.030002528840978333em">W</tspan><tspan x="8.78" y="0">eb 2.0 &amp; mar</tspan><tspan x="67.2" y="0" style="letter-spacing:-0.009994557062048093em">k</tspan><tspan x="72.45" y="0" style="letter-spacing:-0.00401668047965329em">e</tspan><tspan x="77.92" y="0">tplace upd</tspan><tspan x="125.49" y="0" style="letter-spacing:-0.004997278531024047em">a</tspan><tspan x="130.91" y="0" style="letter-spacing:-0.003997822824819237em">t</tspan><tspan x="134.52" y="0" style="letter-spacing:-0.000018857654834053006em">e,</tspan></text><text transform="translate(113.21 257.46)" style="font-size:12.946499824523926px;fill:#698da6;font-family:SairaCondensed-Medium, Saira Condensed;font-weight:500">NF<tspan x="12.03" y="0" style="letter-spacing:-0.01399237988686733em">T</tspan><tspan x="17.21" y="0" xml:space="preserve"> minting period</tspan></text><text transform="translate(276.51 284.56)" style="font-size:14.02538013458252px;fill:#39b396;font-family:RussoOne-Regular, Russo One">Q1 2022</text><text transform="translate(276.51 312.88)" style="font-size:14.02538013458252px;fill:#10b4ea;font-family:RussoOne-Regular, Russo One">Nomadzland season 1</text><text transform="translate(276.51 335.35)" style="font-size:12.946499824523926px;fill:#698da6;font-family:SairaCondensed-Medium, Saira Condensed;font-weight:500">NF<tspan x="12.03" y="0" style="letter-spacing:-0.01399237988686733em">T</tspan><tspan x="17.21" y="0"> </tspan><tspan x="19.69" y="0" style="letter-spacing:-0.00401668047965329em">r</tspan><tspan x="23.45" y="0">elease, IDO </tspan><tspan x="76.73" y="0" style="letter-spacing:-0.004997278531024047em">t</tspan><tspan x="80.33" y="0">o</tspan><tspan x="85.99" y="0" style="letter-spacing:-0.009013959010677336em">k</tspan><tspan x="91.24" y="0">en, </tspan><tspan x="107.8" y="0" style="letter-spacing:-0.0050161361858581em">t</tspan><tspan x="111.4" y="0" style="letter-spacing:0.000018857654834053006em">o</tspan><tspan x="117.06" y="0" style="letter-spacing:-0.009013959010677336em">k</tspan><tspan x="122.32" y="0">en sale,</tspan></text><text transform="translate(276.51 350.89)" style="font-size:12.946499824523926px;fill:#698da6;font-family:SairaCondensed-Medium, Saira Condensed;font-weight:500">LAND &amp; ROL p<tspan x="62.62" y="0" style="letter-spacing:-0.004997278531024047em">r</tspan><tspan x="66.36" y="0" style="letter-spacing:-0.000018857654834053006em">esale</tspan></text><text transform="translate(145.51 379.52)" style="font-size:14.02538013458252px;fill:#39b396;font-family:RussoOne-Regular, Russo One">Q1 2022</text><text transform="translate(33.45 407.84)" style="font-size:14.02538013458252px;fill:#10b4ea;font-family:RussoOne-Regular, Russo One">Nomadzland me<tspan x="113.11" y="0" style="letter-spacing:-0.01899110179682331em">t</tspan><tspan x="119.02" y="0" style="letter-spacing:-0.0089994497057357em">a</tspan><tspan x="127.24" y="0" style="letter-spacing:-0.010009059150479744em">v</tspan><tspan x="135.23" y="0" style="letter-spacing:0.000017407059392138686em">erse</tspan></text><text transform="translate(24.12 430.31)" style="font-size:12.946499824523926px;fill:#698da6;font-family:SairaCondensed-Medium, Saira Condensed;font-weight:500">Fir<tspan x="11.68" y="0" style="letter-spacing:-0.003997822824819237em">s</tspan><tspan x="16.49" y="0">t </tspan><tspan x="22.64" y="0" style="letter-spacing:-0.003997822824819237em">r</tspan><tspan x="26.4" y="0" style="letter-spacing:-0.009994557062048093em">e</tspan><tspan x="31.8" y="0" style="letter-spacing:-0.009013959010677336em">v</tspan><tspan x="36.97" y="0">enue sha</tspan><tspan x="78.39" y="0" style="letter-spacing:-0.004997278531024047em">r</tspan><tspan x="82.13" y="0">es, LAND &amp; ROL sale,</tspan></text><text transform="translate(48.48 445.85)" style="font-size:12.946499824523926px;fill:#698da6;font-family:SairaCondensed-Medium, Saira Condensed;font-weight:500"><tspan style="letter-spacing:-0.003997822824819237em">s</tspan><tspan x="4.82" y="0" style="letter-spacing:-0.008995101355843284em">t</tspan><tspan x="8.36" y="0">a</tspan><tspan x="13.85" y="0" style="letter-spacing:0.008995101355843284em">r</tspan><tspan x="17.78" y="0" style="letter-spacing:-0.000018857654834053006em">t </tspan><tspan x="23.92" y="0" style="letter-spacing:-0.003997822824819237em">s</tspan><tspan x="28.74" y="0" style="letter-spacing:-0.009994557062048093em">t</tspan><tspan x="32.27" y="0">aking periods, CMC li</tspan><tspan x="125.98" y="0" style="letter-spacing:-0.004978420876189994em">s</tspan><tspan x="130.78" y="0" style="letter-spacing:-0.000018857654834053006em">ting,</tspan></text><text transform="translate(131.85 461.38)" style="font-size:12.946499824523926px;fill:#698da6;font-family:SairaCondensed-Medium, Saira Condensed;font-weight:500">game planning</text><text transform="translate(276.51 473.36)" style="font-size:14.02538013458252px;fill:#39b396;font-family:RussoOne-Regular, Russo One">Q2 2022</text><text transform="translate(276.51 501.68)" style="font-size:14.02538013458252px;fill:#10b4ea;font-family:RussoOne-Regular, Russo One">Nomadzland season 2</text><text transform="translate(276.51 524.16)" style="font-size:12.946499824523926px;fill:#698da6;font-family:SairaCondensed-Medium, Saira Condensed;font-weight:500">Game d<tspan x="34.41" y="0" style="letter-spacing:-0.009994557062048093em">ev</tspan><tspan x="44.98" y="0">elomen</tspan><tspan x="79.01" y="0" style="letter-spacing:-0.04901104491370376em">t</tspan><tspan x="82.04" y="0">,</tspan></text><text transform="translate(276.51 539.69)" style="font-size:12.946499824523926px;fill:#698da6;font-family:SairaCondensed-Medium, Saira Condensed;font-weight:500">season 2 <tspan x="42.9" y="0" style="letter-spacing:-0.004997278531024047em">r</tspan><tspan x="46.65" y="0" style="letter-spacing:-0.009013959010677336em">e</tspan><tspan x="52.06" y="0" style="letter-spacing:-0.009994557062048093em">v</tspan><tspan x="57.22" y="0" style="letter-spacing:-0.000018857654834053006em">enue model &amp; mo</tspan><tspan x="137.27" y="0" style="letter-spacing:-0.004997278531024047em">r</tspan><tspan x="141.01" y="0">e</tspan></text><polyline points="238.75 21.89 22.25 21.89 22.25 56.89" style="fill:none;stroke:#fff;stroke-miterlimit:10;stroke-width:0.5px"/><line x1="238.75" y1="482.39" x2="238.75" y2="21.89" style="fill:none;stroke:#fff;stroke-miterlimit:10;stroke-width:0.5px"/><polyline points="238.25 107.89 481.25 107.89 481.25 136.39" style="fill:none;stroke:#fff;stroke-miterlimit:10;stroke-width:0.5px"/><polyline points="238.25 199.89 24.25 199.89 24.25 240.89" style="fill:none;stroke:#fff;stroke-miterlimit:10;stroke-width:0.5px"/><polyline points="237.25 292.89 466.25 292.89 466.25 330.89" style="fill:none;stroke:#fff;stroke-miterlimit:10;stroke-width:0.5px"/><polyline points="237.25 387.89 0.25 387.89 0.25 421.89" style="fill:none;stroke:#fff;stroke-miterlimit:10;stroke-width:0.5px"/><polyline points="238.25 481.89 461.25 481.89 461.25 511.89" style="fill:none;stroke:#fff;stroke-miterlimit:10;stroke-width:0.5px"/><rect x="237.7" y="20.48" width="11.9" height="11.9" transform="translate(47.87 175.99) rotate(-45)" style="fill:#3bb396"/><path d="M243.65,19.43l7,7-7,7-7-7,7-7m0-2.83L242.23,18l-7,7-1.41,1.42,1.41,1.41,7,7,1.42,1.42,1.41-1.42,7-7,1.42-1.41L252.06,25l-7-7-1.41-1.41Z" transform="translate(-4.81 -4.04)" style="fill:#fff"/><rect x="237.7" y="105.48" width="11.9" height="11.9" transform="translate(-12.24 200.88) rotate(-45)" style="fill:#3bb396"/><path d="M243.65,104.43l7,7-7,7-7-7,7-7m0-2.83L242.23,103l-7,7-1.41,1.42,1.41,1.41,7,7,1.42,1.42,1.41-1.42,7-7,1.42-1.41L252.06,110l-7-7-1.41-1.41Z" transform="translate(-4.81 -4.04)" style="fill:#fff"/><rect x="237.7" y="197.48" width="11.9" height="11.9" transform="translate(-77.29 227.83) rotate(-45)" style="fill:#3bb396"/><path d="M243.65,196.43l7,7-7,7-7-7,7-7m0-2.83L242.23,195l-7,7-1.41,1.42,1.41,1.41,7,7,1.42,1.42,1.41-1.42,7-7,1.42-1.41L252.06,202l-7-7-1.41-1.41Z" transform="translate(-4.81 -4.04)" style="fill:#fff"/><rect x="237.7" y="290.48" width="11.9" height="11.9" transform="translate(-143.05 255.07) rotate(-45)" style="fill:#3bb396"/><path d="M243.65,289.43l7,7-7,7-7-7,7-7m0-2.83L242.23,288l-7,7-1.41,1.42,1.41,1.41,7,7,1.42,1.42,1.41-1.42,7-7,1.42-1.41L252.06,295l-7-7-1.41-1.41Z" transform="translate(-4.81 -4.04)" style="fill:#fff"/><rect x="237.7" y="385.48" width="11.9" height="11.9" transform="translate(-210.23 282.89) rotate(-45)" style="fill:#3bb396"/><path d="M243.65,384.43l7,7-7,7-7-7,7-7m0-2.83L242.23,383l-7,7-1.41,1.42,1.41,1.41,7,7,1.42,1.42,1.41-1.42,7-7,1.42-1.41L252.06,390l-7-7-1.41-1.41Z" transform="translate(-4.81 -4.04)" style="fill:#fff"/><rect x="237.7" y="479.48" width="11.9" height="11.9" transform="translate(-276.7 310.43) rotate(-45)" style="fill:#3bb396"/><path d="M243.65,478.43l7,7-7,7-7-7,7-7m0-2.83L242.23,477l-7,7-1.41,1.42,1.41,1.41,7,7,1.42,1.42,1.41-1.42,7-7,1.42-1.41L252.06,484l-7-7-1.41-1.41Z" transform="translate(-4.81 -4.04)" style="fill:#fff"/></svg>