<?xml version="1.0" encoding="utf-8"?>
<!-- Generator: Adobe Illustrator 26.0.3, SVG Export Plug-In . SVG Version: 6.00 Build 0)  -->
<svg version="1.1" id="Capa_1" xmlns="http://www.w3.org/2000/svg" xmlns:xlink="http://www.w3.org/1999/xlink" x="0px" y="0px"
	 viewBox="0 0 481.5 544.4" style="enable-background:new 0 0 481.5 544.4;" xml:space="preserve">
<style type="text/css">
	.st0{fill:#39B396;}
	.st1{font-family:'RussoOne-Regular';}
	.st2{font-size:14.0254px;}
	.st3{fill:#10B4EA;}
	.st4{fill:#698DA6;}
	.st5{font-family:'SairaCondensed-Medium';}
	.st6{font-size:12.9465px;}
	.st7{fill:none;stroke:#FFFFFF;stroke-width:0.5;stroke-miterlimit:10;}
	.st8{fill:#3BB396;}
	.st9{fill:#FFFFFF;}
</style>
<text transform="matrix(1 0 0 1 144.72 11.92)" class="st0 st1 st2">Q1 2022</text>
<text transform="matrix(1 0 0 1 122.56 40.24)" class="st3 st1 st2">Launchpad</text>
<text transform="matrix(1 0 0 1 67.75 62.71)" class="st4 st5 st6">W</text>
<text transform="matrix(1 0 0 1 76.53 62.71)" class="st4 st5 st6">eb 1.0, community suppo</text>
<text transform="matrix(1 0 0 1 190.26 62.71)" class="st4 st5 st6">r</text>
<text transform="matrix(1 0 0 1 194.17 62.71)" class="st4 st5 st6">t</text>
<text transform="matrix(1 0 0 1 197.2 62.71)" class="st4 st5 st6">,</text>
<text transform="matrix(1 0 0 1 46.14 78.25)" class="st4 st5 st6">mar</text>
<text transform="matrix(1 0 0 1 64.28 78.25)" class="st4 st5 st6">k</text>
<text transform="matrix(1 0 0 1 69.53 78.25)" class="st4 st5 st6">e</text>
<text transform="matrix(1 0 0 1 75.01 78.25)" class="st4 st5 st6">ting plan, NF</text>
<text transform="matrix(1 0 0 1 132.41 78.25)" class="st4 st5 st6">T</text>
<text transform="matrix(1 0 0 1 137.58 78.25)" class="st4 st5 st6"> d</text>
<text transform="matrix(1 0 0 1 145.86 78.25)" class="st4 st5 st6">e</text>
<text transform="matrix(1 0 0 1 151.26 78.25)" class="st4 st5 st6">v</text>
<text transform="matrix(1 0 0 1 156.45 78.25)" class="st4 st5 st6">elopment</text>
<text transform="matrix(1 0 0 1 276.56 100)" class="st0 st1 st2">Q1 2022</text>
<text transform="matrix(1 0 0 1 276.56 128.31)" class="st3 st1 st2">Nomadzland Communi</text>
<text transform="matrix(1 0 0 1 434.0601 128.31)" class="st3 st1 st2">t</text>
<text transform="matrix(1 0 0 1 439.95 128.31)" class="st3 st1 st2">y</text>
<text transform="matrix(1 0 0 1 276.56 150.79)" class="st4 st5 st6">Community</text>
<text transform="matrix(1 0 0 1 331.37 150.79)" class="st4 st5 st6">r</text>
<text transform="matrix(1 0 0 1 335.12 150.79)" class="st4 st5 st6">e</text>
<text transform="matrix(1 0 0 1 340.52 150.79)" class="st4 st5 st6">w</text>
<text transform="matrix(1 0 0 1 348.4399 150.79)" class="st4 st5 st6">a</text>
<text transform="matrix(1 0 0 1 353.9299 150.79)" class="st4 st5 st6">r</text>
<text transform="matrix(1 0 0 1 357.6799 150.79)" class="st4 st5 st6">ds, ai</text>
<text transform="matrix(1 0 0 1 381.67 150.79)" class="st4 st5 st6">r</text>
<text transform="matrix(1 0 0 1 385.42 150.79)" class="st4 st5 st6">d</text>
<text transform="matrix(1 0 0 1 391.22 150.79)" class="st4 st5 st6">r</text>
<text transform="matrix(1 0 0 1 394.98 150.79)" class="st4 st5 st6">ops, gi</text>
<text transform="matrix(1 0 0 1 424.92 150.79)" class="st4 st5 st6">v</text>
<text transform="matrix(1 0 0 1 430.09 150.79)" class="st4 st5 st6">e</text>
<text transform="matrix(1 0 0 1 435.62 150.79)" class="st4 st5 st6">a</text>
<text transform="matrix(1 0 0 1 440.99 150.79)" class="st4 st5 st6">w</text>
<text transform="matrix(1 0 0 1 448.89 150.79)" class="st4 st5 st6">ays</text>
<text transform="matrix(1 0 0 1 276.56 166.33)" class="st4 st5 st6">&amp; mo</text>
<text transform="matrix(1 0 0 1 300.43 166.33)" class="st4 st5 st6">r</text>
<text transform="matrix(1 0 0 1 304.19 166.33)" class="st4 st5 st6">e, apply</text>
<text transform="matrix(1 0 0 1 342.96 166.33)" class="st4 st5 st6">t</text>
<text transform="matrix(1 0 0 1 346.5601 166.33)" class="st4 st5 st6">o li</text>
<text transform="matrix(1 0 0 1 359.99 166.33)" class="st4 st5 st6">s</text>
<text transform="matrix(1 0 0 1 364.8 166.33)" class="st4 st5 st6">t NFT´s in OpenSea,</text>
<text transform="matrix(1 0 0 1 276.56 181.86)" class="st4 st5 st6">t</text>
<text transform="matrix(1 0 0 1 280.17 181.86)" class="st4 st5 st6">o</text>
<text transform="matrix(1 0 0 1 285.83 181.86)" class="st4 st5 st6">k</text>
<text transform="matrix(1 0 0 1 291.09 181.86)" class="st4 st5 st6">en and bac</text>
<text transform="matrix(1 0 0 1 340.36 181.86)" class="st4 st5 st6">k</text>
<text transform="matrix(1 0 0 1 345.6 181.86)" class="st4 st5 st6">end suppo</text>
<text transform="matrix(1 0 0 1 393.22 181.86)" class="st4 st5 st6">r</text>
<text transform="matrix(1 0 0 1 397.13 181.86)" class="st4 st5 st6">t deployment</text>
<text transform="matrix(1 0 0 1 145.56 191.13)" class="st0 st1 st2">Q2 2022</text>
<text transform="matrix(1 0 0 1 44.23 219.45)" class="st3 st1 st2">Nomadzland p</text>
<text transform="matrix(1 0 0 1 144.79 219.45)" class="st3 st1 st2">r</text>
<text transform="matrix(1 0 0 1 150.96 219.45)" class="st3 st1 st2">eseason</text>
<text transform="matrix(1 0 0 1 57.17 241.93)" class="st4 st5 st6">W</text>
<text transform="matrix(1 0 0 1 65.95 241.93)" class="st4 st5 st6">eb 2.0 &amp; mar</text>
<text transform="matrix(1 0 0 1 124.37 241.93)" class="st4 st5 st6">k</text>
<text transform="matrix(1 0 0 1 129.62 241.93)" class="st4 st5 st6">e</text>
<text transform="matrix(1 0 0 1 135.09 241.93)" class="st4 st5 st6">tplace upd</text>
<text transform="matrix(1 0 0 1 182.66 241.93)" class="st4 st5 st6">a</text>
<text transform="matrix(1 0 0 1 188.08 241.93)" class="st4 st5 st6">t</text>
<text transform="matrix(1 0 0 1 191.69 241.93)" class="st4 st5 st6">e,</text>
<text transform="matrix(1 0 0 1 113.26 257.46)" class="st4 st5 st6">NF</text>
<text transform="matrix(1 0 0 1 125.29 257.46)" class="st4 st5 st6">T</text>
<text transform="matrix(1 0 0 1 130.47 257.46)" class="st4 st5 st6"> minting period</text>
<text transform="matrix(1 0 0 1 276.56 284.56)" class="st0 st1 st2">Q2 2022</text>
<text transform="matrix(1 0 0 1 276.56 312.88)" class="st3 st1 st2">Nomadzland season 1</text>
<text transform="matrix(1 0 0 1 276.56 335.35)" class="st4 st5 st6">NF</text>
<text transform="matrix(1 0 0 1 288.59 335.35)" class="st4 st5 st6">T</text>
<text transform="matrix(1 0 0 1 296.25 335.35)" class="st4 st5 st6">r</text>
<text transform="matrix(1 0 0 1 300.01 335.35)" class="st4 st5 st6">elease, IDO</text>
<text transform="matrix(1 0 0 1 353.29 335.35)" class="st4 st5 st6">T</text>
<text transform="matrix(1 0 0 1 356.89 335.35)" class="st4 st5 st6">o</text>
<text transform="matrix(1 0 0 1 362.55 335.35)" class="st4 st5 st6">k</text>
<text transform="matrix(1 0 0 1 367.8 335.35)" class="st4 st5 st6">en,</text>
<text transform="matrix(1 0 0 1 384.36 335.35)" class="st4 st5 st6">t</text>
<text transform="matrix(1 0 0 1 387.96 335.35)" class="st4 st5 st6">o</text>
<text transform="matrix(1 0 0 1 393.62 335.35)" class="st4 st5 st6">k</text>
<text transform="matrix(1 0 0 1 398.88 335.35)" class="st4 st5 st6">en sale,</text>
<text transform="matrix(1 0 0 1 276.56 350.89)" class="st4 st5 st6">LAND &amp; ROL p</text>
<text transform="matrix(1 0 0 1 339.1799 350.89)" class="st4 st5 st6">r</text>
<text transform="matrix(1 0 0 1 342.92 350.89)" class="st4 st5 st6">esale</text>
<text transform="matrix(1 0 0 1 145.56 379.52)" class="st0 st1 st2">Q2 2022</text>
<text transform="matrix(1 0 0 1 33.5 407.84)" class="st3 st1 st2">Nomadzland me</text>
<text transform="matrix(1 0 0 1 146.61 407.84)" class="st3 st1 st2">t</text>
<text transform="matrix(1 0 0 1 152.52 407.84)" class="st3 st1 st2">a</text>
<text transform="matrix(1 0 0 1 160.74 407.84)" class="st3 st1 st2">v</text>
<text transform="matrix(1 0 0 1 168.73 407.84)" class="st3 st1 st2">erse</text>
<text transform="matrix(1 0 0 1 24.17 430.31)" class="st4 st5 st6">Fir</text>
<text transform="matrix(1 0 0 1 35.85 430.31)" class="st4 st5 st6">s</text>
<text transform="matrix(1 0 0 1 40.66 430.31)" class="st4 st5 st6">t</text>
<text transform="matrix(1 0 0 1 46.81 430.31)" class="st4 st5 st6">r</text>
<text transform="matrix(1 0 0 1 50.57 430.31)" class="st4 st5 st6">e</text>
<text transform="matrix(1 0 0 1 55.97 430.31)" class="st4 st5 st6">v</text>
<text transform="matrix(1 0 0 1 61.14 430.31)" class="st4 st5 st6">enue sha</text>
<text transform="matrix(1 0 0 1 102.56 430.31)" class="st4 st5 st6">r</text>
<text transform="matrix(1 0 0 1 106.3 430.31)" class="st4 st5 st6">es, LAND &amp; ROL sale,</text>
<text transform="matrix(1 0 0 1 48.53 445.85)" class="st4 st5 st6">s</text>
<text transform="matrix(1 0 0 1 53.35 445.85)" class="st4 st5 st6">t</text>
<text transform="matrix(1 0 0 1 56.89 445.85)" class="st4 st5 st6">a</text>
<text transform="matrix(1 0 0 1 62.38 445.85)" class="st4 st5 st6">r</text>
<text transform="matrix(1 0 0 1 66.31 445.85)" class="st4 st5 st6">t</text>
<text transform="matrix(1 0 0 1 72.45 445.85)" class="st4 st5 st6">s</text>
<text transform="matrix(1 0 0 1 77.27 445.85)" class="st4 st5 st6">t</text>
<text transform="matrix(1 0 0 1 80.8 445.85)" class="st4 st5 st6">aking periods, CMC li</text>
<text transform="matrix(1 0 0 1 174.51 445.85)" class="st4 st5 st6">s</text>
<text transform="matrix(1 0 0 1 179.31 445.85)" class="st4 st5 st6">ting,</text>
<text transform="matrix(1 0 0 1 131.9 461.38)" class="st4 st5 st6">game planning</text>
<text transform="matrix(1 0 0 1 276.56 473.36)" class="st0 st1 st2">Q3 2022</text>
<text transform="matrix(1 0 0 1 276.56 501.68)" class="st3 st1 st2">Nomadzland season 2</text>
<text transform="matrix(1 0 0 1 276.56 524.16)" class="st4 st5 st6">Game d</text>
<text transform="matrix(1 0 0 1 310.97 524.16)" class="st4 st5 st6">e</text>
<text transform="matrix(1 0 0 1 316.37 524.16)" class="st4 st5 st6">v</text>
<text transform="matrix(1 0 0 1 321.54 524.16)" class="st4 st5 st6">elomen</text>
<text transform="matrix(1 0 0 1 355.5701 524.16)" class="st4 st5 st6">t</text>
<text transform="matrix(1 0 0 1 358.6 524.16)" class="st4 st5 st6">,</text>
<text transform="matrix(1 0 0 1 276.56 539.69)" class="st4 st5 st6">season 2</text>
<text transform="matrix(1 0 0 1 319.46 539.69)" class="st4 st5 st6">r</text>
<text transform="matrix(1 0 0 1 323.21 539.69)" class="st4 st5 st6">e</text>
<text transform="matrix(1 0 0 1 328.62 539.69)" class="st4 st5 st6">v</text>
<text transform="matrix(1 0 0 1 333.78 539.69)" class="st4 st5 st6">enue model &amp; mo</text>
<text transform="matrix(1 0 0 1 413.83 539.69)" class="st4 st5 st6">r</text>
<text transform="matrix(1 0 0 1 417.5701 539.69)" class="st4 st5 st6">e</text>
<polyline class="st7" points="238.9,21.9 22.2,21.9 22.2,56.9 "/>
<line class="st7" x1="238.9" y1="107.4" x2="238.9" y2="21.9"/>
<line class="st7" x1="238.9" y1="199.4" x2="238.9" y2="107.4"/>
<line class="st7" x1="238.9" y1="292.4" x2="238.9" y2="199.4"/>
<line class="st7" x1="238.9" y1="387.4" x2="238.9" y2="292.4"/>
<line class="st7" x1="238.9" y1="482.4" x2="238.9" y2="387.4"/>
<polyline class="st7" points="238.2,107.9 481.2,107.9 481.2,136.4 "/>
<polyline class="st7" points="238.2,199.9 24.2,199.9 24.2,240.9 "/>
<polyline class="st7" points="237.2,292.9 466.2,292.9 466.2,330.9 "/>
<polyline class="st7" points="237.2,387.9 0.2,387.9 0.2,421.9 "/>
<polyline class="st7" points="238.2,481.9 461.2,481.9 461.2,511.9 "/>
<rect x="232.9" y="16.4" transform="matrix(0.7071 -0.7071 0.7071 0.7071 54.1534 175.4571)" class="st8" width="11.9" height="11.9"/>
<path class="st9" d="M238.9,15.4l7,7l-7,7l-7-7L238.9,15.4 M238.9,12.6l-1.4,1.4l-7,7l-1.4,1.4l1.4,1.4l7,7l1.4,1.4l1.4-1.4l7-7
	l1.4-1.4l-1.4-1.4l-7-7C240.2,14,238.9,12.6,238.9,12.6z"/>
<rect x="232.9" y="101.4" transform="matrix(0.7071 -0.7071 0.7071 0.7071 -5.9495 200.35)" class="st8" width="11.9" height="11.9"/>
<path class="st9" d="M238.9,100.4l7,7l-7,7l-7-7L238.9,100.4 M238.9,97.6l-1.4,1.4l-7,7l-1.4,1.4l1.4,1.4l7,7l1.4,1.4l1.4-1.4l7-7
	l1.4-1.4l-1.4-1.4l-7-7L238.9,97.6L238.9,97.6z"/>
<rect x="232.9" y="193.4" transform="matrix(0.7071 -0.7071 0.7071 0.7071 -71.0037 227.2971)" class="st8" width="11.9" height="11.9"/>
<path class="st9" d="M238.9,192.4l7,7l-7,7l-7-7L238.9,192.4 M238.9,189.6l-1.4,1.4l-7,7l-1.4,1.4l1.4,1.4l7,7l1.4,1.4l1.4-1.4l7-7
	l1.4-1.4l-1.4-1.4l-7-7L238.9,189.6z"/>
<rect x="232.9" y="286.4" transform="matrix(0.7071 -0.7071 0.7071 0.7071 -136.765 254.5371)" class="st8" width="11.9" height="11.9"/>
<path class="st9" d="M238.9,285.4l7,7l-7,7l-7-7L238.9,285.4 M238.9,282.6l-1.4,1.4l-7,7l-1.4,1.4l1.4,1.4l7,7l1.4,1.4l1.4-1.4l7-7
	l1.4-1.4l-1.4-1.4l-7-7L238.9,282.6z"/>
<rect x="232.9" y="381.4" transform="matrix(0.7071 -0.7071 0.7071 0.7071 -203.9323 282.3571)" class="st8" width="11.9" height="11.9"/>
<path class="st9" d="M238.9,380.4l7,7l-7,7l-7-7L238.9,380.4 M238.9,377.6l-1.4,1.4l-7,7l-1.4,1.4l1.4,1.4l7,7l1.4,1.4l1.4-1.4l7-7
	l1.4-1.4l-1.4-1.4l-7-7L238.9,377.6z"/>
<rect x="232.9" y="475.4" transform="matrix(0.7071 -0.7071 0.7071 0.7071 -270.4066 309.8842)" class="st8" width="11.9" height="11.9"/>
<path class="st9" d="M238.9,474.4l7,7l-7,7l-7-7L238.9,474.4 M238.9,471.6l-1.4,1.4l-7,7l-1.4,1.4l1.4,1.4l7,7l1.4,1.4l1.4-1.4l7-7
	l1.4-1.4l-1.4-1.4l-7-7L238.9,471.6z"/>
</svg>
